SplineFontDB: 3.2
FontName: SeriousSansLight
FullName: Serious Sans Light
FamilyName: Serious Sans Light
Weight: Light
Copyright: https://github.com/kaBeech/serious-sans/blob/main/LICENSE
Version: 0.2.0
ItalicAngle: 0
UnderlinePosition: 0
UnderlineWidth: 0
Ascent: 1638
Descent: 410
InvalidEm: 0
LayerCount: 2
Layer: 0 1 "Back" 1
Layer: 1 1 "Fore" 0
XUID: [1021 107 -322497659 2235226]
StyleMap: 0x0040
FSType: 4
OS2Version: 3
OS2_WeightWidthSlopeOnly: 0
OS2_UseTypoMetrics: 0
CreationTime: 1532631502
ModificationTime: 1679199682
PfmFamily: 81
TTFWeight: 400
TTFWidth: 5
LineGap: 0
VLineGap: 0
Panose: 0 0 0 0 0 0 0 0 0 0
OS2TypoAscent: 1255
OS2TypoAOffset: 0
OS2TypoDescent: -386
OS2TypoDOffset: 0
OS2TypoLinegap: 200
OS2WinAscent: 1594
OS2WinAOffset: 0
OS2WinDescent: 631
OS2WinDOffset: 0
HheadAscent: 1630
HheadAOffset: 0
HheadDescent: -650
HheadDOffset: 0
OS2SubXSize: 650
OS2SubYSize: 600
OS2SubXOff: 0
OS2SubYOff: 75
OS2SupXSize: 650
OS2SupYSize: 600
OS2SupXOff: 0
OS2SupYOff: 350
OS2StrikeYSize: 0
OS2StrikeYPos: 270
OS2CapHeight: 1180
OS2XHeight: 993
OS2Vendor: 'NONE'
OS2CodePages: 00000001.00000000
OS2UnicodeRanges: 00000001.00000000.00000000.00000000
MarkAttachClasses: 1
DEI: 91125
TtTable: prep
PUSHW_1
 511
SCANCTRL
PUSHB_1
 1
SCANTYPE
SVTCA[y-axis]
MPPEM
PUSHB_1
 8
LT
IF
PUSHB_2
 1
 1
INSTCTRL
EIF
PUSHB_2
 70
 6
CALL
IF
POP
PUSHB_1
 16
EIF
MPPEM
PUSHB_1
 20
GT
IF
POP
PUSHB_1
 128
EIF
SCVTCI
PUSHB_1
 6
CALL
NOT
IF
EIF
PUSHB_1
 20
CALL
EndTTInstrs
TtTable: fpgm
PUSHB_1
 0
FDEF
PUSHB_1
 0
SZP0
MPPEM
PUSHB_1
 42
LT
IF
PUSHB_1
 74
SROUND
EIF
PUSHB_1
 0
SWAP
MIAP[rnd]
RTG
PUSHB_1
 6
CALL
IF
RTDG
EIF
MPPEM
PUSHB_1
 42
LT
IF
RDTG
EIF
DUP
MDRP[rp0,rnd,grey]
PUSHB_1
 1
SZP0
MDAP[no-rnd]
RTG
ENDF
PUSHB_1
 1
FDEF
DUP
MDRP[rp0,min,white]
PUSHB_1
 12
CALL
ENDF
PUSHB_1
 2
FDEF
MPPEM
GT
IF
RCVT
SWAP
EIF
POP
ENDF
PUSHB_1
 3
FDEF
ROUND[Black]
RTG
DUP
PUSHB_1
 64
LT
IF
POP
PUSHB_1
 64
EIF
ENDF
PUSHB_1
 4
FDEF
PUSHB_1
 6
CALL
IF
POP
SWAP
POP
ROFF
IF
MDRP[rp0,min,rnd,black]
ELSE

StartChar: .notdef
Encoding: 65536 -1 0
Width: 1116
GlyphClass: 1
Flags: W
LayerCount: 2
Fore
SplineSet
139.5 1514 m 1,0,-1
 139.5 -528 l 1,1,-1
 976.5 -528 l 1,2,-1
 976.5 1514 l 1,3,-1
 139.5 1514 l 1,0,-1
209.5 -458 m 1,4,-1
 209.5 1444 l 1,5,-1
 906.5 1444 l 1,6,-1
 906.5 -458 l 1,7,-1
 209.5 -458 l 1,4,-1
EndSplineSet
Validated: 524297
EndChar

StartChar: exclam
Encoding: 33 33 1
Width: 1116
GlyphClass: 2
Flags: W
LayerCount: 2
Fore
SplineSet
656.5 1512 m 0,0,1
 656.5 1559.60742188 656.5 1559.60742188 637.36328125 1578.37597656 c 0,2,3
 618.225585938 1597.14550781 618.225585938 1597.14550781 586.8046875 1597.14550781 c 0,4,5
 584.162109375 1597.14550781 584.162109375 1597.14550781 580.961914062 1597 c 0,6,7
 546.674804688 1597 546.674804688 1597 524.012695312 1574.73535156 c 0,8,9
 501.286132812 1552.40722656 501.286132812 1552.40722656 499.5 1504.625 c 0,10,11
 499.482421875 1479.12597656 499.482421875 1479.12597656 496.989257812 1403.82714844 c 0,12,13
 491.875 1249.38867188 491.875 1249.38867188 491.875 1164.34375 c 0,14,15
 491.875 1048.84472656 491.875 1048.84472656 495.485351562 953.770507812 c 0,16,17
 499.345703125 864.973632812 499.345703125 864.973632812 499.345703125 823.497070312 c 0,18,19
 499.345703125 716.220703125 499.345703125 716.220703125 496.858398438 683.87890625 c 0,20,21
 494.370117188 651.537109375 494.370117188 651.537109375 489.359375 621.973632812 c 0,22,23
 480.975585938 572.505859375 480.975585938 572.505859375 480.975585938 552.272460938 c 0,24,25
 480.975585938 519.456054688 480.975585938 519.456054688 498.400390625 501.373046875 c 0,26,27
 518.997070312 480 518.997070312 480 551.5 480 c 2,28,-1
 557.69140625 479.854492188 l 2,29,30
 589.590820312 479.854492188 589.590820312 479.854492188 613.342773438 499.392578125 c 0,31,32
 637.09375 518.9296875 637.09375 518.9296875 641.46484375 554.870117188 c 1,33,34
 639.50390625 621.396484375 639.50390625 621.396484375 643.681640625 652.208007812 c 0,35,36
 645.5 665.615234375 645.5 665.615234375 645.5 710.674804688 c 0,37,38
 645.5 755.735351562 645.5 755.735351562 643.860351562 819.51953125 c 0,39,40
 642.219726562 883.302734375 642.219726562 883.302734375 642.219726562 977.483398438 c 0,41,42
 642.219726562 1071.6640625 642.219726562 1071.6640625 649.360351562 1282.50390625 c 0,43,44
 656.5 1493.34472656 656.5 1493.34472656 656.5 1512 c 0,0,1
665.893554688 16.1669921875 m 0,45,46
 704.5 55.212890625 704.5 55.212890625 704.5 112.466796875 c 0,47,48
 704.5 169.721679688 704.5 169.721679688 665.360351562 208.860351562 c 0,49,50
 629.034179688 245.1875 629.034179688 245.1875 571.39453125 245.1875 c 0,51,52
 507.612304688 245.1875 507.612304688 245.1875 457.004882812 201.810546875 c 0,53,54
 411.5 162.805664062 411.5 162.805664062 411.5 110 c 0,55,56
 411.5 49.0986328125 411.5 49.0986328125 453.856445312 5.4189453125 c 0,57,58
 495.412109375 -37.041015625 495.412109375 -37.041015625 561.349609375 -29.9599609375 c 0,59,60
 627.287109375 -22.8779296875 627.287109375 -22.8779296875 665.893554688 16.1669921875 c 0,45,46
EndSplineSet
Validated: 524329
EndChar

StartChar: quotedbl
Encoding: 34 34 2
Width: 1116
GlyphClass: 2
Flags: W
LayerCount: 2
Fore
SplineSet
466.501953125 975.71484375 m 0,0,1
 475.357421875 1046.79199219 475.357421875 1046.79199219 479.146484375 1208.05371094 c 0,2,3
 482.935546875 1369.31640625 482.935546875 1369.31640625 482.935546875 1427.56054688 c 0,4,5
 482.935546875 1485.80371094 482.935546875 1485.80371094 482.209960938 1509.27539062 c 0,6,7
 481.483398438 1532.74609375 481.483398438 1532.74609375 473.83203125 1547.28417969 c 0,8,9
 466.1796875 1561.82226562 466.1796875 1561.82226562 454.248046875 1569.13574219 c 0,10,11
 429.995117188 1584 429.995117188 1584 399.3203125 1584 c 2,12,-1
 398.786132812 1584 l 1,13,14
 364.387695312 1585.81054688 364.387695312 1585.81054688 331.65234375 1572.88867188 c 0,15,16
 318.890625 1567.8515625 318.890625 1567.8515625 311.951171875 1556.49707031 c 0,17,18
 305.012695312 1545.14257812 305.012695312 1545.14257812 305.012695312 1530.52636719 c 0,19,20
 305.012695312 1527.65625 305.012695312 1527.65625 305.282226562 1524.28515625 c 0,21,22
 310.314453125 1417.60351562 310.314453125 1417.60351562 312.319335938 1253.74902344 c 0,23,24
 312.764648438 1217.30175781 312.764648438 1217.30175781 312.764648438 1183.77148438 c 0,25,26
 312.764648438 1066.20605469 312.764648438 1066.20605469 307.244140625 984.178710938 c 0,27,28
 306.654296875 978.986328125 306.654296875 978.986328125 306.654296875 974.622070312 c 0,29,30
 306.654296875 948.889648438 306.654296875 948.889648438 326.68359375 934.098632812 c 0,31,32
 354.331054688 913.682617188 354.331054688 913.682617188 389.309570312 911.975585938 c 2,33,-1
 389.546875 911.962890625 l 2,34,35
 391.8046875 911.826171875 391.8046875 911.826171875 394.033203125 911.826171875 c 0,36,37
 417.497070312 911.826171875 417.497070312 911.826171875 439.599609375 927.559570312 c 0,38,39
 461.701171875 943.29296875 461.701171875 943.29296875 466.501953125 975.71484375 c 0,0,1
727.3203125 1584 m 2,40,-1
 726.786132812 1584 l 2,41,42
 722.036132812 1584.25 722.036132812 1584.25 713.763671875 1584.25 c 0,43,44
 689.434570312 1584.25 689.434570312 1584.25 660.65234375 1572.88867188 c 0,45,46
 647.890625 1567.8515625 647.890625 1567.8515625 640.563476562 1555.86230469 c 0,47,48
 633.237304688 1543.87304688 633.237304688 1543.87304688 633.237304688 1527.11816406 c 0,49,50
 633.237304688 1525.50097656 633.237304688 1525.50097656 633.3046875 1523.81152344 c 0,51,52
 638.314453125 1417.58886719 638.314453125 1417.58886719 640.319335938 1253.74902344 c 0,53,54
 640.8203125 1212.76074219 640.8203125 1212.76074219 640.8203125 1175.46875 c 0,55,56
 640.8203125 1063.4140625 640.8203125 1063.4140625 636.254882812 984.274414062 c 0,57,58
 635.654296875 978.986328125 635.654296875 978.986328125 635.654296875 974.622070312 c 0,59,60
 635.654296875 948.889648438 635.654296875 948.889648438 655.68359375 934.098632812 c 0,61,62
 683.341796875 913.674804688 683.341796875 913.674804688 717.333984375 911.974609375 c 2,63,-1
 717.510742188 911.96484375 l 2,64,65
 719.874023438 911.826171875 719.874023438 911.826171875 722.19921875 911.826171875 c 0,66,67
 746.497070312 911.826171875 746.497070312 911.826171875 768.599609375 927.559570312 c 0,68,69
 790.701171875 943.29296875 790.701171875 943.29296875 795.501953125 975.71484375 c 0,70,71
 804.352539062 1046.76660156 804.352539062 1046.76660156 807.669921875 1205.98925781 c 0,72,73
 810.987304688 1365.21191406 810.987304688 1365.21191406 810.987304688 1424.65039062 c 0,74,75
 810.987304688 1484.08789062 810.987304688 1484.08789062 810.326171875 1511.50976562 c 2,76,-1
 810.3203125 1512 l 2,77,78
 810.3203125 1533.05566406 810.3203125 1533.05566406 802.786132812 1547.37207031 c 0,79,80
 795.250976562 1561.6875 795.250976562 1561.6875 782.818359375 1569.0703125 c 0,81,82
 757.672851562 1584 757.672851562 1584 727.3203125 1584 c 2,40,-1
EndSplineSet
Validated: 524329
EndChar

StartChar: numbersign
Encoding: 35 35 3
Width: 1116
GlyphClass: 2
Flags: W
LayerCount: 2
Fore
SplineSet
387.576171875 410 m 1,0,-1
 631.576171875 412 l 1,1,-1
 655.6953125 412 l 1,2,3
 619.112304688 217.65234375 619.112304688 217.65234375 597.953125 135.030273438 c 0,4,5
 591.958984375 113.234375 591.958984375 113.234375 591.958984375 94.4150390625 c 0,6,7
 591.958984375 75.595703125 591.958984375 75.595703125 600.694335938 56.9765625 c 0,8,9
 615.451171875 25.5205078125 615.451171875 25.5205078125 644.526367188 19.3994140625 c 1,10,11
 656.438476562 15.826171875 656.438476562 15.826171875 667.64453125 15.826171875 c 0,12,13
 689.163085938 15.826171875 689.163085938 15.826171875 712.153320312 28.1416015625 c 0,14,15
 746.95703125 46.787109375 746.95703125 46.787109375 761.358398438 82.787109375 c 1,16,17
 779.331054688 167.051757812 779.331054688 167.051757812 822.786132812 414 c 1,18,-1
 953.576171875 414 l 2,19,20
 992.09765625 414 992.09765625 414 1007.56152344 433.997070312 c 0,21,22
 1020.45800781 450.673828125 1020.45800781 450.673828125 1020.57519531 483.415039062 c 0,23,24
 1018.86425781 511.125 1018.86425781 511.125 1005.70605469 526.0625 c 0,25,26
 992.546875 541 992.546875 541 953.576171875 541 c 2,27,-1
 845.919921875 541 l 1,28,-1
 911.663085938 931 l 1,29,-1
 1003.15917969 931 l 1,30,31
 1044.82714844 932.755859375 1044.82714844 932.755859375 1063.65527344 952.3515625 c 0,32,33
 1082.38085938 971.841796875 1082.38085938 971.841796875 1082.57421875 1000.34082031 c 0,34,35
 1080.84082031 1023.3984375 1080.84082031 1023.3984375 1054.59960938 1045.19921875 c 0,36,37
 1028.35742188 1067 1028.35742188 1067 985.576171875 1067 c 2,38,-1
 961.576171875 1067 l 1,39,-1
 937.801757812 1067 l 1,40,41
 971.009765625 1258.23632812 971.009765625 1258.23632812 993.212890625 1344.01855469 c 0,42,43
 997.874023438 1361.99804688 997.874023438 1361.99804688 997.874023438 1376.71484375 c 0,44,45
 997.874023438 1398.66992188 997.874023438 1398.66992188 987.326171875 1413.34570312 c 0,46,47
 968.938476562 1438.92871094 968.938476562 1438.92871094 931.638671875 1446.38867188 c 0,48,49
 918.541015625 1449.33300781 918.541015625 1449.33300781 909.521484375 1449.33300781 c 0,50,51
 889.455078125 1449.33300781 889.455078125 1449.33300781 871.0859375 1438.68457031 c 0,52,53
 843.788085938 1422.859375 843.788085938 1422.859375 830.049804688 1377.29785156 c 1,54,-1
 772.225585938 1064 l 1,55,-1
 499.088867188 1064 l 1,56,-1
 558.978515625 1358.00683594 l 2,57,58
 562.135742188 1373.21582031 562.135742188 1373.21582031 562.135742188 1386.1484375 c 0,59,60
 562.135742188 1411.15722656 562.135742188 1411.15722656 550.240234375 1427.96582031 c 0,61,62
 531.825195312 1453.98632812 531.825195312 1453.98632812 495.553710938 1461.40527344 c 0,63,64
 484.732421875 1463.79296875 484.732421875 1463.79296875 476.327148438 1463.79296875 c 0,65,66
 456.248046875 1463.79296875 456.248046875 1463.79296875 437.0859375 1452.68457031 c 0,67,68
 409.719726562 1436.8203125 409.719726562 1436.8203125 396.02734375 1393.18359375 c 1,69,-1
 334.209960938 1060 l 1,70,-1
 317.576171875 1060 l 2,71,72
 237.09765625 1060 237.09765625 1060 198.615234375 1058.02636719 c 2,73,-1
 198.342773438 1058.01464844 l 2,74,75
 153.165039062 1056.30957031 153.165039062 1056.30957031 132.715820312 1035.86035156 c 0,76,77
 114.43359375 1017.578125 114.43359375 1017.578125 114.43359375 993.091796875 c 2,78,-1
 114.576171875 988 l 2,79,80
 114.576171875 961.9765625 114.576171875 961.9765625 134.336914062 944.411132812 c 0,81,82
 154.09765625 926.845703125 154.09765625 926.845703125 191.872070312 926.845703125 c 0,83,84
 195.254882812 926.845703125 195.254882812 926.845703125 198.780273438 926.984375 c 2,85,-1
 199.177734375 927 l 1,86,-1
 284.576171875 929 l 1,87,-1
 308.935546875 929 l 1,88,-1
 231.190429688 536.942382812 l 1,89,90
 198.470703125 535.017578125 198.470703125 535.017578125 164.489257812 534.017578125 c 0,91,92
 130.5078125 533.018554688 130.5078125 533.018554688 114.840820312 532.0390625 c 0,93,94
 69.43359375 529.46875 69.43359375 529.46875 50.359375 510.004882812 c 0,95,96
 33.42578125 492.7265625 33.42578125 492.7265625 33.42578125 467.516601562 c 2,97,-1
 33.576171875 462 l 2,98,99
 33.576171875 437.958984375 33.576171875 437.958984375 52.1083984375 423.97265625 c 0,100,101
 73.2724609375 408 73.2724609375 408 118.576171875 408 c 2,102,-1
 204.52734375 408 l 1,103,104
 157.037109375 194.875976562 157.037109375 194.875976562 141.7265625 143.21875 c 0,105,106
 135.15625 121.454101562 135.15625 121.454101562 135.15625 100.544921875 c 0,107,108
 135.15625 79.6357421875 135.15625 79.6357421875 143.522460938 59.73828125 c 0,109,110
 157.953125 25.4150390625 157.953125 25.4150390625 186.821289062 19.337890625 c 1,111,112
 197.352539062 15.8271484375 197.352539062 15.8271484375 207.180664062 15.8271484375 c 0,113,114
 229.180664062 15.8271484375 229.180664062 15.8271484375 254.583984375 31.5263671875 c 0,115,116
 292.481445312 54.9462890625 292.481445312 54.9462890625 305.305664062 90.5078125 c 1,117,118
 323.3359375 172.77734375 323.3359375 172.77734375 371.206054688 410 c 1,119,-1
 387.576171875 410 l 1,0,-1
474.177734375 931 m 1,120,-1
 749.295898438 931 l 1,121,122
 714.24609375 726.35546875 714.24609375 726.35546875 678.014648438 543 c 1,123,-1
 661.576171875 543 l 2,124,125
 503.822265625 543 503.822265625 543 396.057617188 540.403320312 c 1,126,-1
 474.177734375 931 l 1,120,-1
EndSplineSet
Validated: 524297
EndChar

StartChar: dollar
Encoding: 36 36 4
Width: 1116
GlyphClass: 2
Flags: W
LayerCount: 2
Fore
SplineSet
347.057617188 -21.775390625 m 0,0,1
 403.54296875 -39 403.54296875 -39 467.830078125 -39 c 2,2,-1
 475.151367188 -39 l 1,3,-1
 493.454101562 -39 l 1,4,-1
 493.454101562 -59 l 2,5,6
 493.454101562 -147.37109375 493.454101562 -147.37109375 489.706054688 -192.971679688 c 0,7,8
 488.859375 -202.399414062 488.859375 -202.399414062 488.859375 -210.81640625 c 0,9,10
 488.859375 -241.046875 488.859375 -241.046875 499.607421875 -257.30859375 c 0,11,12
 511.961914062 -276 511.961914062 -276 537.381835938 -276 c 2,13,-1
 537.82421875 -276.005859375 l 2,14,15
 539.083984375 -276.038085938 539.083984375 -276.038085938 540.322265625 -276.038085938 c 0,16,17
 570.352539062 -276.038085938 570.352539062 -276.038085938 592.139648438 -256.525390625 c 128,-1,18
 613.783203125 -237.139648438 613.783203125 -237.139648438 617.83984375 -201.514648438 c 1,19,20
 615.168945312 -158 615.168945312 -158 615.168945312 -37 c 2,21,-1
 615.168945312 -21.5078125 l 1,22,-1
 628.885742188 -17.6337890625 l 2,23,24
 707.856445312 4.666015625 707.856445312 4.666015625 774.8359375 47.7421875 c 0,25,26
 847.767578125 90.728515625 847.767578125 90.728515625 902.477539062 150.23828125 c 128,-1,27
 957.1875 209.747070312 957.1875 209.747070312 988.32421875 289.744140625 c 128,-1,28
 1019.46972656 369.764648438 1019.46972656 369.764648438 1019.46972656 460 c 0,29,30
 1019.46972656 513.872070312 1019.46972656 513.872070312 1009.00097656 562.885742188 c 128,-1,31
 998.532226562 611.899414062 998.532226562 611.899414062 970.5546875 662.1640625 c 128,-1,32
 942.576171875 712.428710938 942.576171875 712.428710938 900.0078125 751.213867188 c 128,-1,33
 857.509765625 789.934570312 857.509765625 789.934570312 786.78515625 820.245117188 c 0,34,35
 720.952148438 850.555664062 720.952148438 850.555664062 637.3515625 863.189453125 c 2,36,-1
 621.31640625 865.612304688 l 1,37,-1
 628.286132812 1337.80273438 l 1,38,-1
 647.02734375 1336.98339844 l 2,39,40
 694.9765625 1334.88769531 694.9765625 1334.88769531 728.803710938 1324.32714844 c 128,-1,41
 762.629882812 1313.76660156 762.629882812 1313.76660156 789.283203125 1300.42089844 c 0,42,43
 837.98828125 1276.9375 837.98828125 1276.9375 878.375976562 1276.9375 c 0,44,45
 888.490234375 1276.9375 888.490234375 1276.9375 900.327148438 1278.45507812 c 128,-1,46
 912.163085938 1279.97265625 912.163085938 1279.97265625 920.830078125 1288.63964844 c 0,47,48
 929.053710938 1296.86328125 929.053710938 1296.86328125 931.7421875 1315.30664062 c 0,49,50
 933.001953125 1322.86230469 933.001953125 1322.86230469 933.001953125 1330.05664062 c 0,51,52
 933.001953125 1350.65820312 933.001953125 1350.65820312 922.541015625 1369.18945312 c 0,53,54
 908.89453125 1393.36230469 908.89453125 1393.36230469 876.456054688 1405.26660156 c 0,55,56
 837.692382812 1419.80273438 837.692382812 1419.80273438 759.897460938 1437.97558594 c 0,57,58
 687.532226562 1456.14746094 687.532226562 1456.14746094 646.908203125 1459.04296875 c 2,59,-1
 629.811523438 1460.26074219 l 1,60,-1
 629.811523438 1588 l 2,61,62
 629.811523438 1629.16601562 629.811523438 1629.16601562 617.055664062 1650.37597656 c 0,63,64
 602.80078125 1674.08007812 602.80078125 1674.08007812 568.370117188 1674.08007812 c 0,65,66
 566.48828125 1674.08007812 566.48828125 1674.08007812 564.526367188 1674.01074219 c 2,67,-1
 564.224609375 1674 l 1,68,69
 533.625976562 1674 533.625976562 1674 520.508789062 1650.04003906 c 128,-1,70
 507.392578125 1626.08007812 507.392578125 1626.08007812 506.266601562 1581.72265625 c 0,71,72
 506.260742188 1511.28222656 506.260742188 1511.28222656 502.614257812 1446.18261719 c 1,73,-1
 488.573242188 1443.3359375 l 2,74,75
 402.750976562 1425.93359375 402.750976562 1425.93359375 336.517578125 1385.70410156 c 0,76,77
 264.678710938 1345.47363281 264.678710938 1345.47363281 220.987304688 1290.38476562 c 128,-1,78
 177.296875 1235.29589844 177.296875 1235.29589844 155.40625 1171.05371094 c 128,-1,79
 133.469726562 1106.67382812 133.469726562 1106.67382812 133.469726562 1036 c 0,80,81
 133.469726562 992.0234375 133.469726562 992.0234375 152.586914062 946.328125 c 128,-1,82
 171.704101562 900.633789062 171.704101562 900.633789062 206.869140625 859.841796875 c 128,-1,83
 242.034179688 819.05078125 242.034179688 819.05078125 298.512695312 790.340820312 c 0,84,85
 354.040039062 761.560546875 354.040039062 761.560546875 417.344726562 753.919921875 c 0,86,87
 430.73828125 752.852539062 430.73828125 752.852539062 453.100585938 749.361328125 c 128,-1,88
 475.463867188 745.87109375 475.463867188 745.87109375 501.690429688 743.265625 c 1,89,-1
 501.690429688 725 l 2,90,91
 501.690429688 455.880859375 501.690429688 455.880859375 497.817382812 94 c 1,92,-1
 479.7265625 94 l 1,93,-1
 475.151367188 94 l 2,94,95
 397.119140625 94 397.119140625 94 345.307617188 133.361328125 c 0,96,97
 288.97265625 172.72265625 288.97265625 172.72265625 245.8984375 238.799804688 c 0,98,99
 228.490234375 263.485351562 228.490234375 263.485351562 215.331054688 274.650390625 c 128,-1,100
 202.170898438 285.81640625 202.170898438 285.81640625 190.677734375 287.129882812 c 0,101,102
 185.453125 287.727539062 185.453125 287.727539062 178.893554688 287.727539062 c 128,-1,103
 172.333007812 287.727539062 172.333007812 287.727539062 162.185546875 285.359375 c 128,-1,104
 152.038085938 282.9921875 152.038085938 282.9921875 129.995117188 272.904296875 c 0,105,106
 96.5302734375 256.559570312 96.5302734375 256.559570312 96.5302734375 220.854492188 c 0,107,108
 96.5302734375 195.193359375 96.5302734375 195.193359375 113.453125 157.775390625 c 0,109,110
 153.954101562 80.9951171875 153.954101562 80.9951171875 241.3359375 24.2890625 c 0,111,112
 285.77734375 -4.5498046875 285.77734375 -4.5498046875 347.057617188 -21.775390625 c 0,0,1
340.053710938 959.590820312 m 0,113,114
 283.469726562 1013.42773438 283.469726562 1013.42773438 283.469726562 1087 c 0,115,116
 283.469726562 1170.17089844 283.469726562 1170.17089844 341.65625 1229.44433594 c 0,117,118
 394.958984375 1288.71875 394.958984375 1288.71875 480.030273438 1316.18359375 c 2,119,-1
 503.520507812 1323.76757812 l 1,120,-1
 503.520507812 1297 l 2,121,122
 503.520507812 1044.85644531 503.520507812 1044.85644531 501.369140625 877.875 c 1,123,-1
 479.21875 883.522460938 l 2,124,125
 392.02734375 905.752929688 392.02734375 905.752929688 340.053710938 959.590820312 c 0,113,114
858.733398438 502.391601562 m 128,-1,127
 868.469726562 466.693359375 868.469726562 466.693359375 868.469726562 425 c 0,128,129
 868.469726562 327.317382812 868.469726562 327.317382812 799.875976562 251.279296875 c 0,130,131
 734.881835938 175.241210938 734.881835938 175.241210938 640.463867188 132.512695312 c 2,132,-1
 614.497070312 120.762695312 l 1,133,134
 616.567382812 214.61328125 616.567382812 214.61328125 617.698242188 382.498046875 c 0,135,136
 619.74609375 686.14453125 619.74609375 686.14453125 619.74609375 686.150390625 c 2,137,-1
 619.931640625 713.8125 l 1,138,-1
 643.909179688 704.951171875 l 2,139,140
 708.387695312 681.120117188 708.387695312 681.120117188 753.139648438 648.696289062 c 0,141,142
 800.133789062 616.272460938 800.133789062 616.272460938 824.565429688 577.181640625 c 128,-1,126
 848.998046875 538.08984375 848.998046875 538.08984375 858.733398438 502.391601562 c 128,-1,127
EndSplineSet
Validated: 524297
EndChar

StartChar: percent
Encoding: 37 37 5
Width: 1116
GlyphClass: 2
Flags: W
LayerCount: 2
Fore
SplineSet
168.970703125 941.569335938 m 128,-1,1
 219.712890625 905.912109375 219.712890625 905.912109375 285.55078125 904.998046875 c 2,2,-1
 289.373046875 904.984375 l 2,3,4
 406.448242188 904.984375 406.448242188 904.984375 461.302734375 963.8828125 c 0,5,6
 523.206054688 1030.34863281 523.206054688 1030.34863281 523.206054688 1172.86132812 c 0,7,8
 523.206054688 1229.2265625 523.206054688 1229.2265625 510.951171875 1273.79492188 c 0,9,10
 495.666015625 1329.38183594 495.666015625 1329.38183594 465.924804688 1361.10644531 c 0,11,12
 406.965820312 1424 406.965820312 1424 317.943359375 1424 c 0,13,14
 198.407226562 1424 198.407226562 1424 133.336914062 1348.77734375 c 128,-1,15
 68.267578125 1273.55566406 68.267578125 1273.55566406 68.267578125 1155 c 2,16,-1
 68.267578125 1154.70898438 l 2,17,18
 68.234375 1152.39746094 68.234375 1152.39746094 68.232421875 1150.09960938 c 0,19,20
 68.232421875 1087.21582031 68.232421875 1087.21582031 93.2294921875 1032.22167969 c 128,-1,0
 118.227539062 977.2265625 118.227539062 977.2265625 168.970703125 941.569335938 c 128,-1,1
319.713867188 398.665039062 m 2,21,22
 159.969726562 117.668945312 159.969726562 117.668945312 117.248046875 30.23828125 c 0,23,24
 101.6796875 -0.8994140625 101.6796875 -0.8994140625 101.6796875 -21.88671875 c 128,-1,25
 101.6796875 -42.8740234375 101.6796875 -42.8740234375 112.53125 -55.830078125 c 128,-1,26
 123.383789062 -68.78515625 123.383789062 -68.78515625 140.603515625 -76.998046875 c 128,-1,27
 157.823242188 -85.2109375 157.823242188 -85.2109375 170.846679688 -85.2109375 c 0,28,29
 208.225585938 -85.2109375 208.225585938 -85.2109375 241.543945312 -23.7265625 c 0,30,31
 332.286132812 157.71484375 332.286132812 157.71484375 596.70703125 669.884765625 c 0,32,33
 865.973632812 1182.05371094 865.973632812 1182.05371094 942.166015625 1307.36914062 c 0,34,35
 961.698242188 1339.92382812 961.698242188 1339.92382812 961.698242188 1362.45214844 c 0,36,37
 961.698242188 1389.28710938 961.698242188 1389.28710938 930.745117188 1403.90429688 c 1,38,-1
 929.366210938 1404.62207031 l 2,39,40
 909.817382812 1415.79296875 909.817382812 1415.79296875 888.8515625 1415.79296875 c 0,41,42
 844.455078125 1415.79296875 844.455078125 1415.79296875 818.875976562 1377.37988281 c 1,43,44
 766.153320312 1253.33398438 766.153320312 1253.33398438 617.345703125 967.212890625 c 2,45,-1
 319.713867188 398.665039062 l 2,21,22
200.916015625 1061.30859375 m 0,46,47
 175.110351562 1094.80078125 175.110351562 1094.80078125 175.110351562 1152.22167969 c 0,48,49
 175.110351562 1158.78320312 175.110351562 1158.78320312 175.333007812 1162.62695312 c 0,50,51
 180.788085938 1230.27050781 180.788085938 1230.27050781 210.650390625 1270.83886719 c 0,52,53
 243.158203125 1315 243.158203125 1315 302.267578125 1315 c 0,54,55
 362.071289062 1315 362.071289062 1315 395.754882812 1275.56835938 c 0,56,57
 427.118164062 1238.85253906 427.118164062 1238.85253906 427.118164062 1167.47558594 c 0,58,59
 427.118164062 1160.65234375 427.118164062 1160.65234375 426.930664062 1157.20214844 c 0,60,61
 421.814453125 1095.20214844 421.814453125 1095.20214844 393.154296875 1056.5859375 c 128,-1,62
 364.493164062 1017.97070312 364.493164062 1017.97070312 310.24609375 1017.97070312 c 0,63,64
 308.564453125 1017.97070312 308.564453125 1017.97070312 306.868164062 1018.00390625 c 2,65,-1
 306.313476562 1018.01464844 l 1,66,67
 229.87890625 1023.71875 229.87890625 1023.71875 200.916015625 1061.30859375 c 0,46,47
686.443359375 -0.4306640625 m 128,-1,69
 733.340820312 -36.087890625 733.340820312 -36.087890625 794.19140625 -37.001953125 c 2,70,-1
 801.321289062 -37.0595703125 l 2,71,72
 922.9296875 -37.0595703125 922.9296875 -37.0595703125 980.627929688 20.6396484375 c 0,73,74
 1040.66015625 80.671875 1040.66015625 80.671875 1046.29101562 197.97265625 c 0,75,76
 1047.76757812 221.9921875 1047.76757812 221.9921875 1047.76757812 235.78125 c 0,77,78
 1047.76757812 289.19921875 1047.76757812 289.19921875 1035.09472656 331.794921875 c 0,79,80
 1018.55664062 387.381835938 1018.55664062 387.381835938 986.377929688 419.106445312 c 0,81,82
 922.5859375 482 922.5859375 482 825.267578125 482 c 0,83,84
 713.649414062 482 713.649414062 482 653.508789062 406.77734375 c 128,-1,85
 593.368164062 331.555664062 593.368164062 331.555664062 593.368164062 213 c 2,86,-1
 593.368164062 212.708984375 l 2,87,88
 593.337890625 210.397460938 593.337890625 210.397460938 593.3359375 208.099609375 c 0,89,90
 593.3359375 145.215820312 593.3359375 145.215820312 616.439453125 90.2216796875 c 128,-1,68
 639.543945312 35.2265625 639.543945312 35.2265625 686.443359375 -0.4306640625 c 128,-1,69
717.81640625 120.30859375 m 0,91,92
 693.965820312 153.80078125 693.965820312 153.80078125 693.965820312 210.372070312 c 0,93,94
 693.965820312 214.970703125 693.965820312 214.970703125 694.123046875 219.725585938 c 2,95,-1
 694.134765625 220.013671875 l 2,96,97
 697.189453125 286.102539062 697.189453125 286.102539062 725.526367188 326.983398438 c 0,98,99
 756.038085938 371 756.038085938 371 810.267578125 371 c 0,100,101
 882.905273438 371 882.905273438 371 916.56640625 323.217773438 c 0,102,103
 942.34375 286.626953125 942.34375 286.626953125 942.34375 223.7265625 c 0,104,105
 942.34375 220.172851562 942.34375 220.172851562 942.262695312 216.544921875 c 2,106,-1
 942.250976562 216.008789062 l 1,107,108
 937.744140625 156.298828125 937.744140625 156.298828125 906.548828125 117.592773438 c 128,-1,109
 875.352539062 78.8876953125 875.352539062 78.8876953125 819.828125 78.8876953125 c 0,110,111
 816.689453125 78.8876953125 816.689453125 78.8876953125 813.317382812 79.0224609375 c 0,112,113
 744.7734375 82.455078125 744.7734375 82.455078125 717.81640625 120.30859375 c 0,91,92
EndSplineSet
Validated: 524297
EndChar

StartChar: ampersand
Encoding: 38 38 6
Width: 1116
GlyphClass: 2
Flags: W
LayerCount: 2
Fore
SplineSet
1038.5859375 22.763671875 m 0,0,1
 1038.5859375 64.7939453125 1038.5859375 64.7939453125 1016.42285156 101.731445312 c 1,2,3
 931.071289062 253.051757812 931.071289062 253.051757812 897.022460938 309.306640625 c 1,4,-1
 903.739257812 319.778320312 l 2,5,6
 938.315429688 373.676757812 938.315429688 373.676757812 988.80859375 436.544921875 c 0,7,8
 1039.30175781 499.4140625 1039.30175781 499.4140625 1048.75585938 517.0703125 c 0,9,10
 1067.4140625 555.19140625 1067.4140625 555.19140625 1067.4140625 586.310546875 c 0,11,12
 1067.4140625 595.123046875 1067.4140625 595.123046875 1065.90820312 603.405273438 c 0,13,14
 1059.75683594 637.23828125 1059.75683594 637.23828125 1033.66113281 650.099609375 c 0,15,16
 1013.24511719 660.307617188 1013.24511719 660.307617188 996.005859375 660.307617188 c 0,17,18
 985.94921875 660.307617188 985.94921875 660.307617188 976.661132812 656.7890625 c 0,19,20
 949.663085938 646.563476562 949.663085938 646.563476562 917.23828125 597.92578125 c 0,21,22
 910.731445312 588.40234375 910.731445312 588.40234375 900.2734375 565.583984375 c 0,23,24
 889.815429688 542.766601562 889.815429688 542.766601562 872.74609375 504.612304688 c 0,25,26
 855.677734375 466.458007812 855.677734375 466.458007812 825.52734375 406.158203125 c 1,27,-1
 806.61328125 436.420898438 l 2,28,29
 781.918945312 475.932617188 781.918945312 475.932617188 693.338867188 601.045898438 c 0,30,31
 604.758789062 726.158203125 604.758789062 726.158203125 567.327148438 789.892578125 c 2,32,-1
 556.302734375 808.665039062 l 1,33,-1
 575.989257812 818.060546875 l 2,34,35
 618.930664062 838.555664062 618.930664062 838.555664062 650.247070312 858.30859375 c 0,36,37
 681.5625 878.061523438 681.5625 878.061523438 718.984375 911.165039062 c 0,38,39
 756.40625 944.26953125 756.40625 944.26953125 780.349609375 979.94921875 c 0,40,41
 804.291992188 1015.62988281 804.291992188 1015.62988281 820.4296875 1069.26367188 c 0,42,43
 836.5859375 1122.95703125 836.5859375 1122.95703125 836.5859375 1187.70605469 c 0,44,45
 836.5859375 1252.45507812 836.5859375 1252.45507812 810.61328125 1306.71875 c 0,46,47
 784.641601562 1360.98242188 784.641601562 1360.98242188 740.903320312 1394.01855469 c 0,48,49
 697.166015625 1427.05371094 697.166015625 1427.05371094 643.264648438 1445.02148438 c 0,50,51
 589.328125 1463 589.328125 1463 532.5859375 1463 c 0,52,53
 463.630859375 1463 463.630859375 1463 408.87890625 1446.0078125 c 0,54,55
 354.126953125 1429.015625 354.126953125 1429.015625 321.396484375 1402.73925781 c 0,56,57
 288.666992188 1376.46289062 288.666992188 1376.46289062 266.36328125 1341.61425781 c 0,58,59
 244.059570312 1306.76464844 244.059570312 1306.76464844 234.822265625 1273.51171875 c 0,60,61
 225.5859375 1240.25976562 225.5859375 1240.25976562 225.5859375 1206.40917969 c 0,62,63
 225.5859375 1152.31933594 225.5859375 1152.31933594 239.017578125 1097.24902344 c 0,64,65
 243.454101562 1079.06054688 243.454101562 1079.06054688 257.243164062 1052.43261719 c 0,66,67
 271.033203125 1025.80371094 271.033203125 1025.80371094 281.7890625 1008.203125 c 0,68,69
 292.544921875 990.602539062 292.544921875 990.602539062 319.541992188 948.607421875 c 0,70,71
 346.538085938 906.61328125 346.538085938 906.61328125 377.603515625 855.927734375 c 1,72,-1
 356.634765625 846.688476562 l 2,73,74
 185.37109375 771.225585938 185.37109375 771.225585938 109.608398438 623.309570312 c 0,75,76
 48.5859375 504.172851562 48.5859375 504.172851562 48.5859375 337 c 0,77,78
 48.5859375 230.174804688 48.5859375 230.174804688 99.58984375 138.176757812 c 0,79,80
 150.537109375 46.2802734375 150.537109375 46.2802734375 240.893554688 -9.3603515625 c 0,81,82
 331.249023438 -65 331.249023438 -65 440.5859375 -65 c 0,83,84
 475.588867188 -65 475.588867188 -65 508.956054688 -58.326171875 c 0,85,86
 542.32421875 -51.6533203125 542.32421875 -51.6533203125 566.501953125 -43.2841796875 c 0,87,88
 590.6796875 -34.9140625 590.6796875 -34.9140625 617.341796875 -17.298828125 c 0,89,90
 644.002929688 0.3173828125 644.002929688 0.3173828125 660.030273438 12.572265625 c 0,91,92
 676.056640625 24.828125 676.056640625 24.828125 698.293945312 48.9990234375 c 0,93,94
 720.53125 73.1708984375 720.53125 73.1708984375 730.215820312 84.791015625 c 0,95,96
 740.203125 96.77734375 740.203125 96.77734375 805.427734375 183.325195312 c 1,97,-1
 819.639648438 153.611328125 l 2,98,99
 830.97265625 129.9140625 830.97265625 129.9140625 850.112304688 80.34765625 c 0,100,101
 869.251953125 30.78125 869.251953125 30.78125 874.276367188 20.3525390625 c 0,102,103
 904.211914062 -32.009765625 904.211914062 -32.009765625 945.661132812 -53.17578125 c 0,104,105
 965.400390625 -63.2548828125 965.400390625 -63.2548828125 981.084960938 -63.2548828125 c 0,106,107
 996.770507812 -63.2548828125 996.770507812 -63.2548828125 1010.51171875 -54.7138671875 c 0,108,109
 1032.75976562 -42.5126953125 1032.75976562 -42.5126953125 1037.69042969 5.560546875 c 0,110,111
 1038.5859375 14.2861328125 1038.5859375 14.2861328125 1038.5859375 22.763671875 c 0,0,1
380.5859375 1172 m 0,112,113
 380.5859375 1244.38964844 380.5859375 1244.38964844 409.13671875 1286.25976562 c 0,114,115
 446.462890625 1341 446.462890625 1341 527.5859375 1341 c 0,116,117
 599.928710938 1341 599.928710938 1341 652.756835938 1296.12402344 c 0,118,119
 705.5859375 1251.24804688 705.5859375 1251.24804688 705.5859375 1166 c 0,120,121
 705.5859375 1112.48828125 705.5859375 1112.48828125 691.099609375 1072.37402344 c 0,122,123
 676.61328125 1032.25878906 676.61328125 1032.25878906 645.6640625 1005.72949219 c 0,124,125
 614.713867188 979.201171875 614.713867188 979.201171875 581.862304688 962.775390625 c 0,126,127
 549.010742188 946.349609375 549.010742188 946.349609375 501.41015625 931.862304688 c 2,128,-1
 488.838867188 928.037109375 l 1,129,-1
 480.325195312 938.078125 l 2,130,131
 439.502929688 986.2265625 439.502929688 986.2265625 410.043945312 1051.45703125 c 0,132,133
 380.5859375 1116.6875 380.5859375 1116.6875 380.5859375 1172 c 0,112,113
212.5859375 357 m 0,134,135
 212.5859375 417.91796875 212.5859375 417.91796875 222.510742188 469.6328125 c 0,136,137
 232.435546875 521.34765625 232.435546875 521.34765625 256.836914062 571.7421875 c 0,138,139
 281.23828125 622.135742188 281.23828125 622.135742188 326.868164062 664.05078125 c 0,140,141
 372.497070312 705.966796875 372.497070312 705.966796875 436.506835938 734.298828125 c 2,142,-1
 452.322265625 741.298828125 l 1,143,144
 493.260742188 676.052734375 493.260742188 676.052734375 567.904296875 569.84765625 c 0,145,146
 642.548828125 463.643554688 642.548828125 463.643554688 668.2109375 414.458007812 c 0,147,148
 693.581054688 368.75390625 693.581054688 368.75390625 734.668945312 277.448242188 c 1,149,150
 724.801757812 264.29296875 724.801757812 264.29296875 709.690429688 242.6328125 c 0,151,152
 694.579101562 220.97265625 694.579101562 220.97265625 687.736328125 212.551757812 c 0,153,154
 680.89453125 204.130859375 680.89453125 204.130859375 663.081054688 183.698242188 c 0,155,156
 645.268554688 163.264648438 645.268554688 163.264648438 632.260742188 153.509765625 c 0,157,158
 619.25390625 143.75390625 619.25390625 143.75390625 596.891601562 128.313476562 c 0,159,160
 574.529296875 112.873046875 574.529296875 112.873046875 552.612304688 105.75 c 0,161,162
 494.920898438 87 494.920898438 87 442.5859375 87 c 0,163,164
 341.163085938 87 341.163085938 87 276.875 164.909179688 c 0,165,166
 212.5859375 242.818359375 212.5859375 242.818359375 212.5859375 357 c 0,134,135
EndSplineSet
Validated: 524297
EndChar

StartChar: quotesingle
Encoding: 39 39 7
Width: 1116
GlyphClass: 2
Flags: W
LayerCount: 2
Fore
SplineSet
631.387695312 997.680664062 m 0,0,1
 640.245117188 1068.71484375 640.245117188 1068.71484375 643.560546875 1210.4765625 c 0,2,3
 646.876953125 1352.23828125 646.876953125 1352.23828125 646.876953125 1407.44433594 c 0,4,5
 646.876953125 1462.64941406 646.876953125 1462.64941406 646.122070312 1486.80566406 c 0,6,7
 645.3671875 1510.9609375 645.3671875 1510.9609375 638.15625 1525.38183594 c 0,8,9
 630.9453125 1539.80371094 630.9453125 1539.80371094 618.64453125 1547.10742188 c 0,10,11
 593.5625 1562 593.5625 1562 563.209960938 1562 c 2,12,-1
 562.67578125 1562 l 1,13,14
 528.27734375 1563.81054688 528.27734375 1563.81054688 495.541992188 1550.88867188 c 0,15,16
 482.993164062 1545.93554688 482.993164062 1545.93554688 476.05859375 1534.046875 c 0,17,18
 469.123046875 1522.15820312 469.123046875 1522.15820312 469.123046875 1505.29492188 c 0,19,20
 469.123046875 1503.59179688 469.123046875 1503.59179688 469.194335938 1501.81152344 c 0,21,22
 483.358398438 1193.02929688 483.358398438 1193.02929688 471.166992188 1006.67773438 c 2,23,-1
 471.150390625 1006.42285156 l 2,24,25
 470.765625 1002.19140625 470.765625 1002.19140625 470.765625 998.46875 c 0,26,27
 470.765625 971.330078125 470.765625 971.330078125 491.193359375 956.009765625 c 0,28,29
 518.301757812 935.678710938 518.301757812 935.678710938 553.19921875 933.975585938 c 2,30,-1
 553.436523438 933.962890625 l 2,31,32
 555.758789062 933.822265625 555.758789062 933.822265625 558.052734375 933.822265625 c 0,33,34
 581.69921875 933.822265625 581.69921875 933.822265625 604.150390625 949.1640625 c 0,35,36
 626.6015625 964.505859375 626.6015625 964.505859375 631.387695312 997.680664062 c 0,0,1
EndSplineSet
Validated: 524329
EndChar

StartChar: parenleft
Encoding: 40 40 8
Width: 1116
GlyphClass: 2
Flags: W
LayerCount: 2
Fore
SplineSet
842.625 -191 m 0,0,1
 842.625 -145.559570312 842.625 -145.559570312 827.124023438 -130.779296875 c 0,2,3
 811.624023438 -116 811.624023438 -116 779.625 -116 c 0,4,5
 723.513671875 -116 723.513671875 -116 666.474609375 -60.57421875 c 0,6,7
 609.434570312 -5.1494140625 609.434570312 -5.1494140625 563.204101562 81.66015625 c 0,8,9
 516.974609375 168.469726562 516.974609375 168.469726562 482.397460938 288.98046875 c 0,10,11
 447.850585938 409.387695312 447.850585938 409.387695312 437.690429688 535.373046875 c 0,12,13
 432.747070312 593.2109375 432.747070312 593.2109375 432.747070312 669.2578125 c 0,14,15
 432.747070312 745.3046875 432.747070312 745.3046875 438.157226562 841.142578125 c 0,16,17
 448.755859375 1028.88769531 448.755859375 1028.88769531 475.166992188 1137.63964844 c 0,18,19
 510.87890625 1290.93359375 510.87890625 1290.93359375 580.923828125 1397.00097656 c 0,20,21
 618.13671875 1453.35253906 618.13671875 1453.35253906 668.327148438 1487.17578125 c 0,22,23
 718.517578125 1521 718.517578125 1521 777.625 1521 c 0,24,25
 807.751953125 1521 807.751953125 1521 827.33984375 1536.27832031 c 0,26,27
 844.625 1549.76074219 844.625 1549.76074219 844.625 1585.13183594 c 0,28,29
 844.625 1620.50292969 844.625 1620.50292969 826.528320312 1634.98046875 c 0,30,31
 811.502929688 1647 811.502929688 1647 781.625 1647 c 0,32,33
 717.200195312 1647 717.200195312 1647 650.235351562 1614.70507812 c 0,34,35
 583.270507812 1582.40917969 583.270507812 1582.40917969 528.677734375 1528.78320312 c 0,36,37
 474.0859375 1475.15722656 474.0859375 1475.15722656 430.791992188 1410.94726562 c 0,38,39
 387.499023438 1346.73632812 387.499023438 1346.73632812 362.313476562 1280.8671875 c 0,40,41
 304.305664062 1128.47460938 304.305664062 1128.47460938 283.547851562 891.733398438 c 0,42,43
 271.375 752.904296875 271.375 752.904296875 271.375 660.20703125 c 0,44,45
 271.375 567.510742188 271.375 567.510742188 277.525390625 506.010742188 c 0,46,47
 299.255859375 281.791992188 299.255859375 281.791992188 367.842773438 110.814453125 c 0,48,49
 436.4296875 -60.1640625 436.4296875 -60.1640625 543.30859375 -154.58203125 c 0,50,51
 650.188476562 -249 650.188476562 -249 779.625 -249 c 0,52,53
 801.389648438 -249 801.389648438 -249 822.006835938 -231.818359375 c 0,54,55
 842.625 -214.63671875 842.625 -214.63671875 842.625 -191 c 0,0,1
EndSplineSet
Validated: 524297
EndChar

StartChar: parenright
Encoding: 41 41 9
Width: 1116
GlyphClass: 2
Flags: W
LayerCount: 2
Fore
SplineSet
838.46875 505.94921875 m 0,0,1
 844.625 567.509765625 844.625 567.509765625 844.625 660.20703125 c 0,2,3
 844.625 752.904296875 844.625 752.904296875 832.452148438 891.733398438 c 0,4,5
 811.694335938 1128.47460938 811.694335938 1128.47460938 753.67578125 1280.89453125 c 0,6,7
 728.500976562 1346.73632812 728.500976562 1346.73632812 685.208007812 1410.94726562 c 0,8,9
 641.9140625 1475.15722656 641.9140625 1475.15722656 587.311523438 1528.79394531 c 0,10,11
 532.708984375 1582.4296875 532.708984375 1582.4296875 466.240234375 1614.71484375 c 0,12,13
 399.770507812 1647 399.770507812 1647 334.375 1647 c 0,14,15
 309.98046875 1647 309.98046875 1647 291.049804688 1635.78125 c 0,16,17
 282.963867188 1630.99023438 282.963867188 1630.99023438 277.168945312 1618.31445312 c 0,18,19
 271.375 1605.63964844 271.375 1605.63964844 271.375 1584 c 0,20,21
 271.375 1549.76074219 271.375 1549.76074219 288.66015625 1536.27832031 c 0,22,23
 308.248046875 1521 308.248046875 1521 339.375 1521 c 0,24,25
 397.427734375 1521 397.427734375 1521 448.16015625 1487.17871094 c 0,26,27
 498.891601562 1453.35742188 498.891601562 1453.35742188 535.053710938 1397.8046875 c 0,28,29
 605.399414062 1289.73730469 605.399414062 1289.73730469 640.833007812 1137.63964844 c 0,30,31
 667.23828125 1028.9140625 667.23828125 1028.9140625 678.33984375 841.197265625 c 0,32,33
 683.875 747.599609375 683.875 747.599609375 683.875 671.1171875 c 0,34,35
 683.875 594.634765625 683.875 594.634765625 678.298828125 535.240234375 c 0,36,37
 668.130859375 409.32421875 668.130859375 409.32421875 633.602539062 288.98046875 c 0,38,39
 599.025390625 168.469726562 599.025390625 168.469726562 552.795898438 81.66015625 c 0,40,41
 506.565429688 -5.1494140625 506.565429688 -5.1494140625 449.525390625 -60.57421875 c 0,42,43
 392.486328125 -116 392.486328125 -116 336.375 -116 c 0,44,45
 304.375976562 -116 304.375976562 -116 288.875976562 -130.779296875 c 0,46,47
 273.375 -145.559570312 273.375 -145.559570312 273.375 -191 c 0,48,49
 273.375 -214.63671875 273.375 -214.63671875 293.993164062 -231.818359375 c 0,50,51
 314.610351562 -249 314.610351562 -249 336.375 -249 c 0,52,53
 465.811523438 -249 465.811523438 -249 572.69140625 -154.58203125 c 0,54,55
 679.5703125 -60.1640625 679.5703125 -60.1640625 748.157226562 110.813476562 c 0,56,57
 816.744140625 281.791992188 816.744140625 281.791992188 838.46875 505.94921875 c 0,0,1
EndSplineSet
Validated: 524297
EndChar

StartChar: asterisk
Encoding: 42 42 10
Width: 1116
GlyphClass: 2
Flags: W
LayerCount: 2
Fore
SplineSet
820.71875 271.104492188 m 0,0,1
 838.557617188 282.138671875 838.557617188 282.138671875 842.26953125 309.234375 c 0,2,3
 842.9765625 314.396484375 842.9765625 314.396484375 842.9765625 319.870117188 c 0,4,5
 842.9765625 346.501953125 842.9765625 346.501953125 826.41796875 380.592773438 c 1,6,-1
 671.68359375 646.333007812 l 1,7,8
 754.12109375 647.94140625 754.12109375 647.94140625 795.025390625 647.94140625 c 0,9,10
 930.831054688 647.94140625 930.831054688 647.94140625 984.021484375 637.611328125 c 0,11,12
 990.701171875 636.275390625 990.701171875 636.275390625 998.805664062 636.275390625 c 0,13,14
 1006.91015625 636.275390625 1006.91015625 636.275390625 1015.15917969 640.400390625 c 0,15,16
 1038.51953125 652.080078125 1038.51953125 652.080078125 1048.12109375 692.620117188 c 0,17,18
 1052.0078125 709.03125 1052.0078125 709.03125 1052.08300781 724.400390625 c 0,19,20
 1050.31933594 750.944335938 1050.31933594 750.944335938 1023.63867188 775.19921875 c 0,21,22
 1006.85742188 790.454101562 1006.85742188 790.454101562 986.041015625 790.454101562 c 0,23,24
 975.927734375 790.454101562 975.927734375 790.454101562 963.715820312 786.805664062 c 0,25,26
 885.970703125 764 885.970703125 764 704.083984375 764 c 2,27,-1
 670.185546875 764 l 1,28,-1
 686.565429688 793.650390625 l 2,29,30
 766.002929688 937.442382812 766.002929688 937.442382812 831.51171875 1034.19335938 c 0,31,32
 848.602539062 1058.97558594 848.602539062 1058.97558594 848.602539062 1084.62011719 c 0,33,34
 848.6015625 1110.26367188 848.6015625 1110.26367188 838.267578125 1127.48828125 c 0,35,36
 827.932617188 1144.71289062 827.932617188 1144.71289062 812.151367188 1152.60351562 c 1,37,38
 775.456054688 1176.45507812 775.456054688 1176.45507812 734.4921875 1151.421875 c 0,39,40
 712.693359375 1138.10058594 712.693359375 1138.10058594 700.26171875 1111.65136719 c 0,41,42
 657.852539062 1017.7734375 657.852539062 1017.7734375 576.408203125 877.005859375 c 2,43,-1
 558.221679688 845.572265625 l 1,44,45
 444.297851562 1062.84960938 444.297851562 1062.84960938 420.9921875 1113.46679688 c 0,46,47
 407.723632812 1140.72851562 407.723632812 1140.72851562 384.21484375 1154.10449219 c 0,48,49
 360.64453125 1167.51464844 360.64453125 1167.51464844 338.732421875 1167.51464844 c 0,50,51
 316.020507812 1167.51464844 316.020507812 1167.51464844 300.01953125 1156.56640625 c 1,52,-1
 298.5546875 1155.87988281 l 2,53,54
 276.610351562 1145.59375 276.610351562 1145.59375 272.438476562 1111.07910156 c 0,55,56
 271.70703125 1105.02734375 271.70703125 1105.02734375 271.70703125 1098.95507812 c 0,57,58
 271.70703125 1066.45996094 271.70703125 1066.45996094 292.749023438 1032.08007812 c 0,59,60
 350.182617188 952.377929688 350.182617188 952.377929688 438.317382812 803.149414062 c 2,61,-1
 457.5625 770.564453125 l 1,62,63
 236.672851562 785.048828125 236.672851562 785.048828125 141.4921875 793.0625 c 0,64,65
 136.084960938 793.331054688 136.084960938 793.331054688 134.250976562 793.333007812 c 0,66,67
 117.107421875 793.333007812 117.107421875 793.333007812 102.678710938 786.462890625 c 0,68,69
 88.25 779.591796875 88.25 779.591796875 79.9951171875 765.439453125 c 0,70,71
 63.9169921875 737.877929688 63.9169921875 737.877929688 63.9169921875 709.02734375 c 0,72,73
 63.9169921875 709.015625 63.9169921875 709.015625 64.083984375 703 c 0,74,75
 64.083984375 672.421875 64.083984375 672.421875 86.666015625 646.2109375 c 0,76,77
 109.247070312 620 109.247070312 620 149.083984375 620 c 0,78,79
 228.419921875 620 228.419921875 620 434.215820312 633.474609375 c 1,80,-1
 278.491210938 378.131835938 l 1,81,82
 267.322265625 356.892578125 267.322265625 356.892578125 267.322265625 338.811523438 c 0,83,84
 267.322265625 334.76953125 267.322265625 334.76953125 267.8828125 330.848632812 c 0,85,86
 271.245117188 307.3125 271.245117188 307.3125 281.737304688 291.57421875 c 0,87,88
 292.275390625 275.765625 292.275390625 275.765625 305.373046875 267.828125 c 0,89,90
 329.634765625 253.125 329.634765625 253.125 365.958984375 253.125 c 0,91,92
 371.061523438 253.125 371.061523438 253.125 376.29296875 253.458984375 c 0,93,94
 394.58203125 254.625976562 394.58203125 254.625976562 409.44921875 264.290039062 c 0,95,96
 424.315429688 273.953125 424.315429688 273.953125 430.2265625 291.686523438 c 0,97,98
 453.747070312 354.065429688 453.747070312 354.065429688 550.240234375 544.037109375 c 2,99,-1
 567.831054688 578.668945312 l 1,100,-1
 585.821289062 544.243164062 l 2,101,102
 667.627929688 387.700195312 667.627929688 387.700195312 694.153320312 304.043945312 c 0,103,104
 701.478515625 280.602539062 701.478515625 280.602539062 724.9375 270.176757812 c 0,105,106
 748.397460938 259.75 748.397460938 259.75 775.05078125 259.75 c 0,107,108
 801.704101562 259.75 801.704101562 259.75 820.71875 271.104492188 c 0,0,1
EndSplineSet
Validated: 524329
EndChar

StartChar: plus
Encoding: 43 43 11
Width: 1116
GlyphClass: 2
Flags: W
LayerCount: 2
Fore
SplineSet
266.076171875 750 m 2,0,-1
 472.076171875 752 l 1,1,-1
 492.076171875 752 l 1,2,-1
 492.076171875 513 l 2,3,4
 492.076171875 473.788085938 492.076171875 473.788085938 511.938476562 458.076171875 c 0,5,6
 528.317382812 445.120117188 528.317382812 445.120117188 560.491210938 445.000976562 c 0,7,8
 588.051757812 446.706054688 588.051757812 446.706054688 603.064453125 460.2890625 c 0,9,10
 618.076171875 473.87109375 618.076171875 473.87109375 618.076171875 513 c 0,11,12
 618.076171875 528.865234375 618.076171875 528.865234375 617.076171875 604.365234375 c 0,13,14
 616.076171875 679.865234375 616.076171875 679.865234375 616.076171875 736 c 2,15,-1
 616.076171875 755.545898438 l 1,16,17
 705.442382812 757.599609375 705.442382812 757.599609375 768.928710938 757.599609375 c 0,18,19
 832.415039062 757.599609375 832.415039062 757.599609375 865.950195312 753.916015625 c 0,20,21
 872.922851562 753.55859375 872.922851562 753.55859375 875.236328125 753.555664062 c 0,22,23
 907.2265625 753.555664062 907.2265625 753.555664062 918.0703125 771.026367188 c 0,24,25
 925.340820312 782.739257812 925.340820312 782.739257812 928.181640625 794.9140625 c 0,26,27
 931.022460938 807.088867188 931.022460938 807.088867188 931.075195312 823.4140625 c 0,28,29
 929.373046875 850.986328125 929.373046875 850.986328125 916.28125 865.493164062 c 0,30,31
 903.189453125 880 903.189453125 880 864.076171875 880 c 2,32,-1
 618.076171875 880 l 1,33,-1
 618.076171875 900 l 2,34,35
 618.076171875 1008.66113281 618.076171875 1008.66113281 625.111328125 1127.20019531 c 0,36,37
 625.380859375 1131.78320312 625.380859375 1131.78320312 625.380859375 1136.03710938 c 0,38,39
 625.380859375 1168.45410156 625.380859375 1168.45410156 610.146484375 1179.08984375 c 0,40,41
 591.374023438 1192.1953125 591.374023438 1192.1953125 562.751953125 1192.1953125 c 2,42,-1
 555.076171875 1192 l 2,43,44
 522.287109375 1192 522.287109375 1192 505.709960938 1180.09179688 c 0,45,46
 486.821289062 1166.52246094 486.821289062 1166.52246094 486.821289062 1132.75097656 c 0,47,48
 486.821289062 1129.06640625 486.821289062 1129.06640625 487.04296875 1125.15039062 c 2,49,-1
 487.057617188 1124.859375 l 2,50,51
 492.076171875 1006.43066406 492.076171875 1006.43066406 492.076171875 903 c 2,52,-1
 492.076171875 883 l 1,53,-1
 472.076171875 883 l 2,54,55
 407.79296875 883 407.79296875 883 263.51171875 887.0078125 c 2,56,-1
 263.294921875 887.014648438 l 2,57,58
 260.098632812 887.137695312 260.098632812 887.137695312 257.034179688 887.137695312 c 0,59,60
 219.239257812 887.137695312 219.239257812 887.137695312 202.08203125 868.229492188 c 0,61,62
 184.924804688 849.321289062 184.924804688 849.321289062 184.924804688 822.672851562 c 2,63,-1
 185.076171875 817 l 2,64,65
 185.076171875 789.163085938 185.076171875 789.163085938 204.35546875 769.498046875 c 0,66,67
 223.470703125 750 223.470703125 750 266.076171875 750 c 2,0,-1
EndSplineSet
Validated: 524297
EndChar

StartChar: comma
Encoding: 44 44 12
Width: 1116
GlyphClass: 2
Flags: W
LayerCount: 2
Fore
SplineSet
441.362304688 -423.365234375 m 0,0,1
 458.016601562 -423.365234375 458.016601562 -423.365234375 484.041992188 -413.736328125 c 0,2,3
 528.516601562 -397.280273438 528.516601562 -397.280273438 557.963867188 -358.016601562 c 0,4,5
 572.94140625 -338.182617188 572.94140625 -338.182617188 597.5703125 -279.66796875 c 0,6,7
 622.19921875 -221.153320312 622.19921875 -221.153320312 659.436523438 -105.85546875 c 0,8,9
 726.484375 101.7421875 726.484375 101.7421875 747.3203125 200.743164062 c 0,10,11
 748.6640625 212.340820312 748.6640625 212.340820312 748.693359375 216.38671875 c 0,12,13
 748.693359375 238.306640625 748.693359375 238.306640625 736.498046875 254.471679688 c 0,14,15
 719.171875 277.438476562 719.171875 277.438476562 693.908203125 285.620117188 c 0,16,17
 674.575195312 289.545898438 674.575195312 289.545898438 654.510742188 289.545898438 c 0,18,19
 652.451171875 289.545898438 652.451171875 289.545898438 650.380859375 289.50390625 c 0,20,21
 631.6953125 289.129882812 631.6953125 289.129882812 614.83203125 276.763671875 c 0,22,23
 597.96875 264.397460938 597.96875 264.397460938 593.547851562 243.877929688 c 0,24,25
 576.236328125 159.443359375 576.236328125 159.443359375 500.111328125 -50.7822265625 c 0,26,27
 423.987304688 -261.006835938 423.987304688 -261.006835938 380.547851562 -324.19140625 c 1,28,29
 368.270507812 -349.689453125 368.270507812 -349.689453125 367.306640625 -360.569335938 c 0,30,31
 367.306640625 -363.56640625 367.306640625 -363.56640625 367.749023438 -366.495117188 c 0,32,33
 370.818359375 -386.831054688 370.818359375 -386.831054688 383.775390625 -400.55078125 c 0,34,35
 405.323242188 -423.365234375 405.323242188 -423.365234375 441.362304688 -423.365234375 c 0,0,1
EndSplineSet
Validated: 524297
EndChar

StartChar: hyphen
Encoding: 45 45 13
Width: 1116
GlyphClass: 2
Flags: W
LayerCount: 2
Fore
SplineSet
261.369140625 594.224609375 m 2,0,-1
 261.631835938 585 l 1,1,2
 261.631835938 545.719726562 261.631835938 545.719726562 281.272460938 530.0078125 c 0,3,4
 297.532226562 517 297.532226562 517 329.631835938 517 c 0,5,6
 401.123046875 517 401.123046875 517 580.623046875 526 c 0,7,8
 760.123046875 535 760.123046875 535 787.631835938 535 c 0,9,10
 826.15234375 535 826.15234375 535 841.6171875 554.997070312 c 0,11,12
 854.513671875 571.673828125 854.513671875 571.673828125 854.630859375 604.415039062 c 0,13,14
 852.928710938 631.987304688 852.928710938 631.987304688 839.836914062 646.493164062 c 0,15,16
 826.74609375 661 826.74609375 661 787.631835938 661 c 0,17,18
 765.821289062 661 765.821289062 661 604.34765625 658 c 0,19,20
 442.873046875 655.000976562 442.873046875 655.000976562 326.631835938 655 c 0,21,22
 295.456054688 655 295.456054688 655 279.749023438 643.095703125 c 0,23,24
 261.369140625 629.166015625 261.369140625 629.166015625 261.369140625 594.224609375 c 2,0,-1
EndSplineSet
Validated: 524297
EndChar

StartChar: period
Encoding: 46 46 14
Width: 1116
GlyphClass: 2
Flags: W
LayerCount: 2
Fore
SplineSet
560.358398438 -8.11328125 m 0,0,1
 627.287109375 -0.8779296875 627.287109375 -0.8779296875 665.893554688 38.1669921875 c 0,2,3
 704.5 77.212890625 704.5 77.212890625 704.5 134.466796875 c 0,4,5
 704.5 191.721679688 704.5 191.721679688 665.360351562 230.860351562 c 0,6,7
 629.034179688 267.1875 629.034179688 267.1875 571.39453125 267.1875 c 0,8,9
 507.612304688 267.1875 507.612304688 267.1875 457.004882812 223.810546875 c 0,10,11
 411.5 184.805664062 411.5 184.805664062 411.5 131 c 0,12,13
 411.5 71.0986328125 411.5 71.0986328125 453.856445312 27.4189453125 c 0,14,15
 489.28125 -9.11328125 489.28125 -9.11328125 542.153320312 -9.11328125 c 0,16,17
 550.98828125 -9.11328125 550.98828125 -9.11328125 560.358398438 -8.11328125 c 0,0,1
EndSplineSet
Validated: 524297
EndChar

StartChar: slash
Encoding: 47 47 15
Width: 1116
GlyphClass: 2
Flags: W
LayerCount: 2
Fore
SplineSet
66.529296875 -19.236328125 m 0,0,1
 66.529296875 -27.7138671875 66.529296875 -27.7138671875 67.423828125 -36.439453125 c 0,2,3
 72.3544921875 -84.5126953125 72.3544921875 -84.5126953125 94.7724609375 -96.806640625 c 1,4,5
 109.33984375 -106.254882812 109.33984375 -106.254882812 126.155273438 -106.254882812 c 0,6,7
 142.970703125 -106.254882812 142.970703125 -106.254882812 163.756835938 -96.7880859375 c 0,8,9
 208.424804688 -76.4443359375 208.424804688 -76.4443359375 238.208007812 -25.0009765625 c 0,10,11
 256.837890625 7.3564453125 256.837890625 7.3564453125 330.237304688 158.1484375 c 0,12,13
 411.571289062 325.244140625 411.571289062 325.244140625 436.884765625 373.418945312 c 0,14,15
 490.123046875 472.86328125 490.123046875 472.86328125 735.87109375 880.944335938 c 0,16,17
 981.618164062 1289.02539062 981.618164062 1289.02539062 1034.50390625 1393.67675781 c 1,18,19
 1048.67871094 1435.66601562 1048.67871094 1435.66601562 1049.47070312 1451.18652344 c 0,20,21
 1049.47070312 1460.83496094 1049.47070312 1460.83496094 1047.20214844 1469.34082031 c 0,22,23
 1039.56542969 1497.97949219 1039.56542969 1497.97949219 1011.0625 1512.86035156 c 0,24,25
 986.623046875 1523.0546875 986.623046875 1523.0546875 965.186523438 1523.0546875 c 0,26,27
 943.750976562 1523.05371094 943.750976562 1523.05371094 921.258789062 1508.99609375 c 0,28,29
 898.765625 1494.93847656 898.765625 1494.93847656 884.31640625 1467.84765625 c 0,30,31
 735.166992188 1169.56152344 735.166992188 1169.56152344 600.973632812 934.21484375 c 0,32,33
 388.729492188 551.78125 388.729492188 551.78125 88.6181640625 59.609375 c 0,34,35
 66.529296875 22.794921875 66.529296875 22.794921875 66.529296875 -19.236328125 c 0,0,1
EndSplineSet
Validated: 524297
EndChar

StartChar: zero
Encoding: 48 48 16
Width: 1116
GlyphClass: 2
Flags: W
LayerCount: 2
Fore
SplineSet
119.448242188 800.015625 m 0,0,1
 115.803710938 696.751953125 115.803710938 696.751953125 115.803710938 632.333007812 c 2,2,-1
 117.470703125 438 l 1,3,-1
 117.470703125 437.633789062 l 2,4,5
 117.356445312 431.28515625 117.356445312 431.28515625 117.353515625 425.008789062 c 0,6,7
 117.353515625 325.025390625 117.353515625 325.025390625 147.16015625 239.796875 c 128,-1,8
 176.966796875 154.567382812 176.966796875 154.567382812 232.077148438 95.6572265625 c 128,-1,9
 287.178710938 36.7548828125 287.178710938 36.7548828125 364.135742188 3.865234375 c 0,10,11
 434.219726562 -29.0234375 434.219726562 -29.0234375 517.68359375 -30 c 0,12,13
 572.3359375 -30 572.3359375 -30 612.25 -27.068359375 c 128,-1,14
 652.1640625 -24.1357421875 652.1640625 -24.1357421875 692.205078125 -15.025390625 c 128,-1,15
 732.24609375 -5.9140625 732.24609375 -5.9140625 761.7578125 9.5048828125 c 0,16,17
 793.7109375 25.01171875 793.7109375 25.01171875 825.083984375 50.296875 c 128,-1,18
 856.458007812 75.5830078125 856.458007812 75.5830078125 880.6015625 112.508789062 c 0,19,20
 932.077148438 191.237304688 932.077148438 191.237304688 966.650390625 320.185546875 c 0,21,22
 984.638671875 387.275390625 984.638671875 387.275390625 992.41796875 508.995117188 c 128,-1,23
 1000.19628906 630.71484375 1000.19628906 630.71484375 1000.1953125 740.932617188 c 0,24,25
 1000.1953125 887.150390625 1000.1953125 887.150390625 990.540039062 1010.32519531 c 0,26,27
 980.811523438 1121.0859375 980.811523438 1121.0859375 944.26953125 1206.19042969 c 128,-1,28
 907.727539062 1291.29589844 907.727539062 1291.29589844 852.16796875 1343.53125 c 128,-1,29
 796.607421875 1395.76757812 796.607421875 1395.76757812 729.724609375 1422.86132812 c 0,30,31
 666.634765625 1450 666.634765625 1450 594.731445312 1450 c 0,32,33
 447.099609375 1450 447.099609375 1450 343.725585938 1385.61328125 c 0,34,35
 231.64453125 1321.22558594 231.64453125 1321.22558594 184.189453125 1197.9453125 c 0,36,37
 164.74609375 1145.41308594 164.74609375 1145.41308594 150.494140625 1075.62792969 c 128,-1,38
 136.2421875 1005.84277344 136.2421875 1005.84277344 129.341796875 945.217773438 c 128,-1,39
 122.430664062 884.497070312 122.430664062 884.497070312 119.448242188 800.015625 c 0,0,1
392.624023438 1256.08691406 m 0,40,41
 454.750976562 1324 454.750976562 1324 565.688476562 1324 c 0,42,43
 628.309570312 1324 628.309570312 1324 680.846679688 1293.1640625 c 128,-1,44
 733.267578125 1262.39453125 733.267578125 1262.39453125 770.880859375 1205.4296875 c 2,45,-1
 778.03515625 1195.18164062 l 1,46,-1
 771.947265625 1184.27441406 l 2,47,48
 569.201171875 787.1875 569.201171875 787.1875 315.629882812 411.21875 c 2,49,-1
 279.470703125 361.731445312 l 1,50,-1
 279.470703125 423 l 2,51,52
 279.470703125 429.051757812 279.470703125 429.051757812 277.985351562 444.891601562 c 128,-1,53
 276.500976562 460.73046875 276.500976562 460.73046875 274.490234375 516.576171875 c 0,54,55
 264.400390625 796.748046875 264.400390625 796.748046875 274.034179688 917.608398438 c 0,56,57
 279.659179688 988.16796875 279.659179688 988.16796875 293.036132812 1040.74316406 c 0,58,59
 327.333007812 1188.17285156 327.333007812 1188.17285156 392.624023438 1256.08691406 c 0,40,41
611.720703125 112.55078125 m 128,-1,61
 570.305664062 103 570.305664062 103 517.5859375 103 c 0,62,63
 456.83203125 103 456.83203125 103 411.565429688 130.5703125 c 0,64,65
 354 165.205078125 354 165.205078125 320.161132812 241.946289062 c 2,66,-1
 314.704101562 254.3203125 l 1,67,-1
 324.190429688 263.997070312 l 2,68,69
 596.943359375 566.668945312 596.943359375 566.668945312 799.484375 1014.75 c 2,70,-1
 831.326171875 1080.02636719 l 1,71,-1
 837.400390625 1007.69238281 l 2,72,73
 845.541015625 910.735351562 845.541015625 910.735351562 845.537109375 807.413085938 c 0,74,75
 845.537109375 769.841796875 845.537109375 769.841796875 844.462890625 731.431640625 c 0,76,77
 840.446289062 587.84375 840.446289062 587.84375 830.834960938 476.556640625 c 128,-1,78
 821.223632812 365.270507812 821.223632812 365.270507812 812.573242188 338.060546875 c 0,79,80
 770.030273438 197.783203125 770.030273438 197.783203125 691.575195312 147.298828125 c 0,81,60
 653.13671875 122.1015625 653.13671875 122.1015625 611.720703125 112.55078125 c 128,-1,61
EndSplineSet
Validated: 524329
EndChar

StartChar: one
Encoding: 49 49 17
Width: 1116
GlyphClass: 2
Flags: W
LayerCount: 2
Fore
SplineSet
998.368164062 119.860351562 m 0,0,1
 982.229492188 136 982.229492188 136 933.5078125 136 c 0,2,3
 918.265625 136 918.265625 136 842.93359375 137.751953125 c 0,4,5
 767.859375 139.504882812 767.859375 139.504882812 635.858398438 142.380859375 c 1,6,7
 628.8515625 364.649414062 628.8515625 364.649414062 628.8515625 725 c 0,8,9
 628.8515625 774.407226562 628.8515625 774.407226562 639.352539062 1061.09179688 c 128,-1,10
 649.853515625 1347.77636719 649.853515625 1347.77636719 650.790039062 1396.14746094 c 0,11,12
 650.694335938 1401.69824219 650.694335938 1401.69824219 645.510742188 1410.265625 c 0,13,14
 636.70703125 1424.81640625 636.70703125 1424.81640625 615.577148438 1443.40820312 c 0,15,16
 578.538085938 1476 578.538085938 1476 544.751953125 1476 c 0,17,18
 527.686523438 1476 527.686523438 1476 502.594726562 1460.25 c 128,-1,19
 477.501953125 1444.50097656 477.501953125 1444.50097656 451.75390625 1421.10839844 c 0,20,21
 365.881835938 1342.65917969 365.881835938 1342.65917969 365.864257812 1342.64355469 c 0,22,23
 303.002929688 1288.38183594 303.002929688 1288.38183594 242.66015625 1242.11914062 c 0,24,25
 209.763671875 1216.53222656 209.763671875 1216.53222656 196.635742188 1194.51171875 c 128,-1,26
 183.5078125 1172.49121094 183.5078125 1172.49121094 183.5078125 1146 c 2,27,-1
 183.5078125 1145.45117188 l 2,28,29
 183.416992188 1143.76660156 183.416992188 1143.76660156 183.416992188 1142.63769531 c 0,30,31
 183.416992188 1116.45214844 183.416992188 1116.45214844 216.6171875 1087.60058594 c 0,32,33
 240.178710938 1067.12402344 240.178710938 1067.12402344 260.94140625 1067.12402344 c 0,34,35
 269.299804688 1067.12402344 269.299804688 1067.12402344 278.3203125 1070.66796875 c 0,36,37
 345.262695312 1096.49414062 345.262695312 1096.49414062 481.905273438 1220.40332031 c 2,38,-1
 514.052734375 1249.55566406 l 1,39,40
 507.73828125 1120.61328125 507.73828125 1120.61328125 498.819335938 852.061523438 c 128,-1,41
 489.900390625 583.509765625 489.900390625 583.509765625 489.446289062 542.254882812 c 0,42,43
 487.772460938 380.440429688 487.772460938 380.440429688 487.772460938 347.48046875 c 0,44,45
 487.772460938 318.013671875 487.772460938 318.013671875 489.751953125 284.299804688 c 128,-1,46
 491.733398438 250.5859375 491.733398438 250.5859375 491.733398438 169 c 2,47,-1
 491.733398438 148.639648438 l 1,48,49
 261.326171875 153 261.326171875 153 169.5078125 153 c 0,50,51
 130.254882812 153 130.254882812 153 114.772460938 133.196289062 c 128,-1,52
 99.337890625 113.455078125 99.337890625 113.455078125 99.337890625 83.880859375 c 0,53,54
 99.337890625 80.984375 99.337890625 80.984375 99.5078125 77.4951171875 c 0,55,56
 99.5078125 46.2802734375 99.5078125 46.2802734375 115.165039062 27.6396484375 c 128,-1,57
 130.823242188 9 130.823242188 9 167.5078125 9 c 0,58,59
 242.604492188 9 242.604492188 9 929.603515625 2 c 0,60,61
 981.549804688 2.0205078125 981.549804688 2.0205078125 999.10546875 21.7705078125 c 128,-1,62
 1016.66210938 41.521484375 1016.66210938 41.521484375 1016.66210938 70.775390625 c 0,63,64
 1016.66210938 101.567382812 1016.66210938 101.567382812 998.368164062 119.860351562 c 0,0,1
EndSplineSet
Validated: 524297
EndChar

StartChar: two
Encoding: 50 50 18
Width: 1116
GlyphClass: 2
Flags: W
LayerCount: 2
Fore
SplineSet
529.34765625 -16.0068359375 m 0,0,1
 802.0078125 -4 802.0078125 -4 947.4375 -4 c 0,2,3
 963.52734375 -4 963.52734375 -4 975.01171875 11.09375 c 0,4,5
 996.5625 39.41796875 996.5625 39.41796875 996.5625 84.3671875 c 0,6,7
 996.5625 105.9140625 996.5625 105.9140625 990.369140625 118.919921875 c 0,8,9
 988.044921875 123.801757812 988.044921875 123.801757812 983.938476562 126.178710938 c 0,10,11
 974.739257812 131.50390625 974.739257812 131.50390625 969.426757812 134.337890625 c 0,12,13
 962.560546875 138 962.560546875 138 934.4375 138 c 0,14,15
 929.034179688 138 929.034179688 138 912.508789062 137.028320312 c 0,16,17
 887.443359375 135.553710938 887.443359375 135.553710938 800.12890625 128.799804688 c 0,18,19
 716.384765625 122.045898438 716.384765625 122.045898438 665.4921875 118.741210938 c 128,-1,20
 614.600585938 115.4375 614.600585938 115.4375 534.288085938 115.4375 c 0,21,22
 423.5390625 115.4375 423.5390625 115.4375 284.26171875 123.0859375 c 1,23,-1
 285.473632812 143.21875 l 2,24,25
 290.651367188 229.154296875 290.651367188 229.154296875 318.293945312 304.259765625 c 128,-1,26
 345.9375 379.366210938 345.9375 379.366210938 403.870117188 450.16015625 c 0,27,28
 459.971679688 520.926757812 459.971679688 520.926757812 542.630859375 569.654296875 c 0,29,30
 622.473632812 616.361328125 622.473632812 616.361328125 670.05078125 646.455078125 c 0,31,32
 822.491210938 736.669921875 822.491210938 736.669921875 884.133789062 809.87109375 c 0,33,34
 966.4375 907.310546875 966.4375 907.310546875 966.4375 1069 c 0,35,36
 966.4375 1265.04003906 966.4375 1265.04003906 857.630859375 1362.01953125 c 128,-1,37
 749.008789062 1459 749.008789062 1459 555.678710938 1459 c 0,38,39
 493.140625 1459 493.140625 1459 431.37109375 1438.35449219 c 128,-1,40
 369.423828125 1417.65039062 369.423828125 1417.65039062 317.891601562 1384.44628906 c 0,41,42
 265.919921875 1351.24316406 265.919921875 1351.24316406 227.427734375 1313.70019531 c 128,-1,43
 188.934570312 1276.15820312 188.934570312 1276.15820312 170.422851562 1240.23828125 c 0,44,45
 152.84375 1202.24707031 152.84375 1202.24707031 152.84375 1176.8046875 c 0,46,47
 152.84375 1169.44335938 152.84375 1169.44335938 154.358398438 1163.29394531 c 0,48,49
 160.612304688 1137.90820312 160.612304688 1137.90820312 186.879882812 1124.15332031 c 0,50,51
 209.131835938 1114.91796875 209.131835938 1114.91796875 219.602539062 1112.125 c 128,-1,52
 230.073242188 1109.33300781 230.073242188 1109.33300781 236.51171875 1109.33300781 c 128,-1,53
 242.951171875 1109.33300781 242.951171875 1109.33300781 247.645507812 1109.87011719 c 0,54,55
 258.950195312 1111.16210938 258.950195312 1111.16210938 272.157226562 1122.76855469 c 128,-1,56
 285.365234375 1134.375 285.365234375 1134.375 302.885742188 1159.22949219 c 0,57,58
 345.107421875 1223.47460938 345.107421875 1223.47460938 416.423828125 1274.73730469 c 0,59,60
 485.8515625 1326 485.8515625 1326 563.83203125 1326 c 0,61,62
 674.25390625 1326 674.25390625 1326 734.87890625 1273.77441406 c 0,63,64
 802.4375 1219.75683594 802.4375 1219.75683594 802.4375 1104 c 0,65,66
 802.4375 1038.24707031 802.4375 1038.24707031 789.668945312 992.493164062 c 0,67,68
 765.810546875 911.158203125 765.810546875 911.158203125 683.62890625 842.173828125 c 0,69,70
 625.498046875 792.270507812 625.498046875 792.270507812 424.974609375 668.530273438 c 0,71,72
 337.466796875 615.396484375 337.466796875 615.396484375 265.166992188 528.5390625 c 128,-1,73
 192.8671875 441.681640625 192.8671875 441.681640625 156.15234375 348.9296875 c 128,-1,74
 119.4375 256.176757812 119.4375 256.176757812 119.4375 166.939453125 c 128,-1,75
 119.4375 77.703125 119.4375 77.703125 137.625976562 30.1328125 c 0,76,77
 144.754882812 11.4892578125 144.754882812 11.4892578125 156.157226562 0.1884765625 c 128,-1,78
 167.560546875 -11.111328125 167.560546875 -11.111328125 185.666992188 -13.123046875 c 0,79,80
 243.62890625 -20 243.62890625 -20 345.834960938 -20 c 0,81,82
 440.254882812 -20 440.254882812 -20 529.34765625 -16.0068359375 c 0,0,1
EndSplineSet
Validated: 524297
EndChar

StartChar: three
Encoding: 51 51 19
Width: 1116
GlyphClass: 2
Flags: W
LayerCount: 2
Fore
SplineSet
939.002929688 1089.31640625 m 2,0,1
 939.075195312 1093.9453125 939.075195312 1093.9453125 939.07421875 1098.51171875 c 0,2,3
 939.07421875 1459 939.07421875 1459 514.770507812 1459 c 0,4,5
 452.432617188 1459 452.432617188 1459 399.228515625 1442.32519531 c 0,6,7
 342.633789062 1425.65136719 342.633789062 1425.65136719 301 1396.79199219 c 0,8,9
 220.358398438 1340.89257812 220.358398438 1340.89257812 181.97265625 1264.21972656 c 0,10,11
 166 1230.88574219 166 1230.88574219 166 1204.75 c 0,12,13
 166 1196.59863281 166 1196.59863281 167.571289062 1189.13476562 c 0,14,15
 173.584960938 1160.5703125 173.584960938 1160.5703125 198.190429688 1148.26757812 c 128,-1,16
 222.795898438 1135.96484375 222.795898438 1135.96484375 243.185546875 1135.96484375 c 0,17,18
 251.381835938 1135.96484375 251.381835938 1135.96484375 259.140625 1137.90429688 c 0,19,20
 286.05078125 1144.63183594 286.05078125 1144.63183594 314.662109375 1183.53710938 c 0,21,22
 329.69140625 1205.578125 329.69140625 1205.578125 335.361328125 1213.30957031 c 128,-1,23
 341.150390625 1221.203125 341.150390625 1221.203125 357.008789062 1240.76171875 c 128,-1,24
 372.866210938 1260.31933594 372.866210938 1260.31933594 382.654296875 1268.56054688 c 0,25,26
 392.056640625 1276.80175781 392.056640625 1276.80175781 408.653320312 1290.89453125 c 128,-1,27
 425.250976562 1304.98730469 425.250976562 1304.98730469 441.127929688 1310.67382812 c 0,28,29
 483.916015625 1326 483.916015625 1326 522.875976562 1326 c 0,30,31
 640.887695312 1326 640.887695312 1326 706.224609375 1277.81542969 c 0,32,33
 775.12890625 1229.63183594 775.12890625 1229.63183594 775.12890625 1131.8828125 c 0,34,35
 775.12890625 1127.92675781 775.12890625 1127.92675781 775.109375 1124.00390625 c 128,-1,36
 775.08984375 1120.08105469 775.08984375 1120.08105469 775.08984375 1116.29394531 c 0,37,38
 775.08984375 981.56640625 775.08984375 981.56640625 678.8671875 909.283203125 c 0,39,40
 586.208007812 837 586.208007812 837 425.609375 837 c 0,41,42
 395.4375 837 395.4375 837 380.352539062 816.444335938 c 0,43,44
 364 795.888671875 364 795.888671875 364 760.811523438 c 128,-1,45
 364 725.735351562 364 725.735351562 387.708984375 698.3671875 c 0,46,47
 410.1484375 671 410.1484375 671 440.01953125 671 c 0,48,49
 642.330078125 671 642.330078125 671 728.928710938 590.870117188 c 0,50,51
 776.599609375 550.197265625 776.599609375 550.197265625 798.799804688 496.591796875 c 128,-1,52
 821 442.985351562 821 442.985351562 821 372 c 0,53,54
 821 254.004882812 821 254.004882812 736.1328125 178.501953125 c 0,55,56
 659.391601562 103 659.391601562 103 542.689453125 103 c 0,57,58
 465.108398438 103 465.108398438 103 398.49609375 153.189453125 c 0,59,60
 326.930664062 203.37890625 326.930664062 203.37890625 279.875976562 268.169921875 c 0,61,62
 252.032226562 305.546875 252.032226562 305.546875 224.185546875 313.21484375 c 0,63,64
 215.671875 315.559570312 215.671875 315.559570312 206.708984375 315.559570312 c 0,65,66
 186.84375 315.559570312 186.84375 315.559570312 163.924804688 304.099609375 c 0,67,68
 138.614257812 291.444335938 138.614257812 291.444335938 132.58203125 262.416992188 c 0,69,70
 131 254.802734375 131 254.802734375 131 246.65625 c 0,71,72
 131 220.762695312 131 220.762695312 146.854492188 189.015625 c 0,73,74
 165.391601562 152.916015625 165.391601562 152.916015625 203.940429688 114.842773438 c 128,-1,75
 242.489257812 76.7705078125 242.489257812 76.7705078125 294.424804688 44.0693359375 c 128,-1,76
 346.360351562 11.369140625 346.360351562 11.369140625 410.900390625 -9.3154296875 c 0,77,78
 472.419921875 -30 472.419921875 -30 534.583984375 -30 c 0,79,80
 737.241210938 -30 737.241210938 -30 861.009765625 87.7900390625 c 0,81,82
 985 205.581054688 985 205.581054688 985 407 c 0,83,84
 985 491.694335938 985 491.694335938 964.802734375 551.34765625 c 128,-1,85
 944.604492188 611.001953125 944.604492188 611.001953125 903.619140625 650.58984375 c 128,-1,86
 862.634765625 690.177734375 862.634765625 690.177734375 806.1875 715.530273438 c 128,-1,87
 749.740234375 740.883789062 749.740234375 740.883789062 674.896484375 758.443359375 c 2,88,-1
 589.86328125 778.67578125 l 1,89,-1
 675.13671875 797.611328125 l 2,90,91
 714.342773438 806.318359375 714.342773438 806.318359375 749.778320312 820.16015625 c 0,92,93
 787.9609375 834.000976562 787.9609375 834.000976562 824.201171875 858.00390625 c 128,-1,94
 860.44140625 882.0078125 860.44140625 882.0078125 885.30078125 912.390625 c 128,-1,95
 910.16015625 942.774414062 910.16015625 942.774414062 924.609375 986.57421875 c 128,-1,96
 939.05859375 1030.37304688 939.05859375 1030.37304688 939.05859375 1082.09472656 c 0,97,98
 939.05859375 1085.35449219 939.05859375 1085.35449219 939.002929688 1088.65527344 c 2,99,-1
 939.002929688 1089.31640625 l 2,0,1
EndSplineSet
Validated: 524297
EndChar

StartChar: four
Encoding: 52 52 20
Width: 1116
GlyphClass: 2
Flags: W
LayerCount: 2
Fore
SplineSet
744.483398438 -3.048828125 m 0,0,1
 772.849609375 -28 772.849609375 -28 803.764648438 -28 c 0,2,3
 822.49609375 -28 822.49609375 -28 834.90625 -18.40625 c 128,-1,4
 847.317382812 -8.8125 847.317382812 -8.8125 855.940429688 8.0751953125 c 0,5,6
 869.33203125 34.30078125 869.33203125 34.30078125 869.33203125 67.966796875 c 0,7,8
 869.33203125 86.7578125 869.33203125 86.7578125 865.1796875 107.926757812 c 0,9,10
 855.786132812 151.301757812 855.786132812 151.301757812 851.48046875 474.192382812 c 1,11,12
 907.344726562 471 907.344726562 471 947.126953125 471 c 128,-1,13
 986.91015625 471 986.91015625 471 1002.62109375 491.084960938 c 0,14,15
 1015.64550781 507.735351562 1015.64550781 507.735351562 1015.76367188 540.415039062 c 0,16,17
 1014.05859375 567.975585938 1014.05859375 567.975585938 1000.4765625 582.98828125 c 128,-1,18
 986.89453125 598 986.89453125 598 945.5390625 598 c 128,-1,19
 904.184570312 598 904.184570312 598 850.123046875 601.088867188 c 1,20,-1
 843.768554688 933.110351562 l 2,21,22
 841.774414062 1036.29296875 841.774414062 1036.29296875 834.314453125 1184.50195312 c 128,-1,23
 826.854492188 1332.7109375 826.854492188 1332.7109375 815.055664062 1403.58398438 c 0,24,25
 808.721679688 1439.04785156 808.721679688 1439.04785156 784.219726562 1452.37988281 c 0,26,27
 760.604492188 1465.7109375 760.604492188 1465.7109375 735.38671875 1465.7109375 c 0,28,29
 729.829101562 1465.7109375 729.829101562 1465.7109375 723.168945312 1465 c 2,30,-1
 722.267578125 1465 l 2,31,32
 699.893554688 1465 699.893554688 1465 673.1171875 1447.50585938 c 128,-1,33
 646.340820312 1430.01171875 646.340820312 1430.01171875 623.938476562 1395.546875 c 0,34,35
 568.918945312 1308.25292969 568.918945312 1308.25292969 439.201171875 1116.81347656 c 0,36,37
 306.0390625 925.373046875 306.0390625 925.373046875 217.426757812 797.157226562 c 128,-1,38
 128.814453125 668.942382812 128.814453125 668.942382812 108.625 613.330078125 c 0,39,40
 100.236328125 589.025390625 100.236328125 589.025390625 100.237304688 563.34765625 c 0,41,42
 100.237304688 511.1640625 100.237304688 511.1640625 128.08203125 475.236328125 c 0,43,44
 139.880859375 460.010742188 139.880859375 460.010742188 160.692382812 452.943359375 c 0,45,46
 172.486328125 448.9375 172.486328125 448.9375 184.537109375 448.9375 c 128,-1,47
 196.586914062 448.9375 196.586914062 448.9375 208.477539062 451.5390625 c 0,48,49
 334.62109375 478.694335938 334.62109375 478.694335938 606.0390625 478.694335938 c 0,50,51
 649.466796875 478.694335938 649.466796875 478.694335938 715.0078125 477.733398438 c 1,52,-1
 714.04296875 122.935546875 l 2,53,54
 714.04296875 68.69921875 714.04296875 68.69921875 714.931640625 45.0751953125 c 0,55,56
 716.362304688 21.90234375 716.362304688 21.90234375 744.483398438 -3.048828125 c 0,0,1
701.209960938 1234.3359375 m 2,57,58
 714.95703125 1006.66992188 714.95703125 1006.66992188 714.95703125 622 c 2,59,-1
 714.95703125 601.698242188 l 1,60,61
 626.81640625 603.143554688 626.81640625 603.143554688 565.244140625 603.142578125 c 0,62,63
 411.50390625 603.142578125 411.50390625 603.142578125 304.029296875 596.0390625 c 2,64,-1
 269.62890625 593.889648438 l 1,65,-1
 284.799804688 624.794921875 l 2,66,67
 389.560546875 846.569335938 389.560546875 846.569335938 668.456054688 1245.14355469 c 2,68,-1
 698.006835938 1287.37597656 l 1,69,-1
 701.209960938 1234.3359375 l 2,57,58
EndSplineSet
Validated: 524329
EndChar

StartChar: five
Encoding: 53 53 21
Width: 1116
GlyphClass: 2
Flags: W
LayerCount: 2
Fore
SplineSet
968.526367188 339.447265625 m 128,-1,1
 1005.46972656 458.055664062 1005.46972656 458.055664062 1005.46972656 607 c 0,2,3
 1005.46972656 695.83984375 1005.46972656 695.83984375 981.0078125 771.622070312 c 128,-1,4
 956.546875 847.405273438 956.546875 847.405273438 912.157226562 903.127929688 c 128,-1,5
 867.768554688 958.850585938 867.768554688 958.850585938 798.901367188 990.924804688 c 0,6,7
 732.711914062 1023 732.711914062 1023 653.955078125 1023 c 0,8,9
 542.999023438 1023 542.999023438 1023 457.801757812 983.62109375 c 128,-1,10
 372.604492188 944.2421875 372.604492188 944.2421875 319.185546875 884.4609375 c 2,11,-1
 285.696289062 848.084960938 l 1,12,13
 282.870117188 962.548828125 282.870117188 962.548828125 282.870117188 988.432617188 c 128,-1,14
 282.870117188 1014.31542969 282.870117188 1014.31542969 283.171875 1040.89746094 c 128,-1,15
 283.473632812 1067.47851562 283.473632812 1067.47851562 286.982421875 1165.72558594 c 128,-1,16
 290.487304688 1263.84570312 290.487304688 1263.84570312 292.34375 1302.84472656 c 1,17,18
 416.833007812 1311 416.833007812 1311 510.663085938 1311 c 128,-1,19
 604.478515625 1311 604.478515625 1311 657.163085938 1307.47558594 c 128,-1,20
 709.84765625 1303.95019531 709.84765625 1303.95019531 778.576171875 1297.9765625 c 0,21,22
 852.25 1292.00292969 852.25 1292.00292969 867.961914062 1291.48828125 c 128,-1,23
 883.674804688 1290.97265625 883.674804688 1290.97265625 900.518554688 1289.48632812 c 128,-1,24
 917.362304688 1288 917.362304688 1288 922.469726562 1288 c 128,-1,25
 927.770507812 1288 927.770507812 1288 940.07421875 1288.84863281 c 128,-1,26
 952.377929688 1289.69726562 952.377929688 1289.69726562 957.805664062 1292.22949219 c 128,-1,27
 963.232421875 1294.76269531 963.232421875 1294.76269531 971.970703125 1299.82128906 c 128,-1,28
 980.629882812 1304.83496094 980.629882812 1304.83496094 983.646484375 1325.67675781 c 0,29,30
 986.23046875 1346.60449219 986.23046875 1346.60449219 981.91796875 1371.18652344 c 128,-1,31
 977.60546875 1395.76757812 977.60546875 1395.76757812 963.043945312 1414.90625 c 0,32,33
 951.559570312 1430 951.559570312 1430 935.469726562 1430 c 0,34,35
 788.169921875 1430 788.169921875 1430 529.018554688 1434.50292969 c 0,36,37
 264.307617188 1439 264.307617188 1439 188.469726562 1439 c 0,38,39
 167.607421875 1439 167.607421875 1439 151.524414062 1423.29980469 c 0,40,41
 125.078125 1397.48339844 125.078125 1397.48339844 125.078125 1349.046875 c 0,42,43
 125.078125 1306.20214844 125.078125 1306.20214844 144.221679688 1276.92480469 c 2,44,-1
 147.469726562 1271.95605469 l 1,45,-1
 147.469726562 1266 l 2,46,47
 147.469726562 1235.26660156 147.469726562 1235.26660156 141.953125 1159.0390625 c 0,48,49
 131.833007812 1019.20019531 131.833007812 1019.20019531 131.833007812 943.318359375 c 0,50,51
 131.833007812 912.09375 131.833007812 912.09375 132.95703125 879.705078125 c 0,52,53
 135.349609375 810.811523438 135.349609375 810.811523438 151.810546875 764.719726562 c 0,54,55
 166.360351562 723.981445312 166.360351562 723.981445312 192.325195312 712.397460938 c 0,56,57
 211.759765625 704.400390625 211.759765625 704.400390625 230.870117188 704.400390625 c 0,58,59
 235.625 704.400390625 235.625 704.400390625 240.391601562 704.893554688 c 0,60,61
 287.991210938 709.817382812 287.991210938 709.817382812 319.805664062 737.61328125 c 0,62,63
 340.456054688 758.124023438 340.456054688 758.124023438 370.046875 786.697265625 c 0,64,65
 376.436523438 793.180664062 376.436523438 793.180664062 395.583007812 810.016601562 c 128,-1,66
 414.729492188 826.852539062 414.729492188 826.852539062 427.099609375 833.921875 c 0,67,68
 474.192382812 860.838867188 474.192382812 860.838867188 504.021484375 868.03515625 c 0,69,70
 557.752929688 881 557.752929688 881 606.646484375 881 c 0,71,72
 721.241210938 881 721.241210938 881 780.440429688 797.534179688 c 0,73,74
 841.469726562 716.697265625 841.469726562 716.697265625 841.469726562 583 c 0,75,76
 841.469726562 371.352539062 841.469726562 371.352539062 748.141601562 245.038085938 c 0,77,78
 660.336914062 116 660.336914062 116 511.118164062 116 c 0,79,80
 358.598632812 116 358.598632812 116 259.9140625 266.776367188 c 0,81,82
 242.30859375 291.75390625 242.30859375 291.75390625 229.57421875 303.293945312 c 128,-1,83
 216.840820312 314.833984375 216.840820312 314.833984375 205.240234375 316.123046875 c 0,84,85
 200.348632812 316.666992188 200.348632812 316.666992188 193.7265625 316.666992188 c 0,86,87
 179.07421875 316.666992188 179.07421875 316.666992188 144.93359375 301.868164062 c 0,88,89
 110.530273438 284.461914062 110.530273438 284.461914062 110.530273438 249.508789062 c 0,90,91
 110.530273438 223.963867188 110.530273438 223.963867188 127.40625 185.892578125 c 0,92,93
 148.05078125 148.598632812 148.05078125 148.598632812 180.602539062 114.631835938 c 128,-1,94
 213.154296875 80.6640625 213.154296875 80.6640625 262.251953125 50.1572265625 c 128,-1,95
 311.350585938 19.6494140625 311.350585938 19.6494140625 382.08984375 1.32421875 c 0,96,97
 448.77734375 -17 448.77734375 -17 528.404296875 -17 c 0,98,99
 629.116210938 -17 629.116210938 -17 712.364257812 24.19921875 c 0,100,101
 799.170898438 65.3994140625 799.170898438 65.3994140625 865.376953125 143.119140625 c 128,-1,0
 931.58203125 220.838867188 931.58203125 220.838867188 968.526367188 339.447265625 c 128,-1,1
EndSplineSet
Validated: 524297
EndChar

StartChar: six
Encoding: 54 54 22
Width: 1116
GlyphClass: 2
Flags: W
LayerCount: 2
Fore
SplineSet
973.314453125 294.973632812 m 128,-1,1
 1010.06347656 393.615234375 1010.06347656 393.615234375 1010.06347656 504 c 0,2,3
 1010.06347656 628.005859375 1010.06347656 628.005859375 982.6875 717.819335938 c 128,-1,4
 955.311523438 807.631835938 955.311523438 807.631835938 904.108398438 861.18359375 c 128,-1,5
 852.827148438 914.817382812 852.827148438 914.817382812 783.161132812 940.408203125 c 0,6,7
 717.986328125 966 717.986328125 966 634.633789062 966 c 0,8,9
 523.991210938 966 523.991210938 966 435.206054688 929.537109375 c 0,10,11
 345.908203125 893.075195312 345.908203125 893.075195312 285.282226562 822.028320312 c 2,12,-1
 240.833007812 769.940429688 l 1,13,-1
 250.25390625 837.771484375 l 2,14,15
 260.60546875 912.301757812 260.60546875 912.301757812 299.67578125 1006.37792969 c 128,-1,16
 338.74609375 1100.45410156 338.74609375 1100.45410156 382.688476562 1156.79101562 c 2,17,-1
 382.993164062 1157.18164062 l 1,18,19
 467.087890625 1262.30078125 467.087890625 1262.30078125 549.704101562 1299.9765625 c 0,20,21
 591.1875 1318.89453125 591.1875 1318.89453125 621.616210938 1328.65136719 c 128,-1,22
 652.043945312 1338.40820312 652.043945312 1338.40820312 694.830078125 1348.39355469 c 128,-1,23
 737.615234375 1358.37988281 737.615234375 1358.37988281 757.20703125 1364.22265625 c 0,24,25
 784.130859375 1372.671875 784.130859375 1372.671875 807.30859375 1397.99609375 c 0,26,27
 826.36328125 1418.81542969 826.36328125 1418.81542969 826.36328125 1433.95507812 c 0,28,29
 826.36328125 1435.29003906 826.36328125 1435.29003906 826.20703125 1436.59667969 c 0,30,31
 822.58984375 1464.80664062 822.58984375 1464.80664062 797.295898438 1477.27539062 c 128,-1,32
 772.001953125 1489.74414062 772.001953125 1489.74414062 742.288085938 1489.74414062 c 0,33,34
 735.46484375 1489.74414062 735.46484375 1489.74414062 728.271484375 1489.07226562 c 0,35,36
 619.306640625 1479.27539062 619.306640625 1479.27539062 531.553710938 1445.73046875 c 128,-1,37
 443.801757812 1412.18554688 443.801757812 1412.18554688 368.376953125 1347.83496094 c 0,38,39
 287.2578125 1283.484375 287.2578125 1283.484375 230.52734375 1189.90332031 c 128,-1,40
 173.797851562 1096.32324219 173.797851562 1096.32324219 140.916992188 958.421875 c 0,41,42
 105.936523438 811.711914062 105.936523438 811.711914062 105.936523438 625.940429688 c 0,43,44
 105.936523438 481.28515625 105.936523438 481.28515625 133.8359375 361.6484375 c 128,-1,45
 161.735351562 242.012695312 161.735351562 242.012695312 219.306640625 154.696289062 c 128,-1,46
 276.876953125 67.3798828125 276.876953125 67.3798828125 366.01171875 20.6904296875 c 0,47,48
 448.533203125 -26 448.533203125 -26 558.969726562 -26 c 0,49,50
 647.879882812 -26 647.879882812 -26 727.76953125 15.18359375 c 0,51,52
 811.862304688 56.3671875 811.862304688 56.3671875 874.2421875 126.423828125 c 128,-1,0
 936.62109375 196.481445312 936.62109375 196.481445312 973.314453125 294.973632812 c 128,-1,1
254.142578125 469.209960938 m 0,53,54
 250.063476562 520.506835938 250.063476562 520.506835938 250.063476562 616 c 2,55,-1
 250.063476562 622.174804688 l 1,56,-1
 253.536132812 627.259765625 l 2,57,58
 312.069335938 712.969726562 312.069335938 712.969726562 401.51171875 768.484375 c 0,59,60
 487.451171875 824 487.451171875 824 586.318359375 824 c 0,61,62
 648.356445312 824 648.356445312 824 692.772460938 808.841796875 c 128,-1,63
 737.188476562 793.684570312 737.188476562 793.684570312 774.284179688 755.0625 c 0,64,65
 814.008789062 716.44140625 814.008789062 716.44140625 832.036132812 647.514648438 c 128,-1,66
 850.063476562 578.586914062 850.063476562 578.586914062 850.063476562 480 c 0,67,68
 850.063476562 391.456054688 850.063476562 391.456054688 809.115234375 305.884765625 c 128,-1,69
 768.078125 220.12890625 768.078125 220.12890625 701.623046875 163.596679688 c 0,70,71
 635.501953125 107.065429688 635.501953125 107.065429688 560.958984375 107 c 0,72,73
 558.609375 106.956054688 558.609375 106.956054688 556.267578125 106.955078125 c 0,74,75
 503.92578125 106.955078125 503.92578125 106.955078125 456.875976562 129.6015625 c 128,-1,76
 409.825195312 152.247070312 409.825195312 152.247070312 376.287109375 190.104492188 c 0,77,78
 341.879882812 227.9609375 341.879882812 227.9609375 314.70703125 276.55859375 c 0,79,80
 263.055664062 368.934570312 263.055664062 368.934570312 254.142578125 469.209960938 c 0,53,54
EndSplineSet
Validated: 524297
EndChar

StartChar: seven
Encoding: 55 55 23
Width: 1116
GlyphClass: 2
Flags: W
LayerCount: 2
Fore
SplineSet
962.240234375 1420.27050781 m 128,-1,1
 944.747070312 1428 944.747070312 1428 927.9765625 1428 c 0,2,3
 919.5546875 1428 919.5546875 1428 810.8984375 1432.50683594 c 0,4,5
 595.146484375 1442.13378906 595.146484375 1442.13378906 521.366210938 1442.13378906 c 0,6,7
 286.278320312 1442.13378906 286.278320312 1442.13378906 178.766601562 1422.35839844 c 0,8,9
 135.735351562 1413.72558594 135.735351562 1413.72558594 121.921875 1397.29785156 c 128,-1,10
 108.106445312 1380.87011719 108.106445312 1380.87011719 107.9765625 1352.56542969 c 0,11,12
 110.104492188 1317.44824219 110.104492188 1317.44824219 129.16015625 1291.24511719 c 0,13,14
 137.806640625 1279.35742188 137.806640625 1279.35742188 152.0546875 1273.51171875 c 0,15,16
 159.5703125 1270.42871094 159.5703125 1270.42871094 167.368164062 1270.42871094 c 128,-1,17
 175.16796875 1270.42871094 175.16796875 1270.42871094 183.013671875 1272.37890625 c 0,18,19
 246.3125 1288.94042969 246.3125 1288.94042969 441.388671875 1293.99414062 c 0,20,21
 625.4609375 1299.00878906 625.4609375 1299.00878906 817.422851562 1292.0859375 c 1,22,-1
 808.954101562 1266.67871094 l 2,23,24
 784.344726562 1192.8515625 784.344726562 1192.8515625 721.262695312 1074.29589844 c 0,25,26
 660.149414062 955.741210938 660.149414062 955.741210938 588.640625 831.725585938 c 128,-1,27
 517.1328125 707.709960938 517.1328125 707.709960938 408.952148438 499.607421875 c 0,28,29
 295.67578125 291.663085938 295.67578125 291.663085938 190.96484375 81.2529296875 c 0,30,31
 172.994140625 43.5751953125 172.994140625 43.5751953125 186.606445312 12.4619140625 c 128,-1,32
 200.21875 -18.6513671875 200.21875 -18.6513671875 234.2109375 -26.44921875 c 0,33,34
 241.165039062 -27.85546875 241.165039062 -27.85546875 248.08984375 -27.85546875 c 0,35,36
 272.05078125 -27.85546875 272.05078125 -27.85546875 297.352539062 -10.8798828125 c 0,37,38
 331.48828125 12.021484375 331.48828125 12.021484375 353.791015625 61.34375 c 0,39,40
 448.749023438 287.899414062 448.749023438 287.899414062 554.678710938 503.958984375 c 128,-1,41
 660.606445312 720.016601562 660.606445312 720.016601562 734.509765625 850.240234375 c 0,42,43
 812.930664062 980.463867188 812.930664062 980.463867188 887.563476562 1103.359375 c 128,-1,44
 962.196289062 1226.25488281 962.196289062 1226.25488281 990.766601562 1287.28125 c 0,45,46
 1008.0234375 1326.171875 1008.0234375 1326.171875 1008.0234375 1352.92285156 c 0,47,48
 1008.0234375 1379.40234375 1008.0234375 1379.40234375 993.87890625 1395.97167969 c 128,-1,0
 979.734375 1412.54003906 979.734375 1412.54003906 962.240234375 1420.27050781 c 128,-1,1
EndSplineSet
Validated: 524329
EndChar

StartChar: eight
Encoding: 56 56 24
Width: 1116
GlyphClass: 2
Flags: W
LayerCount: 2
Fore
SplineSet
1005.25195312 292.451171875 m 128,-1,1
 1022 354.66015625 1022 354.66015625 1022 418 c 0,2,3
 1022 454.057617188 1022 454.057617188 1015.41699219 487.915039062 c 128,-1,4
 1008.83300781 521.771484375 1008.83300781 521.771484375 988.865234375 564.559570312 c 128,-1,5
 968.973632812 607.186523438 968.973632812 607.186523438 937.161132812 645.170898438 c 128,-1,6
 905.276367188 683.243164062 905.276367188 683.243164062 849.813476562 723.272460938 c 128,-1,7
 794.16015625 763.439453125 794.16015625 763.439453125 724.953125 794.55859375 c 2,8,-1
 693.529296875 809.001953125 l 1,9,10
 749.194335938 849.512695312 749.194335938 849.512695312 773.641601562 868.29296875 c 0,11,12
 832.83984375 910.118164062 832.83984375 910.118164062 857.860351562 935.139648438 c 0,13,14
 871.197265625 948.475585938 871.197265625 948.475585938 887.162109375 967.727539062 c 128,-1,15
 903.126953125 986.979492188 903.126953125 986.979492188 911.668945312 1004.06445312 c 128,-1,16
 920.211914062 1021.1484375 920.211914062 1021.1484375 926.10546875 1042.91210938 c 128,-1,17
 932 1064.67480469 932 1064.67480469 932 1089.14355469 c 128,-1,18
 932 1113.61230469 932 1113.61230469 928.204101562 1141.1328125 c 128,-1,19
 924.408203125 1168.65234375 924.408203125 1168.65234375 912.944335938 1205.90917969 c 128,-1,20
 901.481445312 1243.16601562 901.481445312 1243.16601562 883.625 1275.58886719 c 128,-1,21
 865.768554688 1308.01171875 865.768554688 1308.01171875 834.15234375 1340.57128906 c 128,-1,22
 802.65234375 1373.01269531 802.65234375 1373.01269531 762.409179688 1396.59863281 c 0,23,24
 724.358398438 1420.19921875 724.358398438 1420.19921875 667.118164062 1435.09960938 c 128,-1,25
 609.87890625 1450 609.87890625 1450 540.603515625 1450 c 128,-1,26
 471.327148438 1450 471.327148438 1450 414.58984375 1435.11621094 c 128,-1,27
 357.852539062 1420.23144531 357.852539062 1420.23144531 319.03125 1396.69726562 c 0,28,29
 278.41796875 1373.08496094 278.41796875 1373.08496094 246.84765625 1340.57128906 c 128,-1,30
 215.231445312 1308.01171875 215.231445312 1308.01171875 197.34765625 1275.54003906 c 128,-1,31
 179.46484375 1243.06738281 179.46484375 1243.06738281 168.013671875 1207.28125 c 128,-1,32
 156.561523438 1171.49609375 156.561523438 1171.49609375 152.78125 1145.02929688 c 128,-1,33
 149 1118.56347656 149 1118.56347656 149 1095 c 0,34,35
 149 1015.54394531 149 1015.54394531 206.048828125 937.749023438 c 128,-1,36
 263.098632812 859.955078125 263.098632812 859.955078125 365.1328125 811.125976562 c 2,37,-1
 406.740234375 789.874023438 l 1,38,-1
 363.17578125 774.021484375 l 2,39,40
 288.86328125 748.53515625 288.86328125 748.53515625 224.848632812 683.565429688 c 128,-1,41
 160.833984375 618.594726562 160.833984375 618.594726562 127.416992188 542.690429688 c 128,-1,42
 94 466.78515625 94 466.78515625 94 402.0546875 c 128,-1,43
 94 337.323242188 94 337.323242188 107.899414062 277.892578125 c 128,-1,44
 121.798828125 218.4609375 121.798828125 218.4609375 155.694335938 160.217773438 c 128,-1,45
 189.58984375 101.973632812 189.58984375 101.973632812 239.314453125 59.353515625 c 128,-1,46
 289.0390625 16.732421875 289.0390625 16.732421875 366.689453125 -10.1337890625 c 0,47,48
 440.083007812 -37 440.083007812 -37 536.076171875 -37 c 128,-1,49
 632.071289062 -37 632.071289062 -37 713.416992188 -8.525390625 c 0,50,51
 796.4609375 19.9482421875 796.4609375 19.9482421875 853.243164062 64.8017578125 c 128,-1,52
 910.025390625 109.654296875 910.025390625 109.654296875 949.224609375 169.888671875 c 128,-1,0
 988.502929688 230.2421875 988.502929688 230.2421875 1005.25195312 292.451171875 c 128,-1,1
368.971679688 966.180664062 m 0,53,54
 302 1024.68457031 302 1024.68457031 302 1102 c 0,55,56
 302 1193.36328125 302 1193.36328125 374.756835938 1268.24121094 c 0,57,58
 444.1796875 1342.94433594 444.1796875 1342.94433594 539.540039062 1343 c 0,59,60
 541.223632812 1343.02636719 541.223632812 1343.02636719 542.904296875 1343.02636719 c 0,61,62
 607.745117188 1343.02636719 607.745117188 1343.02636719 665.217773438 1303.68164062 c 128,-1,63
 722.688476562 1264.33691406 722.688476562 1264.33691406 754.850585938 1204.38085938 c 0,64,65
 788 1144.42480469 788 1144.42480469 788 1083.33886719 c 128,-1,66
 788 1022.25195312 788 1022.25195312 721.115234375 955.806640625 c 0,67,68
 658.590820312 892.763671875 658.590820312 892.763671875 576.633789062 857.392578125 c 2,69,-1
 570.142578125 854.590820312 l 1,70,-1
 563.587890625 857.224609375 l 2,71,72
 428.680664062 911.427734375 428.680664062 911.427734375 368.971679688 966.180664062 c 0,53,54
280.53515625 232.125 m 128,-1,74
 231 298.3515625 231 298.3515625 231 381 c 0,75,76
 231 497.999023438 231 497.999023438 327.220703125 598.951171875 c 0,77,78
 416.416015625 699.904296875 416.416015625 699.904296875 556.989257812 740.341796875 c 2,79,-1
 562.567382812 741.946289062 l 1,80,81
 642.033203125 710.102539062 642.033203125 710.102539062 696.897460938 673.444335938 c 128,-1,82
 751.760742188 636.787109375 751.760742188 636.787109375 784.018554688 601.754882812 c 0,83,84
 818.51953125 566.723632812 818.51953125 566.723632812 838.838867188 525.548828125 c 128,-1,85
 859.159179688 484.374023438 859.159179688 484.374023438 865.080078125 452.619140625 c 128,-1,86
 871 420.864257812 871 420.864257812 871 386 c 0,87,88
 871 319.764648438 871 319.764648438 839.099609375 262.9921875 c 128,-1,89
 807.19921875 206.220703125 807.19921875 206.220703125 757.716796875 170.501953125 c 0,90,91
 710.834960938 134.783203125 710.834960938 134.783203125 655.533203125 116.365234375 c 128,-1,92
 600.231445312 97.947265625 600.231445312 97.947265625 545.462890625 97.947265625 c 0,93,94
 468.22265625 97.947265625 468.22265625 97.947265625 399.553710938 131.922851562 c 0,95,73
 330.0703125 165.899414062 330.0703125 165.899414062 280.53515625 232.125 c 128,-1,74
EndSplineSet
Validated: 524297
EndChar

StartChar: nine
Encoding: 57 57 25
Width: 1116
GlyphClass: 2
Flags: W
LayerCount: 2
Fore
SplineSet
970.3203125 486.401367188 m 0,0,1
 1010.0625 623.177734375 1010.0625 623.177734375 1010.0625 798.26171875 c 0,2,3
 1010.0625 1132.13476562 1010.0625 1132.13476562 893.546875 1313.06738281 c 128,-1,4
 777.030273438 1494 777.030273438 1494 557.03125 1494 c 0,5,6
 466.989257812 1494 466.989257812 1494 387.98828125 1455.69726562 c 0,7,8
 304.740234375 1417.34765625 304.740234375 1417.34765625 242.041992188 1350.34179688 c 128,-1,9
 179.23046875 1283.21582031 179.23046875 1283.21582031 142.584960938 1187.25878906 c 128,-1,10
 105.9375 1091.30078125 105.9375 1091.30078125 105.9375 981 c 0,11,12
 105.9375 889.624023438 105.9375 889.624023438 138.6796875 801.991210938 c 128,-1,13
 171.491210938 714.170898438 171.491210938 714.170898438 226.59375 648.048828125 c 128,-1,14
 281.6953125 581.926757812 281.6953125 581.926757812 358.576171875 541.962890625 c 0,15,16
 429.270507812 502 429.270507812 502 506.891601562 502 c 0,17,18
 624.736328125 502 624.736328125 502 701.606445312 525.34375 c 0,19,20
 779.8515625 548.6875 779.8515625 548.6875 832.896484375 609.176757812 c 2,21,-1
 882.51953125 665.765625 l 1,22,-1
 867.537109375 592.00390625 l 2,23,24
 853.999023438 525.352539062 853.999023438 525.352539062 812.8515625 444.6015625 c 128,-1,25
 771.705078125 363.850585938 771.705078125 363.850585938 723.168945312 302.05859375 c 2,26,-1
 722.901367188 301.721679688 l 2,27,28
 684.971679688 254.913085938 684.971679688 254.913085938 640.3125 221.038085938 c 128,-1,29
 595.64453125 187.157226562 595.64453125 187.157226562 548.58203125 167.5390625 c 128,-1,30
 501.51953125 147.921875 501.51953125 147.921875 464.362304688 137.22265625 c 128,-1,31
 427.206054688 126.5234375 427.206054688 126.5234375 381.340820312 116.0625 c 0,32,33
 333.90234375 105.6015625 333.90234375 105.6015625 311.76171875 98.8623046875 c 0,34,35
 283.88671875 90.416015625 283.88671875 90.416015625 260.576171875 65.3779296875 c 0,36,37
 241.63671875 45.0361328125 241.63671875 45.0361328125 241.63671875 29.23046875 c 0,38,39
 241.63671875 27.8369140625 241.63671875 27.8369140625 241.7890625 26.4580078125 c 0,40,41
 245.45703125 -0.96484375 245.45703125 -0.96484375 270.862304688 -13.845703125 c 128,-1,42
 296.267578125 -26.7275390625 296.267578125 -26.7275390625 328.2265625 -26.7275390625 c 0,43,44
 335.530273438 -26.7275390625 335.530273438 -26.7275390625 343.22265625 -26.072265625 c 0,45,46
 452.13671875 -15.2861328125 452.13671875 -15.2861328125 545.123046875 17.9013671875 c 128,-1,47
 638.110351562 51.087890625 638.110351562 51.087890625 720.036132812 114.724609375 c 0,48,49
 805.61328125 178.361328125 805.61328125 178.361328125 869.1328125 267.581054688 c 128,-1,50
 932.669921875 356.821289062 932.669921875 356.821289062 970.3203125 486.401367188 c 0,0,1
344.276367188 737.36328125 m 0,51,52
 265.9375 830.725585938 265.9375 830.725585938 265.9375 1006 c 0,53,54
 265.9375 1093.80664062 265.9375 1093.80664062 307.60546875 1175.5625 c 128,-1,55
 349.30078125 1257.36914062 349.30078125 1257.36914062 414.729492188 1309.15527344 c 0,56,57
 479.947265625 1360.94140625 479.947265625 1360.94140625 555.041015625 1361 c 0,58,59
 557.391601562 1361.04394531 557.391601562 1361.04394531 559.732421875 1361.04492188 c 0,60,61
 612.07421875 1361.04492188 612.07421875 1361.04492188 659.125 1338.3984375 c 128,-1,62
 706.174804688 1315.75292969 706.174804688 1315.75292969 739.713867188 1277.89550781 c 0,63,64
 774.12109375 1240.0390625 774.12109375 1240.0390625 801.29296875 1191.44140625 c 0,65,66
 852.9453125 1099.06542969 852.9453125 1099.06542969 861.858398438 998.790039062 c 1,67,-1
 861.892578125 998.34765625 l 1,68,69
 868.337890625 901.67578125 868.337890625 901.67578125 868.337890625 843.400390625 c 0,70,71
 868.337890625 828.661132812 868.337890625 828.661132812 867.724609375 810.268554688 c 1,72,-1
 864.19140625 805.350585938 l 2,73,74
 810.17578125 730.15234375 810.17578125 730.15234375 723.751953125 687.076171875 c 0,75,76
 641.381835938 644 641.381835938 644 555.208007812 644 c 0,77,78
 416.34765625 644 416.34765625 644 344.276367188 737.36328125 c 0,51,52
EndSplineSet
Validated: 524297
EndChar

StartChar: colon
Encoding: 58 58 26
Width: 1116
GlyphClass: 2
Flags: W
LayerCount: 2
Fore
SplineSet
564.626953125 648.826171875 m 0,0,1
 589.159179688 648.826171875 589.159179688 648.826171875 615.774414062 665.264648438 c 0,2,3
 641.82421875 681.354492188 641.82421875 681.354492188 650.583007812 715.267578125 c 0,4,5
 666.841796875 774.885742188 666.841796875 774.885742188 666.841796875 827.861328125 c 0,6,7
 666.841796875 840.16796875 666.841796875 840.16796875 665.963867188 852.122070312 c 0,8,9
 663.47265625 873.951171875 663.47265625 873.951171875 653.450195312 888.598632812 c 0,10,11
 636.455078125 913.4375 636.455078125 913.4375 593.74609375 922.428710938 c 0,12,13
 576.782226562 926 576.782226562 926 560.880859375 926 c 2,14,-1
 560.373046875 926 l 1,15,16
 520.236328125 928.006835938 520.236328125 928.006835938 484.07421875 915.149414062 c 0,17,18
 466.7578125 908.9921875 466.7578125 908.9921875 456.181640625 896.228515625 c 0,19,20
 445.60546875 883.463867188 445.60546875 883.463867188 444.865234375 864.219726562 c 0,21,22
 443.755859375 832.399414062 443.755859375 832.399414062 443.755859375 795.700195312 c 0,23,24
 443.755859375 759.000976562 443.755859375 759.000976562 446.788085938 724.942382812 c 0,25,26
 450.784179688 686.75 450.784179688 686.75 482.185546875 668.275390625 c 0,27,28
 510.182617188 651.8046875 510.182617188 651.8046875 560.033203125 648.967773438 c 0,29,30
 562.36328125 648.826171875 562.36328125 648.826171875 564.626953125 648.826171875 c 0,0,1
558.31640625 100.822265625 m 0,31,32
 586.704101562 100.822265625 586.704101562 100.822265625 619.197265625 117.26953125 c 0,33,34
 651.219726562 133.478515625 651.219726562 133.478515625 659.600585938 165.33203125 c 0,35,36
 672.244140625 211.090820312 672.244140625 211.090820312 672.244140625 254.702148438 c 0,37,38
 672.244140625 279.423828125 672.244140625 279.423828125 667.783203125 304.751953125 c 0,39,40
 663.322265625 330.081054688 663.322265625 330.081054688 644.389648438 348.190429688 c 0,41,42
 625.45703125 366.299804688 625.45703125 366.299804688 605.13671875 372.649414062 c 0,43,44
 584.815429688 379 584.815429688 379 562.880859375 379 c 2,45,-1
 562.346679688 379 l 1,46,47
 527.287109375 380.845703125 527.287109375 380.845703125 488.330078125 367.564453125 c 0,48,49
 471.986328125 361.993164062 471.986328125 361.993164062 461.93359375 349.067382812 c 0,50,51
 451.880859375 336.142578125 451.880859375 336.142578125 451.880859375 318 c 2,52,-1
 451.880859375 317.366210938 l 1,53,54
 450.830078125 300.5546875 450.830078125 300.5546875 448.563476562 272.452148438 c 0,55,56
 446.296875 244.349609375 446.296875 244.349609375 446.296875 238.041992188 c 0,57,58
 446.296875 231.782226562 446.296875 231.782226562 448.825195312 176.66796875 c 1,59,60
 452.913085938 143.59375 452.913085938 143.59375 483.09765625 124.385742188 c 0,61,62
 520.125 100.822265625 520.125 100.822265625 558.31640625 100.822265625 c 0,31,32
EndSplineSet
Validated: 524329
EndChar

StartChar: semicolon
Encoding: 59 59 27
Width: 1116
GlyphClass: 2
Flags: W
LayerCount: 2
Fore
SplineSet
621.737304688 562.953125 m 0,0,1
 622.2890625 562.962890625 622.2890625 562.962890625 623.504882812 562.962890625 c 128,-1,2
 624.720703125 562.962890625 624.720703125 562.962890625 626.099609375 562.826171875 c 0,3,4
 650.631835938 562.826171875 650.631835938 562.826171875 677.24609375 579.264648438 c 0,5,6
 703.295898438 595.354492188 703.295898438 595.354492188 712.0546875 629.267578125 c 0,7,8
 728.314453125 688.885742188 728.314453125 688.885742188 728.314453125 742.513671875 c 0,9,10
 728.314453125 754.958984375 728.314453125 754.958984375 727.438476562 767.088867188 c 0,11,12
 724.939453125 788.06640625 724.939453125 788.06640625 714.861328125 803.18359375 c 128,-1,13
 704.782226562 818.301757812 704.782226562 818.301757812 688.325195312 826.119140625 c 0,14,15
 656.997070312 841 656.997070312 841 622.352539062 841 c 2,16,-1
 621.818359375 841 l 2,17,18
 617.068359375 841.25 617.068359375 841.25 608.303710938 841.25 c 128,-1,19
 599.5390625 841.25 599.5390625 841.25 582.7578125 838.852539062 c 128,-1,20
 565.9765625 836.455078125 565.9765625 836.455078125 547.10546875 830.165039062 c 128,-1,21
 528.235351562 823.875 528.235351562 823.875 517.654296875 810.739257812 c 128,-1,22
 507.073242188 797.604492188 507.073242188 797.604492188 506.3359375 779.188476562 c 0,23,24
 505.227539062 747.403320312 505.227539062 747.403320312 505.227539062 710.69140625 c 128,-1,25
 505.227539062 673.979492188 505.227539062 673.979492188 508.262695312 639.91015625 c 0,26,27
 510.532226562 617.544921875 510.532226562 617.544921875 530.161132812 599.551757812 c 128,-1,28
 549.791015625 581.557617188 549.791015625 581.557617188 574.08203125 573.166015625 c 128,-1,29
 598.373046875 564.774414062 598.373046875 564.774414062 621.737304688 562.953125 c 0,0,1
687.93359375 160.802734375 m 0,30,31
 687.93359375 174.690429688 687.93359375 174.690429688 681.131835938 185.028320312 c 0,32,33
 671.88671875 199.08203125 671.88671875 199.08203125 653.997070312 206.986328125 c 0,34,35
 617.755859375 223 617.755859375 223 582.352539062 223 c 2,36,-1
 580.477539062 223 l 1,37,38
 571.75 224.63671875 571.75 224.63671875 565.3125 224.63671875 c 0,39,40
 546.615234375 224.63671875 546.615234375 224.63671875 525.936523438 216.79296875 c 0,41,42
 517.563476562 213.6171875 517.563476562 213.6171875 508.322265625 199.370117188 c 128,-1,43
 499.081054688 185.123046875 499.081054688 185.123046875 492.833007812 157.452148438 c 0,44,45
 468.885742188 57.6708984375 468.885742188 57.6708984375 430.537109375 -132.076171875 c 0,46,47
 387.685546875 -344.107421875 387.685546875 -344.107421875 387.685546875 -379.377929688 c 0,48,49
 387.685546875 -405.110351562 387.685546875 -405.110351562 407.715820312 -419.901367188 c 0,50,51
 435.36328125 -440.317382812 435.36328125 -440.317382812 470.340820312 -442.024414062 c 2,52,-1
 470.579101562 -442.037109375 l 2,53,54
 473.037109375 -442.186523438 473.037109375 -442.186523438 475.470703125 -442.186523438 c 0,55,56
 499.344726562 -442.186523438 499.344726562 -442.186523438 522.663085938 -427.27734375 c 0,57,58
 545.75390625 -412.514648438 545.75390625 -412.514648438 555.055664062 -377.728515625 c 0,59,60
 687.93359375 109.142578125 687.93359375 109.142578125 687.93359375 160.802734375 c 0,30,31
EndSplineSet
Validated: 524297
EndChar

StartChar: less
Encoding: 60 60 28
Width: 1116
GlyphClass: 2
Flags: W
LayerCount: 2
Fore
SplineSet
1027.04199219 1326.40722656 m 0,0,1
 1036.22070312 1341.42675781 1036.22070312 1341.42675781 1036.22070312 1353.91601562 c 0,2,3
 1036.22070312 1365.55761719 1036.22070312 1365.55761719 1029.64160156 1379.84277344 c 0,4,5
 1014.68261719 1412.32519531 1014.68261719 1412.32519531 981.538085938 1431.7265625 c 0,6,7
 968.625976562 1439.28613281 968.625976562 1439.28613281 950.600585938 1439.28613281 c 0,8,9
 923.512695312 1439.28613281 923.512695312 1439.28613281 892.533203125 1419.92382812 c 0,10,11
 791.55859375 1359.53710938 791.55859375 1359.53710938 661.676757812 1255.03515625 c 0,12,13
 531.795898438 1150.53320312 531.795898438 1150.53320312 374.629882812 1019.89453125 c 0,14,15
 217.462890625 889.256835938 217.462890625 889.256835938 100.227539062 802.340820312 c 1,16,17
 81.0703125 790.845703125 81.0703125 790.845703125 73.2880859375 764.77734375 c 0,18,19
 68.71484375 749.45703125 68.71484375 749.45703125 68.71484375 734.670898438 c 0,20,21
 68.71484375 719.885742188 68.71484375 719.885742188 72.0869140625 705.606445312 c 0,22,23
 78.892578125 676.78125 78.892578125 676.78125 98.9033203125 662.158203125 c 0,24,25
 166.661132812 612.603515625 166.661132812 612.603515625 262.098632812 528.216796875 c 0,26,27
 357.536132812 443.830078125 357.536132812 443.830078125 443.556640625 363.810546875 c 0,28,29
 529.578125 283.791015625 529.578125 283.791015625 616.131835938 206.688476562 c 0,30,31
 702.685546875 129.586914062 702.685546875 129.586914062 776.9609375 75.345703125 c 0,32,33
 849.658203125 22.2578125 849.658203125 22.2578125 899.561523438 5.9384765625 c 0,34,35
 933.125976562 -5.48828125 933.125976562 -5.48828125 959.176757812 -5.48828125 c 0,36,37
 966.142578125 -5.48828125 966.142578125 -5.48828125 972.549804688 -4.6640625 c 0,38,39
 1002.98925781 -0.75 1002.98925781 -0.75 1019.14160156 9.88671875 c 0,40,41
 1035.29394531 20.5234375 1035.29394531 20.5234375 1042.8828125 36.2265625 c 0,42,43
 1047.06347656 50.4921875 1047.06347656 50.4921875 1047.28515625 56.3447265625 c 0,44,45
 1047.28515625 70.341796875 1047.28515625 70.341796875 1037.92773438 84.4853515625 c 0,46,47
 1018.72949219 113.506835938 1018.72949219 113.506835938 954.444335938 155.212890625 c 0,48,49
 890.159179688 196.918945312 890.159179688 196.918945312 803.44140625 271.03125 c 0,50,51
 716.724609375 345.14453125 716.724609375 345.14453125 642.643554688 415.720703125 c 0,52,53
 568.563476562 486.296875 568.563476562 486.296875 470.453125 573.94921875 c 0,54,55
 372.342773438 661.6015625 372.342773438 661.6015625 293.913085938 722.161132812 c 2,56,-1
 273.100585938 738.231445312 l 1,57,58
 357.985351562 801.895507812 357.985351562 801.895507812 592.110351562 984.493164062 c 0,59,60
 826.236328125 1167.09082031 826.236328125 1167.09082031 940.651367188 1247.38183594 c 0,61,62
 1007.22949219 1293.98730469 1007.22949219 1293.98730469 1027.04199219 1326.40722656 c 0,0,1
EndSplineSet
Validated: 524297
EndChar

StartChar: equal
Encoding: 61 61 29
Width: 1116
GlyphClass: 2
Flags: W
LayerCount: 2
Fore
SplineSet
257.034179688 1062.13769531 m 0,0,1
 219.239257812 1062.13769531 219.239257812 1062.13769531 202.08203125 1043.22949219 c 0,2,3
 184.924804688 1024.32128906 184.924804688 1024.32128906 184.924804688 997.672851562 c 2,4,-1
 185.076171875 992 l 2,5,6
 185.076171875 966.16015625 185.076171875 966.16015625 207.7890625 946.580078125 c 0,7,8
 230.500976562 927 230.500976562 927 274.076171875 927 c 0,9,10
 340.791015625 927 340.791015625 927 483.5078125 930.9921875 c 2,11,-1
 708.032226562 936.993164062 l 2,12,13
 740.927734375 937.799804688 740.927734375 937.799804688 780.5078125 937.799804688 c 0,14,15
 820.087890625 937.799804688 820.087890625 937.799804688 865.647460938 935.953125 c 0,16,17
 872.668945312 935.142578125 872.668945312 935.142578125 881.939453125 935.142578125 c 0,18,19
 891.2109375 935.142578125 891.2109375 935.142578125 901.919921875 939.60546875 c 0,20,21
 930.903320312 951.681640625 930.903320312 951.681640625 931.075195312 1005.4140625 c 0,22,23
 929.373046875 1032.98632812 929.373046875 1032.98632812 916.28125 1047.49316406 c 0,24,25
 903.189453125 1062 903.189453125 1062 864.076171875 1062 c 0,26,27
 842.265625 1062 842.265625 1062 734.751953125 1060 c 0,28,29
 627.23828125 1057.99902344 627.23828125 1057.99902344 504.076171875 1058 c 0,30,31
 380.744140625 1058 380.744140625 1058 263.381835938 1062.01171875 c 0,32,33
 260.103515625 1062.13769531 260.103515625 1062.13769531 257.034179688 1062.13769531 c 0,0,1
269.69921875 655.00390625 m 2,34,-1
 265.79296875 655.041015625 l 2,35,36
 223.453125 655.041015625 223.453125 655.041015625 204.1953125 638.279296875 c 0,37,38
 184.938476562 621.518554688 184.938476562 621.518554688 184.938476562 598.772460938 c 2,39,-1
 185.076171875 594 l 2,40,41
 185.076171875 565.163085938 185.076171875 565.163085938 204.35546875 545.498046875 c 0,42,43
 223.470703125 526 223.470703125 526 266.076171875 526 c 0,44,45
 331.76171875 526 331.76171875 526 477.169921875 530.497070312 c 0,46,47
 687.416992188 537 687.416992188 537 751.28515625 537 c 0,48,49
 815.154296875 537 815.154296875 537 865.647460938 534.953125 c 0,50,51
 872.668945312 534.142578125 872.668945312 534.142578125 881.939453125 534.142578125 c 0,52,53
 891.2109375 534.142578125 891.2109375 534.142578125 901.83984375 538.571289062 c 0,54,55
 912.46875 543 912.46875 543 918.904296875 553.370117188 c 0,56,57
 930.973632812 572.814453125 930.973632812 572.814453125 931.075195312 604.4140625 c 0,58,59
 929.373046875 631.986328125 929.373046875 631.986328125 916.299804688 646.47265625 c 0,60,61
 903.227539062 660.958007812 903.227539062 660.958007812 864.28125 661 c 2,62,-1
 646.997070312 656.50390625 l 2,63,64
 518.08984375 653.799804688 518.08984375 653.799804688 426.399414062 653.799804688 c 0,65,66
 334.708984375 653.799804688 334.708984375 653.799804688 269.69921875 655.00390625 c 2,34,-1
EndSplineSet
Validated: 524329
EndChar

StartChar: greater
Encoding: 62 62 30
Width: 1116
GlyphClass: 2
Flags: W
LayerCount: 2
Fore
SplineSet
1042.71191406 683.22265625 m 0,0,1
 1047.28515625 698.54296875 1047.28515625 698.54296875 1047.28515625 713.329101562 c 0,2,3
 1047.28515625 728.114257812 1047.28515625 728.114257812 1043.91308594 742.393554688 c 0,4,5
 1037.08984375 771.293945312 1037.08984375 771.293945312 1017.98339844 785.923828125 c 0,6,7
 949.23828125 835.485351562 949.23828125 835.485351562 853.8515625 919.827148438 c 0,8,9
 758.463867188 1004.16992188 758.463867188 1004.16992188 672.420898438 1084.20996094 c 0,10,11
 586.376953125 1164.25 586.376953125 1164.25 500.348632812 1241.82421875 c 0,12,13
 414.3203125 1319.39941406 414.3203125 1319.39941406 339.578125 1373.13574219 c 0,14,15
 266.462890625 1425.70214844 266.462890625 1425.70214844 216.438476562 1442.06152344 c 0,16,17
 182.874023438 1453.48828125 182.874023438 1453.48828125 156.823242188 1453.48828125 c 0,18,19
 149.857421875 1453.48828125 149.857421875 1453.48828125 143.450195312 1452.6640625 c 0,20,21
 113.010742188 1448.75 113.010742188 1448.75 96.8583984375 1438.11328125 c 0,22,23
 80.7060546875 1427.4765625 80.7060546875 1427.4765625 73.1171875 1411.7734375 c 0,24,25
 68.9365234375 1397.5078125 68.9365234375 1397.5078125 68.71484375 1391.65527344 c 0,26,27
 68.71484375 1377.65820312 68.71484375 1377.65820312 78.072265625 1363.51464844 c 0,28,29
 97.2705078125 1334.49316406 97.2705078125 1334.49316406 161.555664062 1292.78710938 c 0,30,31
 225.840820312 1251.08105469 225.840820312 1251.08105469 312.55859375 1176.96875 c 0,32,33
 399.275390625 1102.85546875 399.275390625 1102.85546875 473.356445312 1032.27929688 c 0,34,35
 547.436523438 961.703125 547.436523438 961.703125 645.524414062 874.071289062 c 0,36,37
 743.612304688 786.438476562 743.612304688 786.438476562 822.990234375 725.913085938 c 2,38,-1
 844.196289062 709.743164062 l 1,39,-1
 822.743164062 693.901367188 l 2,40,41
 757.956054688 646.05859375 757.956054688 646.05859375 523.859375 463.483398438 c 0,42,43
 289.763671875 280.909179688 289.763671875 280.909179688 175.348632812 200.618164062 c 0,44,45
 108.770507812 154.012695312 108.770507812 154.012695312 88.9580078125 121.592773438 c 0,46,47
 79.779296875 106.573242188 79.779296875 106.573242188 79.779296875 94.083984375 c 0,48,49
 79.779296875 82.4423828125 79.779296875 82.4423828125 86.3583984375 68.1572265625 c 0,50,51
 101.317382812 35.6748046875 101.317382812 35.6748046875 134.461914062 16.2734375 c 0,52,53
 146.768554688 9.0693359375 146.768554688 9.0693359375 164.131835938 9.0693359375 c 0,54,55
 192.45703125 9.0693359375 192.45703125 9.0693359375 223.44921875 28.064453125 c 0,56,57
 324.404296875 89.4296875 324.404296875 89.4296875 454.301757812 193.447265625 c 0,58,59
 584.19921875 297.463867188 584.19921875 297.463867188 741.381835938 428.616210938 c 0,60,61
 898.565429688 559.768554688 898.565429688 559.768554688 1015.8203125 645.688476562 c 1,62,63
 1034.9296875 657.154296875 1034.9296875 657.154296875 1042.71191406 683.22265625 c 0,0,1
EndSplineSet
Validated: 524297
EndChar

StartChar: question
Encoding: 63 63 31
Width: 1116
GlyphClass: 2
Flags: W
LayerCount: 2
Fore
SplineSet
962.796875 1069 m 0,0,1
 962.796875 1265.04003906 962.796875 1265.04003906 853.990234375 1362.01953125 c 0,2,3
 745.18359375 1459 745.18359375 1459 531.796875 1459 c 0,4,5
 465.50390625 1459 465.50390625 1459 404.817382812 1435.76855469 c 0,6,7
 344.130859375 1412.53710938 344.130859375 1412.53710938 299.16796875 1374.27050781 c 0,8,9
 215.2109375 1302.81738281 215.2109375 1302.81738281 170.748046875 1218.16503906 c 0,10,11
 153.203125 1180.22070312 153.203125 1180.22070312 153.203125 1154.8046875 c 0,12,13
 153.203125 1147.44335938 153.203125 1147.44335938 154.717773438 1141.29394531 c 0,14,15
 160.97265625 1115.90820312 160.97265625 1115.90820312 187.240234375 1102.15234375 c 0,16,17
 209.563476562 1092.88476562 209.563476562 1092.88476562 219.625 1090.109375 c 0,18,19
 229.686523438 1087.33300781 229.686523438 1087.33300781 236.180664062 1087.33300781 c 0,20,21
 242.67578125 1087.33300781 242.67578125 1087.33300781 247.567382812 1087.87695312 c 0,22,23
 259.334960938 1089.18457031 259.334960938 1089.18457031 272.473632812 1100.73046875 c 0,24,25
 285.612304688 1112.27636719 285.612304688 1112.27636719 303.482421875 1138.828125 c 0,26,27
 321.3515625 1165.37988281 321.3515625 1165.37988281 334.665039062 1184.32519531 c 0,28,29
 347.977539062 1203.27050781 347.977539062 1203.27050781 372.9375 1232.390625 c 0,30,31
 397.897460938 1261.50976562 397.897460938 1261.50976562 420.64453125 1279.3828125 c 0,32,33
 443.392578125 1297.25683594 443.392578125 1297.25683594 475.453125 1311.62792969 c 0,34,35
 507.512695312 1326 507.512695312 1326 540.796875 1326 c 0,36,37
 662.673828125 1326 662.673828125 1326 729.586914062 1273.77441406 c 0,38,39
 798.796875 1219.75683594 798.796875 1219.75683594 798.796875 1104 c 0,40,41
 798.796875 1060.52441406 798.796875 1060.52441406 781.186523438 1023.10253906 c 0,42,43
 763.577148438 985.680664062 763.577148438 985.680664062 735.60546875 955.59765625 c 0,44,45
 707.633789062 925.515625 707.633789062 925.515625 674.244140625 897.184570312 c 0,46,47
 640.854492188 868.854492188 640.854492188 868.854492188 605.328125 837.768554688 c 0,48,49
 569.801757812 806.68359375 569.801757812 806.68359375 538.919921875 772.90625 c 0,50,51
 508.038085938 739.12890625 508.038085938 739.12890625 481.282226562 692.784179688 c 0,52,53
 454.526367188 646.439453125 454.526367188 646.439453125 441.201171875 593.140625 c 0,54,55
 434.267578125 564.538085938 434.267578125 564.538085938 434.267578125 541.435546875 c 0,56,57
 434.267578125 518.33203125 434.267578125 518.33203125 441.92578125 501.953125 c 0,58,59
 455.913085938 472.034179688 455.913085938 472.034179688 503.650390625 459.408203125 c 0,60,61
 518.475585938 455.927734375 518.475585938 455.927734375 530.801757812 455.927734375 c 0,62,63
 555.21484375 455.927734375 555.21484375 455.927734375 570.02734375 470 c 0,64,65
 595.041992188 493.763671875 595.041992188 493.763671875 602.021484375 540.004882812 c 0,66,67
 610.53125 597.44140625 610.53125 597.44140625 636.60546875 645.333984375 c 0,68,69
 662.680664062 693.2265625 662.680664062 693.2265625 696.715820312 726.213867188 c 0,70,71
 730.75 759.201171875 730.75 759.201171875 768.627929688 787.989257812 c 0,72,73
 806.505859375 816.776367188 806.505859375 816.776367188 841.24609375 844.666015625 c 0,74,75
 875.985351562 872.555664062 875.985351562 872.555664062 903.208984375 903.064453125 c 0,76,77
 930.431640625 933.572265625 930.431640625 933.572265625 946.623046875 975.669921875 c 0,78,79
 962.796875 1017.72363281 962.796875 1017.72363281 962.796875 1069 c 0,0,1
514.682617188 -8.1103515625 m 0,80,81
 580.635742188 -0.8828125 580.635742188 -0.8828125 619.715820312 38.1982421875 c 0,82,83
 658.796875 77.2783203125 658.796875 77.2783203125 658.796875 134.467773438 c 0,84,85
 658.796875 191.65625 658.796875 191.65625 619.236328125 230.782226562 c 0,86,87
 582.426757812 267.1875 582.426757812 267.1875 525.572265625 267.1875 c 0,88,89
 460.927734375 267.1875 460.927734375 267.1875 410.874023438 223.872070312 c 0,90,91
 365.796875 184.86328125 365.796875 184.86328125 365.796875 131 c 0,92,93
 365.796875 71.0380859375 365.796875 71.0380859375 407.727539062 27.3427734375 c 0,94,95
 442.709960938 -9.11328125 442.709960938 -9.11328125 496.201171875 -9.11328125 c 0,96,97
 505.16015625 -9.11328125 505.16015625 -9.11328125 514.682617188 -8.1103515625 c 0,80,81
EndSplineSet
Validated: 524297
EndChar

StartChar: at
Encoding: 64 64 32
Width: 1116
GlyphClass: 2
Flags: W
LayerCount: 2
Fore
SplineSet
964.29296875 18.083984375 m 0,0,1
 980.724609375 60.587890625 980.724609375 60.587890625 980.724609375 87.126953125 c 0,2,3
 980.724609375 95.095703125 980.724609375 95.095703125 977.043945312 103.591796875 c 0,4,5
 969.1875 121.720703125 969.1875 121.720703125 945.349609375 130.133789062 c 0,6,7
 930.337890625 135.783203125 930.337890625 135.783203125 923.0859375 131.943359375 c 0,8,9
 915.833007812 128.104492188 915.833007812 128.104492188 911.15625 124.505859375 c 0,10,11
 906.478515625 120.908203125 906.478515625 120.908203125 899.374023438 111.138671875 c 0,12,13
 892.268554688 101.369140625 892.268554688 101.369140625 886.669921875 93.4384765625 c 0,14,15
 881.072265625 85.5068359375 881.072265625 85.5068359375 873.377929688 71.0810546875 c 0,16,17
 853.696289062 38.96875 853.696289062 38.96875 837.891601562 16.841796875 c 0,18,19
 822.086914062 -5.28515625 822.086914062 -5.28515625 793.779296875 -31.4560546875 c 0,20,21
 765.471679688 -57.626953125 765.471679688 -57.626953125 734.114257812 -73.3056640625 c 0,22,23
 702.7578125 -88.9833984375 702.7578125 -88.9833984375 655.897460938 -99.5146484375 c 0,24,25
 609.235351562 -110 609.235351562 -110 554.197265625 -110 c 0,26,27
 499.158203125 -110 499.158203125 -110 448.947265625 -90.0234375 c 0,28,29
 398.737304688 -70.046875 398.737304688 -70.046875 350.122070312 -20.904296875 c 0,30,31
 301.5078125 28.23828125 301.5078125 28.23828125 265.682617188 100.408203125 c 0,32,33
 229.857421875 172.578125 229.857421875 172.578125 208.428710938 285.84375 c 0,34,35
 187 399.108398438 187 399.108398438 187 541 c 0,36,37
 187 702.318359375 187 702.318359375 219.1015625 839.897460938 c 0,38,39
 251.204101562 977.4765625 251.204101562 977.4765625 306.557617188 1072.1484375 c 0,40,41
 361.912109375 1166.81933594 361.912109375 1166.81933594 438.275390625 1220.91015625 c 0,42,43
 514.637695312 1275 514.637695312 1275 602 1275 c 0,44,45
 622.36328125 1275 622.36328125 1275 637.51171875 1274.45898438 c 0,46,47
 652.66015625 1273.91796875 652.66015625 1273.91796875 682.833007812 1266.91308594 c 0,48,49
 713.006835938 1259.90917969 713.006835938 1259.90917969 735.958984375 1247.88671875 c 0,50,51
 758.911132812 1235.86425781 758.911132812 1235.86425781 789.442382812 1211.75976562 c 0,52,53
 819.973632812 1187.65625 819.973632812 1187.65625 841.805664062 1154.11035156 c 0,54,55
 863.63671875 1120.56347656 863.63671875 1120.56347656 886.861328125 1068.43945312 c 0,56,57
 910.084960938 1016.31445312 910.084960938 1016.31445312 924.4296875 952.2734375 c 0,58,59
 938.775390625 888.232421875 938.775390625 888.232421875 947.895507812 799.055664062 c 0,60,61
 957 710.033203125 957 710.033203125 957 605 c 0,62,63
 957 539.813476562 957 539.813476562 947.862304688 462.142578125 c 0,64,65
 942.509765625 416.645507812 942.509765625 416.645507812 929.286132812 386.893554688 c 0,66,67
 912 348 912 348 882 348 c 0,68,69
 845.229492188 348 845.229492188 348 824.7890625 379.013671875 c 0,70,71
 807.583007812 405.119140625 807.583007812 405.119140625 801.098632812 470.505859375 c 0,72,73
 799 491.6640625 799 491.6640625 799 518.22265625 c 0,74,75
 799 570.444335938 799 570.444335938 807.12109375 644.208984375 c 0,76,77
 807.299804688 645.940429688 807.299804688 645.940429688 807.299804688 649.993164062 c 0,78,79
 807.299804688 658.6484375 807.299804688 658.6484375 795.174804688 663.606445312 c 0,80,81
 783.048828125 668.564453125 783.048828125 668.564453125 767.970703125 668.564453125 c 0,82,83
 744.506835938 668.564453125 744.506835938 668.564453125 714.471679688 656.444335938 c 0,84,85
 674.583007812 640.3359375 674.583007812 640.3359375 673.990234375 621.365234375 c 0,86,87
 670.870117188 500.745117188 670.870117188 500.745117188 641.649414062 446.090820312 c 0,88,89
 608.987304688 385 608.987304688 385 532 385 c 0,90,91
 495.185546875 385 495.185546875 385 470.833984375 407.478515625 c 0,92,93
 446.481445312 429.958007812 446.481445312 429.958007812 436.423828125 462.366210938 c 0,94,95
 426.366210938 494.774414062 426.366210938 494.774414062 423.18359375 520.770507812 c 0,96,97
 420 546.765625 420 546.765625 420 574 c 0,98,99
 420 624.901367188 420 624.901367188 432.452148438 667.129882812 c 0,100,101
 444.904296875 709.359375 444.904296875 709.359375 466.170898438 736.221679688 c 0,102,103
 487.4375 763.084960938 487.4375 763.084960938 515.474609375 780.823242188 c 0,104,105
 543.51171875 798.560546875 543.51171875 798.560546875 574.447265625 800.940429688 c 0,106,107
 582.649414062 801.571289062 582.649414062 801.571289062 597 801.571289062 c 0,108,109
 614.001953125 801.571289062 614.001953125 801.571289062 632.859375 797.404296875 c 0,110,111
 652.750976562 792.431640625 652.750976562 792.431640625 662.844726562 790.028320312 c 0,112,113
 692.36328125 783 692.36328125 783 709.27734375 783 c 0,114,115
 720.509765625 783 720.509765625 783 738.572265625 788.60546875 c 0,116,117
 757.052734375 794.340820312 757.052734375 794.340820312 770.243164062 820.20703125 c 0,118,119
 772.172851562 823.916992188 772.172851562 823.916992188 772.172851562 827.616210938 c 0,120,121
 772.172851562 838.110351562 772.172851562 838.110351562 758.643554688 853.115234375 c 0,122,123
 734.295898438 880.119140625 734.295898438 880.119140625 689.533203125 897.65234375 c 0,124,125
 637.857421875 917.893554688 637.857421875 917.893554688 583.4609375 917.890625 c 0,126,127
 544.592773438 917.890625 544.592773438 917.890625 504.984375 906.391601562 c 0,128,129
 465.375976562 894.892578125 465.375976562 894.892578125 428.168945312 865.126953125 c 0,130,131
 390.961914062 835.360351562 390.961914062 835.360351562 362.708984375 792.51171875 c 0,132,133
 334.541992188 749.791015625 334.541992188 749.791015625 318.271484375 686.62109375 c 0,134,135
 302 623.450195312 302 623.450195312 302 548 c 0,136,137
 302 400.59375 302 400.59375 363.990234375 330.796875 c 0,138,139
 425.981445312 261 425.981445312 261 538 261 c 0,140,141
 602.96875 261 602.96875 261 644.077148438 298.913085938 c 0,142,143
 677.774414062 329.991210938 677.774414062 329.991210938 697.034179688 387.361328125 c 2,144,-1
 726.359375 474.7109375 l 1,145,-1
 735.891601562 383.08984375 l 2,146,147
 743.294921875 311.936523438 743.294921875 311.936523438 773.392578125 273.762695312 c 0,148,149
 809.473632812 228 809.473632812 228 882 228 c 0,150,151
 930.709960938 228 930.709960938 228 966.942382812 258.48828125 c 0,152,153
 1003.17382812 288.975585938 1003.17382812 288.975585938 1024.37597656 344.099609375 c 0,154,155
 1066 452.323242188 1066 452.323242188 1066 598.141601562 c 0,156,157
 1066 878.43359375 1066 878.43359375 1021.08300781 1060.19238281 c 0,158,159
 1000.1484375 1144.90039062 1000.1484375 1144.90039062 967.834960938 1207.11621094 c 0,160,161
 935.521484375 1269.33203125 935.521484375 1269.33203125 897.717773438 1309.49902344 c 0,162,163
 859.9140625 1349.66503906 859.9140625 1349.66503906 810.258789062 1374.25683594 c 0,164,165
 760.602539062 1398.84765625 760.602539062 1398.84765625 706.864257812 1408.92382812 c 0,166,167
 653.125 1419 653.125 1419 586 1419 c 0,168,169
 498.674804688 1419 498.674804688 1419 418.665039062 1379.47167969 c 0,170,171
 338.655273438 1339.94238281 338.655273438 1339.94238281 271.916992188 1259.66308594 c 0,172,173
 205.177734375 1179.3828125 205.177734375 1179.3828125 155.221679688 1066.24707031 c 0,174,175
 105.265625 953.110351562 105.265625 953.110351562 77.6328125 799.157226562 c 0,176,177
 50 645.203125 50 645.203125 50 467 c 0,178,179
 50 308.83984375 50 308.83984375 88.6318359375 174.8515625 c 0,180,181
 127.262695312 40.8642578125 127.262695312 40.8642578125 193.459960938 -50.9423828125 c 0,182,183
 259.657226562 -142.749023438 259.657226562 -142.749023438 349.963867188 -193.874023438 c 0,184,185
 440.26953125 -245 440.26953125 -245 543 -245 c 2,186,-1
 543.318359375 -245 l 2,187,188
 549.256835938 -245.092773438 549.256835938 -245.092773438 555.11328125 -245.095703125 c 0,189,190
 610.5703125 -245.095703125 610.5703125 -245.095703125 661.66015625 -236.350585938 c 0,191,192
 712.75 -227.60546875 712.75 -227.60546875 750.701171875 -213.373046875 c 0,193,194
 788.65234375 -199.141601562 788.65234375 -199.141601562 821.34375 -176.399414062 c 0,195,196
 854.034179688 -153.658203125 854.034179688 -153.658203125 874.701171875 -132.521484375 c 0,197,198
 895.19921875 -111.557617188 895.19921875 -111.557617188 913.868164062 -81.87890625 c 0,199,200
 932.537109375 -52.201171875 932.537109375 -52.201171875 943.099609375 -31.0751953125 c 0,201,202
 953.649414062 -9.9755859375 953.649414062 -9.9755859375 964.29296875 18.083984375 c 0,0,1
EndSplineSet
Validated: 524329
EndChar

StartChar: A
Encoding: 65 65 33
Width: 1116
GlyphClass: 2
Flags: W
LayerCount: 2
Fore
SplineSet
901.23828125 110.265625 m 1,0,1
 922.61328125 53.265625 922.61328125 53.265625 954.706054688 36.80859375 c 0,2,3
 971.513671875 28.189453125 971.513671875 28.189453125 986.188476562 28.189453125 c 0,4,5
 1000.37890625 28.189453125 1000.37890625 28.189453125 1014.92089844 34.470703125 c 0,6,7
 1033.99023438 42.416015625 1033.99023438 42.416015625 1047.22460938 59.66015625 c 128,-1,8
 1060.42480469 76.8603515625 1060.42480469 76.8603515625 1063.75585938 103.500976562 c 0,9,10
 1064.24023438 107.379882812 1064.24023438 107.379882812 1064.24023438 111.393554688 c 0,11,12
 1064.24023438 133.919921875 1064.24023438 133.919921875 1049.08300781 161.34765625 c 0,13,14
 1008.6875 233.850585938 1008.6875 233.850585938 906.319335938 701.53125 c 0,15,16
 804.98828125 1169.21191406 804.98828125 1169.21191406 765.905273438 1423.71875 c 0,17,18
 760.547851562 1459.67089844 760.547851562 1459.67089844 739.958984375 1472.69140625 c 128,-1,19
 719.37109375 1485.7109375 719.37109375 1485.7109375 695.66015625 1485.7109375 c 0,20,21
 690.403320312 1485.7109375 690.403320312 1485.7109375 683.96484375 1485 c 2,22,-1
 683.001953125 1485 l 2,23,24
 662.499023438 1485 662.499023438 1485 644.234375 1469.51757812 c 128,-1,25
 625.969726562 1454.03417969 625.969726562 1454.03417969 599.7109375 1415.4296875 c 0,26,27
 474.473632812 1219.95800781 474.473632812 1219.95800781 234.284179688 627.479492188 c 1,28,29
 229.776367188 646.1484375 229.776367188 646.1484375 225.268554688 624.81640625 c 2,30,31
 185.760742188 613.143554688 185.760742188 613.143554688 160.711914062 589.852539062 c 0,32,33
 140.46875 571.029296875 140.46875 571.029296875 140.46875 553.666015625 c 2,34,35
 140.534179688 571.833007812 140.534179688 571.833007812 140.599609375 550 c 2,36,37
 140.599609375 525.865234375 140.599609375 525.865234375 168.462890625 507.791015625 c 2,38,39
 175.450195312 523.258789062 175.450195312 523.258789062 182.438476562 498.7265625 c 1,40,41
 73.85546875 236.05859375 73.85546875 236.05859375 59.1015625 166.548828125 c 0,42,43
 51.759765625 134.296875 51.759765625 134.296875 51.759765625 108.3984375 c 0,44,45
 51.759765625 52.0400390625 51.759765625 52.0400390625 91.7060546875 34.2861328125 c 0,46,47
 105.693359375 28.189453125 105.693359375 28.189453125 120.260742188 28.189453125 c 128,-1,48
 134.827148438 28.189453125 134.827148438 28.189453125 150.708984375 36.6591796875 c 0,49,50
 180.950195312 52.7880859375 180.950195312 52.7880859375 198.505859375 108.96484375 c 2,51,52
 198.58984375 129.22265625 198.58984375 129.22265625 198.674804688 109.48046875 c 1,53,54
 267.125 329.169921875 267.125 329.169921875 332.862304688 508.860351562 c 1,55,56
 537.1796875 543.93359375 537.1796875 543.93359375 781.58203125 554.982421875 c 2,57,58
 789.456054688 575.337890625 789.456054688 575.337890625 797.330078125 555.694335938 c 1,59,60
 875.809570312 172.859375 875.809570312 172.859375 901.23828125 110.265625 c 1,0,1
630.319335938 1243.9609375 m 2,61,-1
 654.99609375 1284.40820312 l 1,62,-1
 774.399414062 659.596679688 l 1,63,-1
 752.19140625 659.005859375 l 2,64,65
 602.588867188 655.028320312 602.588867188 655.028320312 410.2578125 631.1328125 c 2,66,-1
 380.100585938 627.385742188 l 1,67,-1
 390.69921875 657.981445312 l 2,68,69
 545.58984375 1105.08105469 545.58984375 1105.08105469 630.319335938 1243.9609375 c 2,61,-1
EndSplineSet
Validated: 524297
EndChar

StartChar: B
Encoding: 66 66 34
Width: 1116
GlyphClass: 2
Flags: W
LayerCount: 2
Fore
SplineSet
981.5625 265.443359375 m 128,-1,1
 1019.51171875 337.126953125 1019.51171875 337.126953125 1019.51171875 408.2421875 c 0,2,3
 1019.51171875 409.989257812 1019.51171875 409.989257812 1019.49023438 411.739257812 c 2,4,5
 1019.49023438 391.869140625 1019.49023438 391.869140625 1019.49023438 412 c 2,6,7
 1019.49023438 451.815429688 1019.49023438 451.815429688 977.73046875 502.389648438 c 128,-1,8
 935.971679688 552.962890625 935.971679688 552.962890625 871.822265625 595.408203125 c 128,-1,9
 807.671875 637.852539062 807.671875 637.852539062 743.930664062 660.021484375 c 2,10,11
 720.418945312 648.584960938 720.418945312 648.584960938 696.907226562 677.1484375 c 1,12,13
 719.873046875 667.342773438 719.873046875 667.342773438 742.837890625 697.538085938 c 2,14,15
 830.209960938 734.196289062 830.209960938 734.196289062 881.8828125 812.629882812 c 128,-1,16
 933.557617188 891.0625 933.557617188 891.0625 933.557617188 998.833984375 c 0,17,18
 933.557617188 1126.89160156 933.557617188 1126.89160156 872.6796875 1220.62304688 c 128,-1,19
 811.802734375 1314.35449219 811.802734375 1314.35449219 713.4765625 1363.67773438 c 0,20,21
 618.379882812 1413 618.379882812 1413 495.299804688 1413 c 2,22,-1
 474.250976562 1413 l 1,23,-1
 436.271484375 1413 l 2,24,25
 419.751953125 1413 419.751953125 1413 389.180664062 1411.52636719 c 0,26,27
 334.533203125 1408.92382812 334.533203125 1408.92382812 266.51171875 1396.81054688 c 0,28,29
 231.252929688 1390.53125 231.252929688 1390.53125 197.553710938 1380 c 1,30,-1
 194.48828125 1380 l 1,31,-1
 185.48828125 1380 l 2,32,33
 151.766601562 1380 151.766601562 1380 128.978515625 1357.2109375 c 128,-1,34
 106.189453125 1334.42285156 106.189453125 1334.42285156 104.474609375 1287.26171875 c 0,35,36
 103.47265625 1257.20605469 103.47265625 1257.20605469 99.98046875 1177.87988281 c 128,-1,37
 96.48828125 1098.55273438 96.48828125 1098.55273438 96.48828125 1052 c 128,-1,38
 96.48828125 1005.3125 96.48828125 1005.3125 100.4765625 867.689453125 c 0,39,40
 113.645507812 529.216796875 113.645507812 529.216796875 113.646484375 251.50390625 c 0,41,42
 113.646484375 102.797851562 113.646484375 102.797851562 108.419921875 39.33984375 c 0,43,44
 107.963867188 33.7470703125 107.963867188 33.7470703125 107.963867188 28.5087890625 c 0,45,46
 107.963867188 -3.7138671875 107.963867188 -3.7138671875 125.514648438 -22.2578125 c 0,47,48
 146.091796875 -44 146.091796875 -44 178.48828125 -44 c 2,49,-1
 185.48828125 -44 l 1,50,-1
 187.255859375 -44 l 1,51,52
 207.655273438 -47.599609375 207.655273438 -47.599609375 228.56640625 -47.599609375 c 0,53,54
 262.374023438 -47.599609375 262.374023438 -47.599609375 326.08984375 -41.5888671875 c 2,55,56
 359.26953125 -58.337890625 359.26953125 -58.337890625 391.079101562 -35.087890625 c 1,57,58
 426.3359375 -51.5849609375 426.3359375 -51.5849609375 461.594726562 -28.0830078125 c 2,59,60
 588.155273438 -16.3134765625 588.155273438 -16.3134765625 692.58203125 27.57421875 c 0,61,62
 799.166015625 71.4619140625 799.166015625 71.4619140625 871.389648438 132.610351562 c 128,-1,0
 943.612304688 193.758789062 943.612304688 193.758789062 981.5625 265.443359375 c 128,-1,1
285.671875 1283.41503906 m 2,63,64
 388.724609375 1310 388.724609375 1310 491.639648438 1310 c 0,65,66
 568.555664062 1310 568.555664062 1310 639.338867188 1274.15722656 c 0,67,68
 679.176757812 1253.984375 679.176757812 1253.984375 711.40625 1223.64453125 c 128,-1,69
 743.633789062 1193.30371094 743.633789062 1193.30371094 764.061523438 1144.8515625 c 0,70,71
 785.48828125 1096.390625 785.48828125 1096.390625 785.48828125 1038 c 0,72,73
 785.48828125 1010.53417969 785.48828125 1010.53417969 781.759765625 984.966796875 c 128,-1,74
 778.03125 959.400390625 778.03125 959.400390625 768.399414062 928.483398438 c 0,75,76
 759.129882812 897.567382812 759.129882812 897.567382812 744.1328125 870.80078125 c 128,-1,77
 729.13671875 844.034179688 729.13671875 844.034179688 702.381835938 818.048828125 c 128,-1,78
 675.694335938 792.126953125 675.694335938 792.126953125 641.451171875 774.487304688 c 128,-1,79
 607.208007812 756.84765625 607.208007812 756.84765625 558.556640625 746.423828125 c 128,-1,80
 509.904296875 736 509.904296875 736 451.372070312 736 c 0,81,82
 372.280273438 736 372.280273438 736 259.677734375 740.807617188 c 1,83,84
 257.756835938 934.778320312 257.756835938 934.778320312 266.00390625 1139.81640625 c 0,85,86
 269.499023438 1226.67578125 269.499023438 1226.67578125 270.89453125 1279.75683594 c 1,87,-1
 285.671875 1283.41503906 l 2,63,64
757.848632812 532.78125 m 0,88,89
 855.48828125 471.110351562 855.48828125 471.110351562 855.48828125 407 c 0,90,91
 855.48828125 363.775390625 855.48828125 363.775390625 822.833984375 316.42578125 c 128,-1,92
 790.1796875 269.077148438 790.1796875 269.077148438 738.459960938 226.655273438 c 0,93,94
 687.986328125 184.109375 687.986328125 184.109375 609.35546875 155.125 c 128,-1,95
 530.725585938 126.139648438 530.725585938 126.139648438 441.993164062 122.013671875 c 0,96,97
 417.118164062 121.006835938 417.118164062 121.006835938 369.569335938 120.0078125 c 0,98,99
 320.14453125 119.008789062 320.14453125 119.008789062 278.2265625 117.103515625 c 1,100,101
 272.498046875 276.357421875 272.498046875 276.357421875 262.958984375 626.126953125 c 1,102,103
 329.046875 629 329.046875 629 466.9296875 629 c 2,104,-1
 468.26953125 629 l 1,105,106
 565.291992188 613.560546875 565.291992188 613.560546875 639.841796875 587.944335938 c 128,-1,107
 714.390625 562.328125 714.390625 562.328125 757.848632812 532.78125 c 0,88,89
EndSplineSet
Validated: 524325
EndChar

StartChar: C
Encoding: 67 67 35
Width: 1116
GlyphClass: 2
Flags: W
LayerCount: 2
Fore
SplineSet
1017.53613281 1133.30761719 m 128,-1,1
 1044.5 1171.95800781 1044.5 1171.95800781 1044.5 1210.52441406 c 2,2,3
 1045 1262.60253906 1045 1262.60253906 1045.5 1286.97460938 c 1,4,5
 1045.5 1374.24023438 1045.5 1374.24023438 1028.02246094 1451.10742188 c 0,6,7
 1019.94335938 1485.92773438 1019.94335938 1485.92773438 992.443359375 1503.51367188 c 0,8,9
 970.306640625 1517.30957031 970.306640625 1517.30957031 949.971679688 1517.30957031 c 0,10,11
 948.799804688 1517.30957031 948.799804688 1517.30957031 937.651367188 1516.11425781 c 0,12,13
 915.62109375 1513.75390625 915.62109375 1513.75390625 896.904296875 1498.22363281 c 0,14,15
 878.1875 1482.27636719 878.1875 1482.27636719 871.827148438 1457.78710938 c 2,16,17
 869.243164062 1467.02441406 869.243164062 1467.02441406 866.659179688 1437.88769531 c 1,18,19
 856.971679688 1459.56445312 856.971679688 1459.56445312 847.283203125 1443.25585938 c 2,20,21
 787.8203125 1460.00390625 787.8203125 1460.00390625 720.715820312 1460.00390625 c 128,-1,22
 653.611328125 1460.00390625 653.611328125 1460.00390625 580.311523438 1425.92773438 c 128,-1,23
 507.010742188 1391.85058594 507.010742188 1391.85058594 437.002929688 1329.48828125 c 128,-1,24
 366.82421875 1266.97460938 366.82421875 1266.97460938 302.396484375 1172.37304688 c 0,25,26
 233.784179688 1077.77246094 233.784179688 1077.77246094 182.650390625 964.692382812 c 128,-1,27
 131.564453125 851.715820312 131.564453125 851.715820312 101.03125 709.62890625 c 128,-1,28
 70.5 567.552734375 70.5 567.552734375 70.5 416.821289062 c 0,29,30
 70.5 346.743164062 70.5 346.743164062 89.26953125 277.564453125 c 128,-1,31
 107.985351562 208.581054688 107.985351562 208.581054688 145.918945312 146.953125 c 128,-1,32
 183.903320312 85.2431640625 183.903320312 85.2431640625 235.48046875 38.169921875 c 128,-1,33
 287.057617188 -8.90234375 287.057617188 -8.90234375 354.512695312 -36.8291015625 c 0,34,35
 419.671875 -64 419.671875 -64 493.810546875 -64 c 2,36,-1
 494.067382812 -64 l 2,37,38
 502.186523438 -64.1201171875 502.186523438 -64.1201171875 510.1953125 -64.1220703125 c 0,39,40
 829.697265625 -64.1220703125 829.697265625 -64.1220703125 994.444335938 129.08984375 c 0,41,42
 1033.87695312 174.854492188 1033.87695312 174.854492188 1033.87695312 207.70703125 c 0,43,44
 1033.87695312 233.66015625 1033.87695312 233.66015625 1006.73535156 254.96484375 c 0,45,46
 992.7265625 264.913085938 992.7265625 264.913085938 977.083007812 264.913085938 c 0,47,48
 958.178710938 264.913085938 958.178710938 264.913085938 941.006835938 256.328125 c 128,-1,49
 923.833984375 247.743164062 923.833984375 247.743164062 899.458007812 230.471679688 c 0,50,51
 867.60546875 204.182617188 867.60546875 204.182617188 830.733398438 181.5859375 c 0,52,53
 794.133789062 158.87109375 794.133789062 158.87109375 746.576171875 135.62109375 c 128,-1,54
 699.017578125 112.37109375 699.017578125 112.37109375 639.002929688 98.08203125 c 128,-1,55
 578.905273438 83.7734375 578.905273438 83.7734375 515.9765625 83.7734375 c 0,56,57
 439.022460938 83.7734375 439.022460938 83.7734375 374.719726562 144.227539062 c 0,58,59
 309.934570312 204.681640625 309.934570312 204.681640625 272.216796875 296.067382812 c 128,-1,60
 234.5 387.454101562 234.5 387.454101562 234.5 485.01171875 c 0,61,62
 234.5 615.9453125 234.5 615.9453125 267.651367188 745.7421875 c 128,-1,63
 300.77734375 875.438476562 300.77734375 875.438476562 352.868164062 978.088867188 c 0,64,65
 403.775390625 1080.73925781 403.775390625 1080.73925781 466.879882812 1160.87011719 c 128,-1,66
 529.984375 1241.00097656 529.984375 1241.00097656 600.4140625 1285.79394531 c 128,-1,67
 670.84375 1330.58789062 670.84375 1330.58789062 734.8671875 1330.58789062 c 0,68,69
 767.467773438 1330.58789062 767.467773438 1330.58789062 798.2734375 1312.92089844 c 0,70,71
 814.521484375 1304.25097656 814.521484375 1304.25097656 823.51953125 1298.27734375 c 0,72,73
 831.61328125 1292.90234375 831.61328125 1292.90234375 879.116210938 1259.99804688 c 1,74,75
 874.5 1177.09082031 874.5 1177.09082031 874.5 1161.26757812 c 0,76,77
 874.5 1128.28417969 874.5 1128.28417969 903.87109375 1108.71191406 c 0,78,79
 929.970703125 1091.32128906 929.970703125 1091.32128906 954.12109375 1091.32128906 c 0,80,81
 958.1328125 1091.32128906 958.1328125 1091.32128906 966.669921875 1092.42773438 c 0,82,0
 990.572265625 1094.65820312 990.572265625 1094.65820312 1017.53613281 1133.30761719 c 128,-1,1
EndSplineSet
Validated: 524297
EndChar

StartChar: D
Encoding: 68 68 36
Width: 1116
GlyphClass: 2
Flags: W
LayerCount: 2
Fore
SplineSet
1031.64941406 312.571289062 m 128,-1,1
 1050.5 384.588867188 1050.5 384.588867188 1050.5 453 c 0,2,3
 1050.5 595.75 1050.5 595.75 1022.53320312 719.39453125 c 128,-1,4
 994.56640625 843.038085938 994.56640625 843.038085938 947.706054688 932.365234375 c 128,-1,5
 900.845703125 1021.69238281 900.845703125 1021.69238281 836.352539062 1096.44628906 c 0,6,7
 774.352539062 1171.1640625 774.352539062 1171.1640625 710.641601562 1220.98828125 c 128,-1,8
 646.931640625 1270.81347656 646.931640625 1270.81347656 575.6875 1309.07714844 c 128,-1,9
 504.333007812 1347.40039062 504.333007812 1347.40039062 443.056640625 1368.5 c 128,-1,10
 381.779296875 1389.59960938 381.779296875 1389.59960938 322.204101562 1402.3828125 c 0,11,12
 219.2109375 1423 219.2109375 1423 153.5 1423 c 0,13,14
 119.674804688 1423 119.674804688 1423 97.0126953125 1400.73535156 c 128,-1,15
 74.2822265625 1378.40332031 74.2822265625 1378.40332031 72.5 1331.61035156 c 0,16,17
 72.4638671875 1314.74804688 72.4638671875 1314.74804688 68.978515625 1239.06640625 c 128,-1,18
 65.5 1163.53222656 65.5 1163.53222656 65.5 1127.40039062 c 128,-1,19
 65.5 1091.26757812 65.5 1091.26757812 68.4931640625 977.53515625 c 0,20,21
 81.6572265625 593.142578125 81.6572265625 593.142578125 81.658203125 312.490234375 c 0,22,23
 81.658203125 156.486328125 81.658203125 156.486328125 76.4423828125 83.4716796875 c 0,24,25
 75.9755859375 77.6328125 75.9755859375 77.6328125 75.9755859375 72.2724609375 c 0,26,27
 75.9755859375 39.4560546875 75.9755859375 39.4560546875 93.400390625 21.373046875 c 0,28,29
 113.997070312 0 113.997070312 0 146.5 0 c 0,30,31
 155.895507812 0 155.895507812 0 200.439453125 -10.751953125 c 128,-1,32
 244.983398438 -21.50390625 244.983398438 -21.50390625 301.802734375 -33.8564453125 c 0,33,34
 355.072265625 -46.2080078125 355.072265625 -46.2080078125 439.977539062 -55.1513671875 c 128,-1,35
 524.883789062 -64.095703125 524.883789062 -64.095703125 608.98046875 -64.095703125 c 0,36,37
 617.8359375 -64.095703125 617.8359375 -64.095703125 626.728515625 -64.0009765625 c 2,38,-1
 626.9140625 -64.0009765625 l 2,39,40
 700.641601562 -64.0009765625 700.641601562 -64.0009765625 766.147460938 -32.1572265625 c 0,41,42
 833.8359375 -0.3134765625 833.8359375 -0.3134765625 885.091796875 52.3798828125 c 128,-1,43
 936.346679688 105.072265625 936.346679688 105.072265625 974.569335938 172.807617188 c 128,-1,0
 1012.80175781 240.560546875 1012.80175781 240.560546875 1031.64941406 312.571289062 c 128,-1,1
586.965820312 1128.82421875 m 0,44,45
 893.5 919.903320312 893.5 919.903320312 893.5 524 c 0,46,47
 893.5 452.342773438 893.5 452.342773438 873.3515625 377.431640625 c 128,-1,48
 853.203125 302.520507812 853.203125 302.520507812 818.612304688 239.103515625 c 0,49,50
 785.575195312 175.686523438 785.575195312 175.686523438 734.8046875 133.84375 c 128,-1,51
 684.034179688 92 684.034179688 92 625.064453125 92 c 0,52,53
 515.274414062 92 515.274414062 92 428.279296875 107.844726562 c 128,-1,54
 341.284179688 123.689453125 341.284179688 123.689453125 257.453125 161.6875 c 2,55,-1
 246.071289062 166.701171875 l 1,56,57
 241.51171875 269.290039062 241.51171875 269.290039062 237.009765625 445.849609375 c 128,-1,58
 232.508789062 622.409179688 232.508789062 622.409179688 228.473632812 749.165039062 c 0,59,60
 220.43359375 1001.70898438 220.43359375 1001.70898438 227.506835938 1271.53320312 c 2,61,-1
 228.7265625 1318.05175781 l 1,62,-1
 256.778320312 1290 l 1,63,-1
 258.778320312 1290 l 1,64,-1
 259.778320312 1289 l 1,65,-1
 260.778320312 1289 l 1,66,-1
 261.778320312 1288 l 1,67,-1
 263.778320312 1288 l 1,68,-1
 264.778320312 1287 l 1,69,-1
 266.778320312 1287 l 1,70,-1
 267.778320312 1286 l 1,71,-1
 269.778320312 1286 l 1,72,-1
 270.778320312 1285 l 1,73,-1
 272.778320312 1285 l 1,74,-1
 273.778320312 1284 l 1,75,-1
 275.778320312 1284 l 1,76,-1
 276.778320312 1283 l 1,77,-1
 277.778320312 1283 l 1,78,-1
 278.778320312 1282 l 1,79,-1
 280.778320312 1282 l 1,80,-1
 281.778320312 1281 l 1,81,-1
 283.778320312 1281 l 1,82,-1
 287.514648438 1277.26464844 l 1,83,84
 482.592773438 1200.3515625 482.592773438 1200.3515625 586.965820312 1128.82421875 c 0,44,45
EndSplineSet
Validated: 524329
EndChar

StartChar: E
Encoding: 69 69 37
Width: 1116
GlyphClass: 2
Flags: W
LayerCount: 2
Fore
SplineSet
943.364257812 -13.0859375 m 2,0,1
 949.936523438 -13.6943359375 949.936523438 -13.6943359375 955.969726562 -13.6943359375 c 0,2,3
 989.970703125 -13.6943359375 989.970703125 -13.6943359375 1006.79296875 5.984375 c 0,4,5
 1028.5 31.3779296875 1028.5 31.3779296875 1028.5 63 c 0,6,7
 1028.5 72.5224609375 1028.5 72.5224609375 1026.48535156 80.5830078125 c 128,-1,8
 1024.46972656 88.6435546875 1024.46972656 88.6435546875 1020.15039062 98.853515625 c 128,-1,9
 1015.83105469 109.0625 1015.83105469 109.0625 1009.41894531 114.76171875 c 128,-1,10
 1003.0078125 120.461914062 1003.0078125 120.461914062 991.252929688 126.73046875 c 128,-1,11
 979.498046875 133 979.498046875 133 961.793945312 133 c 128,-1,12
 944.090820312 133 944.090820312 133 916.809570312 129.264648438 c 0,13,14
 838.9453125 114.041992188 838.9453125 114.041992188 589.072265625 103.017578125 c 0,15,16
 485.15234375 98.345703125 485.15234375 98.345703125 416.323242188 98.345703125 c 0,17,18
 319.287109375 98.345703125 319.287109375 98.345703125 286.049804688 107.752929688 c 2,19,20
 281.31640625 89.0927734375 281.31640625 89.0927734375 276.583007812 110.432617188 c 1,21,22
 274.752929688 95.0078125 274.752929688 95.0078125 272.921875 119.583984375 c 2,23,24
 260.200195312 151.389648438 260.200195312 151.389648438 257.0078125 268.4453125 c 0,25,26
 255.502929688 323.614257812 255.502929688 323.614257812 254.502929688 411.666015625 c 0,27,28
 252.883789062 554.127929688 252.883789062 554.127929688 251.064453125 637.80078125 c 1,29,30
 261.182617188 617.899414062 261.182617188 617.899414062 271.299804688 637.999023438 c 2,31,32
 369.453125 638.993164062 369.453125 638.993164062 625.69921875 658.99609375 c 0,33,34
 890.7734375 679 890.7734375 679 928.897460938 679 c 128,-1,35
 967.020507812 679 967.020507812 679 982.485351562 698.997070312 c 0,36,37
 995.440429688 715.75 995.440429688 715.75 995.5 748.706054688 c 0,38,39
 994.6484375 776.135742188 994.6484375 776.135742188 981.138671875 791.068359375 c 128,-1,40
 967.62890625 806 967.62890625 806 928.5 806 c 0,41,42
 897.088867188 806 897.088867188 806 650.400390625 791.001953125 c 0,43,44
 413.0546875 776.00390625 413.0546875 776.00390625 249.5 774.866210938 c 1,45,46
 249.5 764.93359375 249.5 764.93359375 249.5 795 c 2,47,48
 249.5 999.427734375 249.5 999.427734375 259.215820312 1230.45019531 c 1,49,50
 267.43359375 1211.62402344 267.43359375 1211.62402344 275.651367188 1232.79785156 c 2,51,52
 409.978515625 1252.96289062 409.978515625 1252.96289062 590.120117188 1257.99316406 c 0,53,54
 637.48046875 1259.31542969 637.48046875 1259.31542969 684.716796875 1259.31542969 c 0,55,56
 820.024414062 1259.31542969 820.024414062 1259.31542969 963.435546875 1248.91308594 c 0,57,58
 969.852539062 1248.14257812 969.852539062 1248.14257812 978.865234375 1248.14257812 c 128,-1,59
 987.876953125 1248.14257812 987.876953125 1248.14257812 998.994140625 1252.64941406 c 0,60,61
 1028.40722656 1264.57421875 1028.40722656 1264.57421875 1028.5 1318.68652344 c 0,62,63
 1027.67578125 1343.54589844 1027.67578125 1343.54589844 1014.45703125 1356.76464844 c 128,-1,64
 1001.23828125 1369.98339844 1001.23828125 1369.98339844 959.048828125 1375.14941406 c 0,65,66
 888.89453125 1384.04199219 888.89453125 1384.04199219 769.508789062 1388.01074219 c 0,67,68
 717.310546875 1389.8828125 717.310546875 1389.8828125 654.26953125 1389.8828125 c 0,69,70
 418.223632812 1389.8828125 418.223632812 1389.8828125 261.252929688 1367.18847656 c 2,71,72
 255.467773438 1346.390625 255.467773438 1346.390625 249.681640625 1365.59179688 c 1,73,74
 246.13671875 1350.23730469 246.13671875 1350.23730469 242.591796875 1374.8828125 c 2,75,76
 221.729492188 1402.21972656 221.729492188 1402.21972656 183.268554688 1402.21972656 c 1,77,78
 179.384765625 1382.109375 179.384765625 1382.109375 175.5 1402 c 2,79,80
 141.778320312 1402 141.778320312 1402 119.032226562 1379.25390625 c 128,-1,81
 96.2861328125 1356.5078125 96.2861328125 1356.5078125 94.5 1309.61425781 c 0,82,83
 94.4697265625 1288.87402344 94.4697265625 1288.87402344 90.9853515625 1212.20605469 c 128,-1,84
 87.5 1135.53808594 87.5 1135.53808594 87.5 1095.89355469 c 128,-1,85
 87.5 1056.24804688 87.5 1056.24804688 90.494140625 933.49609375 c 0,86,87
 95 787.049804688 95 787.049804688 95 704.150390625 c 128,-1,88
 95 621.251953125 95 621.251953125 93.75 524.037109375 c 0,89,90
 91.966796875 385.395507812 91.966796875 385.395507812 91.966796875 266.095703125 c 128,-1,91
 91.966796875 146.796875 91.966796875 146.796875 98.3271484375 98.6396484375 c 0,92,93
 105.426757812 43.6201171875 105.426757812 43.6201171875 146.740234375 4.52734375 c 128,-1,94
 187.974609375 -34.490234375 187.974609375 -34.490234375 228.764648438 -37.0390625 c 2,95,96
 228.875976562 -57.046875 228.875976562 -57.046875 228.98828125 -37.0546875 c 2,97,98
 272.580078125 -40.2666015625 272.580078125 -40.2666015625 336.448242188 -40.2666015625 c 0,99,100
 454.819335938 -40.2666015625 454.819335938 -40.2666015625 763.440429688 -19.0400390625 c 0,101,102
 869.234375 -12.25 869.234375 -12.25 916.84375 -12.25 c 0,103,104
 933.34375 -12.25 933.34375 -12.25 943.1796875 -13.0693359375 c 2,105,106
 943.271484375 -33.078125 943.271484375 -33.078125 943.364257812 -13.0859375 c 2,0,1
EndSplineSet
Validated: 524293
EndChar

StartChar: F
Encoding: 70 70 38
Width: 1116
GlyphClass: 2
Flags: W
LayerCount: 2
Fore
SplineSet
960.321289062 1397.06933594 m 0,0,1
 856.282226562 1406.59960938 856.282226562 1406.59960938 711.712890625 1406.59960938 c 0,2,3
 496.4609375 1406.59960938 496.4609375 1406.59960938 251.520507812 1387.23632812 c 1,4,5
 248.231445312 1371.65917969 248.231445312 1371.65917969 244.942382812 1396.08300781 c 2,6,7
 224.650390625 1423.37207031 224.650390625 1423.37207031 186.185546875 1423.37207031 c 1,8,9
 181.09375 1403.18652344 181.09375 1403.18652344 176.000976562 1423 c 1,10,11
 142.17578125 1423 142.17578125 1423 119.513671875 1400.73535156 c 128,-1,12
 96.69921875 1378.3203125 96.69921875 1378.3203125 94.9873046875 1331.26171875 c 0,13,14
 93.9853515625 1301.20605469 93.9853515625 1301.20605469 90.4931640625 1221.87988281 c 128,-1,15
 87.0009765625 1142.55273438 87.0009765625 1142.55273438 87.0009765625 1096 c 128,-1,16
 87.0009765625 1049.29492188 87.0009765625 1049.29492188 90.9921875 911.588867188 c 0,17,18
 104.158203125 556.119140625 104.158203125 556.119140625 104.159179688 263.215820312 c 0,19,20
 104.159179688 106.528320312 104.159179688 106.528320312 98.9404296875 39.4306640625 c 0,21,22
 98.4765625 33.7490234375 98.4765625 33.7490234375 98.4765625 28.5087890625 c 0,23,24
 98.4765625 -3.7138671875 98.4765625 -3.7138671875 116.02734375 -22.2578125 c 0,25,26
 136.604492188 -44 136.604492188 -44 169.000976562 -44 c 2,27,28
 172.123046875 -64.0712890625 172.123046875 -64.0712890625 175.24609375 -44.142578125 c 2,29,30
 209.109375 -44.142578125 209.109375 -44.142578125 237.309570312 -23.7763671875 c 128,-1,31
 265.618164062 -3.330078125 265.618164062 -3.330078125 269.96484375 30.9052734375 c 1,32,33
 260.717773438 318.088867188 260.717773438 318.088867188 251.471679688 645.272460938 c 1,34,35
 260.3125 626.53515625 260.3125 626.53515625 269.15234375 647.797851562 c 2,36,37
 356.120117188 660.518554688 356.120117188 660.518554688 478.802734375 660.518554688 c 0,38,39
 609.41015625 660.518554688 609.41015625 660.518554688 715.752929688 652.73046875 c 0,40,41
 825.546875 644.94140625 825.546875 644.94140625 889.328125 634.8828125 c 0,42,43
 895.959960938 634.55859375 895.959960938 634.55859375 898.161132812 634.555664062 c 0,44,45
 930.151367188 634.555664062 930.151367188 634.555664062 940.995117188 652.026367188 c 0,46,47
 954.86328125 674.368164062 954.86328125 674.368164062 955 704.359375 c 0,48,49
 953.356445312 728.365234375 953.356445312 728.365234375 940.329101562 741.393554688 c 128,-1,50
 927.30078125 754.421875 927.30078125 754.421875 883.440429688 762.31640625 c 0,51,52
 820.458984375 773.141601562 820.458984375 773.141601562 718.907226562 782.080078125 c 0,53,54
 620.391601562 791.018554688 620.391601562 791.018554688 497.42578125 794.004882812 c 0,55,56
 474.46484375 794.5625 474.46484375 794.5625 452.374023438 794.5625 c 0,57,58
 356.828125 794.5625 356.828125 794.5625 272.412109375 784.14453125 c 2,59,60
 261.342773438 762.811523438 261.342773438 762.811523438 250.274414062 781.479492188 c 1,61,62
 248.25 947.481445312 248.25 947.481445312 255.016601562 1122.28613281 c 0,63,64
 258.012695312 1199.69140625 258.012695312 1199.69140625 259.536132812 1251.49414062 c 1,65,66
 515.1796875 1273.44042969 515.1796875 1273.44042969 727.051757812 1273.44726562 c 0,67,68
 840.97265625 1273.44726562 840.97265625 1273.44726562 953.6875 1267.99023438 c 0,69,70
 955.78125 1267.96484375 955.78125 1267.96484375 956.4765625 1267.96484375 c 0,71,72
 994.466796875 1267.96484375 994.466796875 1267.96484375 1010.65332031 1287.31933594 c 0,73,74
 1028.83496094 1309.05761719 1028.83496094 1309.05761719 1028.99902344 1339.40429688 c 0,75,76
 1027.31835938 1365.69335938 1027.31835938 1365.69335938 1013.9921875 1379.74023438 c 128,-1,77
 1000.74707031 1393.70117188 1000.74707031 1393.70117188 960.321289062 1397.06933594 c 0,0,1
EndSplineSet
Validated: 524329
EndChar

StartChar: G
Encoding: 71 71 39
Width: 1116
GlyphClass: 2
Flags: W
LayerCount: 2
Fore
SplineSet
894.970703125 1443.37402344 m 0,0,1
 793.081054688 1483 793.081054688 1483 717.85546875 1483 c 0,2,3
 650.42578125 1483 650.42578125 1483 577.088867188 1448.44140625 c 128,-1,4
 503.75 1413.8828125 503.75 1413.8828125 433.579101562 1349.92871094 c 128,-1,5
 363.40625 1285.97558594 363.40625 1285.97558594 298.903320312 1189.29492188 c 0,6,7
 230.262695312 1092.61425781 230.262695312 1092.61425781 179.106445312 976.927734375 c 128,-1,8
 127.986328125 861.322265625 127.986328125 861.322265625 97.435546875 716.079101562 c 128,-1,9
 66.8857421875 570.841796875 66.8857421875 570.841796875 66.8857421875 416.942382812 c 0,10,11
 66.8857421875 346.845703125 66.8857421875 346.845703125 85.6552734375 277.6484375 c 128,-1,12
 104.37109375 208.646484375 104.37109375 208.646484375 142.3046875 147.001953125 c 128,-1,13
 180.2890625 85.2763671875 180.2890625 85.2763671875 231.866210938 38.1904296875 c 128,-1,14
 283.443359375 -8.8955078125 283.443359375 -8.8955078125 350.94140625 -36.8291015625 c 0,15,16
 416.173828125 -64 416.173828125 -64 490.396484375 -64 c 2,17,-1
 490.647460938 -64 l 2,18,19
 492.795898438 -64.03125 492.795898438 -64.03125 494.94140625 -64.033203125 c 0,20,21
 558.27734375 -64.033203125 558.27734375 -64.033203125 620.680664062 -36.3798828125 c 0,22,23
 683.084960938 -7.98046875 683.084960938 -7.98046875 733.541992188 40.6259765625 c 128,-1,24
 784 89.2314453125 784 89.2314453125 830.286132812 150.428710938 c 0,25,26
 878.059570312 211.510742188 878.059570312 211.510742188 910.80859375 275.766601562 c 128,-1,27
 943.556640625 340.022460938 943.556640625 340.022460938 963.861328125 396.624023438 c 128,-1,28
 984.165039062 453.225585938 984.165039062 453.225585938 988.958984375 495.801757812 c 0,29,30
 990.0234375 512.828125 990.0234375 512.828125 993.454101562 539.510742188 c 128,-1,31
 996.885742188 566.193359375 996.885742188 566.193359375 996.885742188 572.016601562 c 2,32,33
 996.885742188 575.352539062 996.885742188 575.352539062 996.885742188 586.478515625 c 1,34,35
 1003.51464844 585.28515625 1003.51464844 585.28515625 1010.14355469 591.359375 c 2,36,37
 1027.89941406 597.896484375 1027.89941406 597.896484375 1035.04589844 612.103515625 c 128,-1,38
 1042.19238281 626.310546875 1042.19238281 626.310546875 1042.19238281 647.407226562 c 0,39,40
 1042.19238281 686.33984375 1042.19238281 686.33984375 1023.64941406 701.098632812 c 0,41,42
 1008.53515625 713.12890625 1008.53515625 713.12890625 963.6953125 715.837890625 c 0,43,44
 934.068359375 717.483398438 934.068359375 717.483398438 898.352539062 717.483398438 c 0,45,46
 802.568359375 717.483398438 802.568359375 717.483398438 674.568359375 705.603515625 c 0,47,48
 501.033203125 689.499023438 501.033203125 689.499023438 450.567382812 661.471679688 c 2,49,50
 450.30859375 659.657226562 450.30859375 659.657226562 450.049804688 661.1953125 c 1,51,52
 386.469726562 628.600585938 386.469726562 628.600585938 386.469726562 574.775390625 c 0,53,54
 386.469726562 567.819335938 386.469726562 567.819335938 387.576171875 559.537109375 c 0,55,56
 391.00390625 532.8828125 391.00390625 532.8828125 413.4375 516.919921875 c 0,57,58
 424.250976562 509.224609375 424.250976562 509.224609375 434.409179688 509.224609375 c 128,-1,59
 444.567382812 509.224609375 444.567382812 509.224609375 455.611328125 516.080078125 c 0,60,61
 503.03515625 544.612304688 503.03515625 544.612304688 618.84765625 562.392578125 c 128,-1,62
 734.66015625 580.171875 734.66015625 580.171875 858.942382812 586.373046875 c 2,63,64
 872.581054688 583.33984375 872.581054688 583.33984375 886.21875 587.67578125 c 1,65,66
 882.71875 570.094726562 882.71875 570.094726562 879.21875 560.581054688 c 2,67,68
 865.861328125 508.87109375 865.861328125 508.87109375 840.818359375 447.983398438 c 128,-1,69
 815.75390625 387.041015625 815.75390625 387.041015625 779.91015625 323.11328125 c 0,70,71
 744.963867188 259.118164062 744.963867188 259.118164062 705.193359375 206.426757812 c 128,-1,72
 665.421875 153.735351562 665.421875 153.735351562 614.780273438 118.44140625 c 128,-1,73
 564.139648438 83.146484375 564.139648438 83.146484375 512.587890625 83.146484375 c 0,74,75
 435.545898438 83.146484375 435.545898438 83.146484375 371.171875 143.650390625 c 0,76,77
 306.3203125 204.155273438 306.3203125 204.155273438 268.602539062 295.6171875 c 128,-1,78
 230.885742188 387.080078125 230.885742188 387.080078125 230.885742188 484.71875 c 0,79,80
 230.885742188 619.80859375 230.885742188 619.80859375 264.0078125 752.741210938 c 128,-1,81
 297.108398438 885.58203125 297.108398438 885.58203125 349.201171875 990.849609375 c 0,82,83
 400.123046875 1096.1171875 400.123046875 1096.1171875 463.267578125 1178.91308594 c 128,-1,84
 526.4140625 1261.70898438 526.4140625 1261.70898438 596.970703125 1307.65136719 c 128,-1,85
 667.52734375 1353.59277344 667.52734375 1353.59277344 731.724609375 1353.59277344 c 0,86,87
 770.76171875 1353.59277344 770.76171875 1353.59277344 817.055664062 1331.4296875 c 0,88,89
 866.005859375 1309.265625 866.005859375 1309.265625 910.326171875 1282.45996094 c 128,-1,90
 954.647460938 1255.65429688 954.647460938 1255.65429688 966.756835938 1250.67480469 c 0,91,92
 983.01953125 1246.79492188 983.01953125 1246.79492188 992.6171875 1246.7109375 c 128,-1,93
 1002.21484375 1246.62792969 1002.21484375 1246.62792969 1014.81347656 1251.93164062 c 0,94,95
 1036.54785156 1261.08007812 1036.54785156 1261.08007812 1041.76660156 1278.49804688 c 0,96,97
 1049.11425781 1301.70605469 1049.11425781 1301.70605469 1049.11425781 1318.85742188 c 0,98,99
 1049.11425781 1351.96679688 1049.11425781 1351.96679688 1024.87207031 1376.94238281 c 0,100,101
 997.698242188 1403.74707031 997.698242188 1403.74707031 894.970703125 1443.37402344 c 0,0,1
EndSplineSet
Validated: 524297
EndChar

StartChar: H
Encoding: 72 72 40
Width: 1116
GlyphClass: 2
Flags: W
LayerCount: 2
Fore
SplineSet
280.911132812 597.490234375 m 128,-1,1
 281.890625 611.69921875 281.890625 611.69921875 281.890625 618 c 2,2,3
 281.890625 608 281.890625 608 281.890625 638 c 1,4,-1
 301.890625 638 l 2,5,6
 389.103515625 638 389.103515625 638 585.9296875 668.458984375 c 0,7,8
 784.885742188 698.916992188 784.885742188 698.916992188 819.700195312 700.96484375 c 2,9,10
 830.236328125 681.584960938 830.236328125 681.584960938 840.771484375 702.205078125 c 1,11,12
 841.072265625 648.694335938 841.072265625 648.694335938 841.072265625 616.868164062 c 0,13,14
 841.072265625 298.467773438 841.072265625 298.467773438 822.840820312 39.5771484375 c 2,15,16
 822.836914062 19.521484375 822.836914062 19.521484375 822.833007812 39.4658203125 c 2,17,18
 822.366210938 33.7470703125 822.366210938 33.7470703125 822.366210938 28.5087890625 c 0,19,20
 822.366210938 -3.7138671875 822.366210938 -3.7138671875 839.916992188 -22.2578125 c 0,21,22
 860.494140625 -44 860.494140625 -44 892.890625 -44 c 2,23,24
 896.012695312 -64.0712890625 896.012695312 -64.0712890625 899.135742188 -44.142578125 c 2,25,26
 932.999023438 -44.142578125 932.999023438 -44.142578125 961.19921875 -23.7763671875 c 0,27,28
 993.319335938 -0.578125 993.319335938 -0.578125 992.875976562 30.81640625 c 0,29,30
 992.877929688 31.6396484375 992.877929688 31.6396484375 992.877929688 35.2958984375 c 128,-1,31
 992.877929688 38.9521484375 992.877929688 38.9521484375 992.779296875 46.30859375 c 0,32,33
 992.779296875 120.23828125 992.779296875 120.23828125 999.001953125 301.459960938 c 128,-1,34
 1005.22363281 482.682617188 1005.22363281 482.682617188 1005.22363281 568.865234375 c 128,-1,35
 1005.22363281 655.048828125 1005.22363281 655.048828125 1003.8984375 702.431640625 c 1,36,37
 1003.8984375 682.484375 1003.8984375 682.484375 1003.8984375 702.538085938 c 1,38,39
 1000.890625 875.008789062 1000.890625 875.008789062 1001.390625 966.611328125 c 128,-1,40
 1001.89160156 1058.31542969 1001.89160156 1058.31542969 1004.39160156 1178.76367188 c 128,-1,41
 1006.890625 1299.2109375 1006.890625 1299.2109375 1006.890625 1338 c 0,42,43
 1006.890625 1384.75585938 1006.890625 1384.75585938 984.30859375 1403.95019531 c 128,-1,44
 961.7265625 1423.14550781 961.7265625 1423.14550781 927.497070312 1423.14550781 c 0,45,46
 924.677734375 1423.14550781 924.677734375 1423.14550781 921.772460938 1423.01953125 c 2,47,48
 921.552734375 1403.00976562 921.552734375 1403.00976562 921.33203125 1423 c 1,49,50
 887.96484375 1423 887.96484375 1423 864.778320312 1400.61328125 c 128,-1,51
 841.737304688 1378.36621094 841.737304688 1378.36621094 840.887695312 1331.62988281 c 2,52,53
 840.883789062 1311.44042969 840.883789062 1311.44042969 840.880859375 1331.25195312 c 2,54,55
 839.87109375 1313.08300781 839.87109375 1313.08300781 836.877929688 1227.29199219 c 128,-1,56
 833.890625 1141.64550781 833.890625 1141.64550781 833.890625 1101.5 c 128,-1,57
 833.890625 1061.15917969 833.890625 1061.15917969 835.887695312 933.318359375 c 1,58,59
 835.887695312 913.159179688 835.887695312 913.159179688 835.887695312 933 c 2,60,61
 835.887695312 919.534179688 835.887695312 919.534179688 837.389648438 891.034179688 c 128,-1,62
 838.890625 862.534179688 838.890625 862.534179688 838.890625 848 c 2,63,64
 838.890625 818.797851562 838.890625 818.797851562 838.890625 829.596679688 c 1,65,66
 785.142578125 825.1171875 785.142578125 825.1171875 699.319335938 812.129882812 c 0,67,68
 470.709960938 776.646484375 470.709960938 776.646484375 306.081054688 775.000976562 c 2,69,70
 295.985351562 754.90625 295.985351562 754.90625 285.890625 774.8125 c 1,71,72
 285.890625 764.90625 285.890625 764.90625 285.890625 795 c 2,73,74
 285.890625 852.813476562 285.890625 852.813476562 283.890625 961.813476562 c 128,-1,75
 281.890625 1070.81347656 281.890625 1070.81347656 281.890625 1126.81933594 c 128,-1,76
 281.890625 1182.82519531 281.890625 1182.82519531 287.390625 1250.32519531 c 128,-1,77
 292.890625 1317.82519531 292.890625 1317.82519531 292.890625 1338 c 0,78,79
 292.890625 1384.75585938 292.890625 1384.75585938 270.30859375 1403.95019531 c 128,-1,80
 247.7265625 1423.14550781 247.7265625 1423.14550781 214.356445312 1423.14550781 c 0,81,82
 211.615234375 1423.14550781 211.615234375 1423.14550781 208.791992188 1423.01953125 c 2,83,84
 208.567382812 1403.00976562 208.567382812 1403.00976562 208.341796875 1423 c 1,85,86
 174.065429688 1423 174.065429688 1423 151.403320312 1400.73535156 c 128,-1,87
 128.588867188 1378.3203125 128.588867188 1378.3203125 126.876953125 1331.26171875 c 0,88,89
 121.291015625 1204.60644531 121.291015625 1204.60644531 121.291015625 1176.71386719 c 128,-1,90
 121.291015625 1148.82128906 121.291015625 1148.82128906 122.890625 1062.3828125 c 128,-1,91
 124.490234375 975.944335938 124.490234375 975.944335938 124.490234375 938.231445312 c 128,-1,92
 124.490234375 900.51953125 124.490234375 900.51953125 124.189453125 862.58203125 c 128,-1,93
 123.888671875 824.64453125 123.888671875 824.64453125 120.387695312 695.111328125 c 128,-1,94
 116.88671875 565.578125 116.88671875 565.578125 115.888671875 496.705078125 c 2,95,96
 115.888671875 476.616210938 115.888671875 476.616210938 115.888671875 496.52734375 c 1,97,98
 113.893554688 410.763671875 113.893554688 410.763671875 113.892578125 303.801757812 c 0,99,100
 113.888671875 98.2783203125 113.888671875 98.2783203125 109.8203125 39.27734375 c 0,101,102
 109.109375 32.3125 109.109375 32.3125 109.109375 26.2001953125 c 0,103,104
 109.109375 -4.30859375 109.109375 -4.30859375 126.287109375 -22.1220703125 c 0,105,106
 147.3828125 -44 147.3828125 -44 178.890625 -44 c 2,107,108
 182.012695312 -64.0712890625 182.012695312 -64.0712890625 185.135742188 -44.142578125 c 2,109,110
 218.999023438 -44.142578125 218.999023438 -44.142578125 247.19921875 -23.7763671875 c 128,-1,111
 275.491210938 -3.3427734375 275.491210938 -3.3427734375 279.848632812 30.859375 c 1,112,113
 273.890625 202 273.890625 202 273.890625 338.360351562 c 128,-1,114
 273.890625 474.720703125 273.890625 474.720703125 279.892578125 576.629882812 c 0,115,0
 279.930664062 583.280273438 279.930664062 583.280273438 280.911132812 597.490234375 c 128,-1,1
EndSplineSet
Validated: 524325
EndChar

StartChar: I
Encoding: 73 73 41
Width: 1116
GlyphClass: 2
Flags: W
LayerCount: 2
Fore
SplineSet
481.87890625 1106.52734375 m 128,-1,1
 481.5390625 1085.81835938 481.5390625 1085.81835938 481.5390625 1062.5 c 0,2,3
 481.5390625 958.66796875 481.5390625 958.66796875 484.969726562 867.833984375 c 2,4,5
 484.974609375 847.702148438 484.974609375 847.702148438 484.978515625 867.5703125 c 2,6,7
 488.356445312 736.629882812 488.356445312 736.629882812 488.357421875 610.333007812 c 0,8,9
 488.357421875 357.6953125 488.357421875 357.6953125 473.779296875 105.4296875 c 1,10,11
 252.4140625 100.013671875 252.4140625 100.013671875 165.6171875 96.0263671875 c 0,12,13
 120.524414062 93.451171875 120.524414062 93.451171875 102.474609375 74.6650390625 c 128,-1,14
 84.4248046875 55.87890625 84.4248046875 55.87890625 84.4248046875 31.3740234375 c 2,15,16
 84.5009765625 8.6875 84.5009765625 8.6875 84.576171875 26 c 2,17,18
 84.576171875 1.8447265625 84.576171875 1.8447265625 103.975585938 -13.078125 c 128,-1,19
 123.374023438 -28 123.374023438 -28 171.318359375 -28 c 128,-1,20
 219.26171875 -28 219.26171875 -28 346.974609375 -24.009765625 c 2,21,22
 459.590820312 -40.259765625 459.590820312 -40.259765625 572.20703125 -16.509765625 c 2,23,24
 665.401367188 -13.4375 665.401367188 -13.4375 720.461914062 -13.4375 c 128,-1,25
 775.522460938 -13.4375 775.522460938 -13.4375 789.661132812 -13.5 c 0,26,27
 911.107421875 -14.005859375 911.107421875 -14.005859375 966.52734375 -22.216796875 c 0,28,29
 974.57421875 -23.4541015625 974.57421875 -23.4541015625 983.60546875 -23.4541015625 c 128,-1,30
 992.635742188 -23.4541015625 992.635742188 -23.4541015625 1002.8203125 -19.6015625 c 128,-1,31
 1013.00390625 -15.748046875 1013.00390625 -15.748046875 1018.4140625 -6.7314453125 c 0,32,33
 1025.76855469 5.52734375 1025.76855469 5.52734375 1028.64550781 18.2685546875 c 128,-1,34
 1031.52246094 31.009765625 1031.52246094 31.009765625 1031.57519531 47.4130859375 c 0,35,36
 1029.87011719 74.9755859375 1029.87011719 74.9755859375 1016.28808594 89.98828125 c 128,-1,37
 1002.70507812 105 1002.70507812 105 963.576171875 105 c 0,38,39
 721.09375 107 721.09375 107 647.701171875 107 c 2,40,-1
 629.315429688 107 l 1,41,42
 629.315429688 97 629.315429688 97 629.315429688 127 c 2,43,44
 629.315429688 169.352539062 629.315429688 169.352539062 635.010742188 348.200195312 c 128,-1,45
 640.70703125 527.047851562 640.70703125 527.047851562 640.70703125 611.666015625 c 128,-1,46
 640.70703125 696.284179688 640.70703125 696.284179688 639.1484375 762.993164062 c 128,-1,47
 637.58984375 829.701171875 637.58984375 829.701171875 637.245117188 892.813476562 c 128,-1,48
 636.899414062 955.924804688 636.899414062 955.924804688 636.899414062 988.125 c 0,49,50
 636.899414062 1058.76757812 636.899414062 1058.76757812 639.083007812 1149.01757812 c 128,-1,51
 641.266601562 1239.26757812 641.266601562 1239.26757812 641.266601562 1255 c 2,52,53
 641.266601562 1245.51464844 641.266601562 1245.51464844 641.266601562 1276.02929688 c 1,54,55
 889.721679688 1262.91796875 889.721679688 1262.91796875 952.100585938 1252.69140625 c 0,56,57
 960.127929688 1251.1484375 960.127929688 1251.1484375 969.014648438 1251.1484375 c 128,-1,58
 977.90234375 1251.1484375 977.90234375 1251.1484375 986.767578125 1254.91601562 c 0,59,60
 1001.25683594 1261.07324219 1001.25683594 1261.07324219 1009.77734375 1273.85449219 c 0,61,62
 1027.40429688 1300.29492188 1027.40429688 1300.29492188 1027.57421875 1331.46191406 c 0,63,64
 1025.73046875 1363.22949219 1025.73046875 1363.22949219 1004.81835938 1378.48730469 c 0,65,66
 986.599609375 1391.77929688 986.599609375 1391.77929688 951.552734375 1395.1015625 c 0,67,68
 756.46875 1415 756.46875 1415 486.926757812 1415 c 0,69,70
 352.006835938 1415 352.006835938 1415 183.169921875 1410.00878906 c 1,71,-1
 183.065429688 1410.00878906 l 2,72,73
 138.12109375 1409.16113281 138.12109375 1409.16113281 118.77734375 1389.44335938 c 128,-1,74
 99.43359375 1369.72558594 99.43359375 1369.72558594 99.43359375 1345.09472656 c 2,75,76
 99.5048828125 1322.546875 99.5048828125 1322.546875 99.576171875 1340 c 2,77,78
 99.576171875 1314.10253906 99.576171875 1314.10253906 119.696289062 1296.58984375 c 128,-1,79
 139.953125 1278.95898438 139.953125 1278.95898438 180.453125 1278.95898438 c 0,80,81
 182.211914062 1278.95898438 182.211914062 1278.95898438 210.893554688 1279.97949219 c 128,-1,82
 239.576171875 1281 239.576171875 1281 314.434570312 1281 c 0,83,84
 384.5234375 1281 384.5234375 1281 488.663085938 1278.57714844 c 1,85,86
 488.663085938 1248.78808594 488.663085938 1248.78808594 488.663085938 1259 c 2,87,88
 488.663085938 1249.41796875 488.663085938 1249.41796875 485.44140625 1188.32714844 c 128,-1,0
 482.21875 1127.23632812 482.21875 1127.23632812 481.87890625 1106.52734375 c 128,-1,1
EndSplineSet
Validated: 524325
EndChar

StartChar: J
Encoding: 74 74 42
Width: 1116
GlyphClass: 2
Flags: W
LayerCount: 2
Fore
SplineSet
362.81640625 1281.04199219 m 0,0,1
 454.30078125 1281.08300781 454.30078125 1281.08300781 595.6640625 1276.390625 c 1,2,3
 592.690429688 1003.06445312 592.690429688 1003.06445312 596.45703125 781.762695312 c 128,-1,4
 600.223632812 560.4609375 600.223632812 560.4609375 600.223632812 519.708007812 c 128,-1,5
 600.223632812 478.956054688 600.223632812 478.956054688 600.049804688 470.458984375 c 0,6,7
 594.34765625 270.63671875 594.34765625 270.63671875 570.461914062 180.584960938 c 0,8,9
 548.025390625 96 548.025390625 96 504.280273438 96 c 0,10,11
 443.102539062 96 443.102539062 96 392.921875 121.356445312 c 128,-1,12
 342.782226562 146.692382812 342.782226562 146.692382812 312.501953125 183.881835938 c 0,13,14
 280.702148438 221.071289062 280.702148438 221.071289062 260.192382812 264.71875 c 0,15,16
 223.666992188 342.453125 223.666992188 342.453125 223.666992188 401 c 0,17,18
 223.666992188 432.384765625 223.666992188 432.384765625 202.940429688 451.959960938 c 0,19,20
 188.168945312 465.91015625 188.168945312 465.91015625 164.553710938 465.91015625 c 0,21,22
 156.744140625 465.91015625 156.744140625 465.91015625 146.87109375 464.255859375 c 0,23,24
 121.78125 460.208984375 121.78125 460.208984375 107.208984375 446.788085938 c 128,-1,25
 92.5009765625 433.240234375 92.5009765625 433.240234375 87.4541015625 414.314453125 c 0,26,27
 79.333984375 383.864257812 79.333984375 383.864257812 79.333984375 358.111328125 c 0,28,29
 79.333984375 345.740234375 79.333984375 345.740234375 82.31640625 335.00390625 c 1,30,31
 85.142578125 313.336914062 85.142578125 313.336914062 100.84375 276.700195312 c 128,-1,32
 116.544921875 240.064453125 116.544921875 240.064453125 144.2109375 193.46875 c 128,-1,33
 171.876953125 146.874023438 171.876953125 146.874023438 213.684570312 100.205078125 c 128,-1,34
 255.4921875 53.53515625 255.4921875 53.53515625 303.606445312 14.5634765625 c 0,35,36
 349.614257812 -24.4091796875 349.614257812 -24.4091796875 407.905273438 -48.2041015625 c 128,-1,37
 466.196289062 -72 466.196289062 -72 527.303710938 -72 c 0,38,39
 580.233398438 -72 580.233398438 -72 619.206054688 -27.8818359375 c 128,-1,40
 658.176757812 16.2373046875 658.176757812 16.2373046875 687.236328125 127.409179688 c 128,-1,41
 716.296875 238.581054688 716.296875 238.581054688 730.880859375 421.552734375 c 0,42,43
 736.870117188 518.162109375 736.870117188 518.162109375 736.870117188 641.588867188 c 128,-1,44
 736.870117188 765.015625 736.870117188 765.015625 734.061523438 851.282226562 c 2,45,46
 730.377929688 940.770507812 730.377929688 940.770507812 726.6953125 1070.25878906 c 2,47,48
 722.538085938 1190.61914062 722.538085938 1190.61914062 722.538085938 1251 c 2,49,50
 722.538085938 1241.47753906 722.538085938 1241.47753906 722.538085938 1271.95507812 c 1,51,52
 899.264648438 1263.43457031 899.264648438 1263.43457031 961.459960938 1252.63964844 c 0,53,54
 969.21875 1251.1484375 969.21875 1251.1484375 978.10546875 1251.1484375 c 128,-1,55
 986.993164062 1251.1484375 986.993164062 1251.1484375 995.858398438 1254.91601562 c 0,56,57
 1010.34765625 1261.07324219 1010.34765625 1261.07324219 1018.86816406 1273.85449219 c 0,58,59
 1036.45214844 1300.23046875 1036.45214844 1300.23046875 1036.66601562 1331.32910156 c 0,60,61
 1034.35742188 1363.11425781 1034.35742188 1363.11425781 1013.17285156 1378.43945312 c 0,62,63
 994.747070312 1391.76855469 994.747070312 1391.76855469 959.63671875 1395.1015625 c 0,64,65
 764.881835938 1415 764.881835938 1415 495.071289062 1415 c 0,66,67
 360.015625 1415 360.015625 1415 192.260742188 1410.00878906 c 1,68,-1
 192.15625 1410.00878906 l 2,69,70
 147.211914062 1409.16113281 147.211914062 1409.16113281 127.868164062 1389.44335938 c 128,-1,71
 108.524414062 1369.72558594 108.524414062 1369.72558594 108.524414062 1345.09472656 c 2,72,73
 108.595703125 1322.546875 108.595703125 1322.546875 108.666992188 1340 c 2,74,75
 108.666992188 1314.10253906 108.666992188 1314.10253906 128.787109375 1296.58984375 c 128,-1,76
 149.043945312 1278.95898438 149.043945312 1278.95898438 189.543945312 1278.95898438 c 0,77,78
 191.338867188 1278.95898438 191.338867188 1278.95898438 229.002929688 1279.97949219 c 128,-1,79
 266.666992188 1281 266.666992188 1281 362.81640625 1281.04199219 c 0,0,1
EndSplineSet
Validated: 524329
EndChar

StartChar: K
Encoding: 75 75 43
Width: 1116
GlyphClass: 2
Flags: W
LayerCount: 2
Fore
SplineSet
90.435546875 1108.5 m 128,-1,1
 90.435546875 1062.31054688 90.435546875 1062.31054688 94.42578125 931.620117188 c 0,2,3
 107.592773438 576.125 107.592773438 576.125 107.59375 283.215820312 c 0,4,5
 107.59375 125.388671875 107.59375 125.388671875 102.375 57.8037109375 c 0,6,7
 101.911132812 52.96875 101.911132812 52.96875 101.911132812 48.5087890625 c 0,8,9
 101.911132812 7.5595703125 101.911132812 7.5595703125 119.461914062 -16.005859375 c 0,10,11
 140.0390625 -44 140.0390625 -44 172.435546875 -44 c 2,12,13
 175.557617188 -64.0712890625 175.557617188 -64.0712890625 178.681640625 -44.142578125 c 2,14,15
 212.544921875 -44.142578125 212.544921875 -44.142578125 240.744140625 -19.9892578125 c 0,16,17
 269.0390625 5.5654296875 269.0390625 5.5654296875 273.39453125 48.3427734375 c 1,18,-1
 255.435546875 580.655273438 l 1,19,-1
 255.435546875 676.923828125 l 1,20,-1
 290.759765625 634.84765625 l 2,21,22
 356.229492188 549.388671875 356.229492188 549.388671875 489.260742188 402.173828125 c 0,23,24
 622.291992188 263.966796875 622.291992188 263.966796875 737.84765625 148.90234375 c 0,25,26
 860.0390625 35.7548828125 860.0390625 35.7548828125 882.001953125 8.986328125 c 0,27,28
 918.440429688 -43.587890625 918.440429688 -43.587890625 952.139648438 -43.587890625 c 0,29,30
 970.884765625 -43.587890625 970.884765625 -43.587890625 991.49609375 -26.2822265625 c 1,31,32
 1012.07714844 -10.185546875 1012.07714844 -10.185546875 1021.17773438 20.9921875 c 0,33,34
 1025.56445312 36.044921875 1025.56445312 36.044921875 1025.56445312 53.404296875 c 0,35,36
 1025.56445312 63.01171875 1025.56445312 63.01171875 1020.68554688 74.2138671875 c 0,37,38
 1014.94921875 84.8564453125 1014.94921875 84.8564453125 986.220703125 114.224609375 c 0,39,40
 924.912109375 186.393554688 924.912109375 186.393554688 615.57421875 500.90625 c 0,41,42
 461.978515625 657.823242188 461.978515625 657.823242188 398.30078125 731.267578125 c 2,43,-1
 385.8359375 745.64453125 l 1,44,45
 530.784179688 904.484375 530.784179688 904.484375 701.081054688 1099.890625 c 0,46,47
 879.634765625 1286.51367188 879.634765625 1286.51367188 910.099609375 1322.67675781 c 0,48,49
 946.088867188 1358.41601562 946.088867188 1358.41601562 946.088867188 1385.15917969 c 0,50,51
 946.088867188 1414.26953125 946.088867188 1414.26953125 929.037109375 1439.31445312 c 0,52,53
 910.431640625 1463.5859375 910.431640625 1463.5859375 891.064453125 1463.5859375 c 0,54,55
 880.452148438 1463.5859375 880.452148438 1463.5859375 866.756835938 1457.99511719 c 0,56,57
 844.041992188 1449.47851562 844.041992188 1449.47851562 818.983398438 1422.29980469 c 1,58,59
 770.12890625 1378.44433594 770.12890625 1378.44433594 496.018554688 1085.00195312 c 0,60,61
 359.2734375 930.58203125 359.2734375 930.58203125 253.001953125 820.681640625 c 1,62,63
 254.439453125 977.692382812 254.439453125 977.692382812 259.436523438 1143.95507812 c 0,64,65
 264.435546875 1309.44042969 264.435546875 1309.44042969 264.435546875 1357.03125 c 0,66,67
 264.435546875 1415.62304688 264.435546875 1415.62304688 241.853515625 1439.18945312 c 0,68,69
 219.271484375 1463.14550781 219.271484375 1463.14550781 185.901367188 1463.14550781 c 0,70,71
 183.16015625 1463.14550781 183.16015625 1463.14550781 180.337890625 1463 c 2,72,73
 180.112304688 1463.26757812 180.112304688 1463.26757812 179.88671875 1463 c 1,74,75
 145.610351562 1463 145.610351562 1463 122.948242188 1435.00195312 c 0,76,77
 100.21875 1408.30761719 100.21875 1408.30761719 98.435546875 1352.37597656 c 0,78,79
 98.404296875 1329.63867188 98.404296875 1329.63867188 94.419921875 1242.60351562 c 0,80,0
 90.435546875 1154.8515625 90.435546875 1154.8515625 90.435546875 1108.5 c 128,-1,1
EndSplineSet
Validated: 524297
EndChar

StartChar: L
Encoding: 76 76 44
Width: 1116
GlyphClass: 2
Flags: W
LayerCount: 2
Fore
SplineSet
1004.734375 149.263671875 m 128,-1,1
 995.775390625 162.506835938 995.775390625 162.506835938 981.749023438 167.766601562 c 0,2,3
 974.014648438 170.666992188 974.014648438 170.666992188 965.9609375 170.666992188 c 128,-1,4
 957.907226562 170.666992188 957.907226562 170.666992188 949.622070312 168.595703125 c 0,5,6
 872.188476562 149.237304688 872.188476562 149.237304688 663.884765625 128.03515625 c 0,7,8
 463.19921875 106.833007812 463.19921875 106.833007812 310.970703125 106.833007812 c 0,9,10
 296.061523438 106.833007812 296.061523438 106.833007812 261.762695312 107.229492188 c 1,11,12
 261.762695312 97.115234375 261.762695312 97.115234375 261.762695312 127 c 2,13,14
 261.762695312 218.772460938 261.762695312 218.772460938 274.276367188 382.950195312 c 128,-1,15
 286.790039062 547.12890625 286.790039062 547.12890625 289.775390625 631.716796875 c 2,16,17
 294.525390625 746.715820312 294.525390625 746.715820312 299.275390625 901.71484375 c 1,18,19
 303.775390625 1010.9609375 303.775390625 1010.9609375 308.275390625 1160.20703125 c 2,20,21
 311.762695312 1262.34667969 311.762695312 1262.34667969 311.762695312 1321 c 0,22,23
 311.762695312 1366.87207031 311.762695312 1366.87207031 289.106445312 1386.5078125 c 128,-1,24
 266.450195312 1406.14257812 266.450195312 1406.14257812 233.114257812 1406.14257812 c 0,25,26
 230.428710938 1406.14257812 230.428710938 1406.14257812 227.6640625 1406.01953125 c 2,27,28
 227.439453125 1386.00976562 227.439453125 1386.00976562 227.213867188 1406 c 1,29,30
 193.836914062 1406 193.836914062 1406 170.650390625 1383.61328125 c 128,-1,31
 147.583007812 1361.34179688 147.583007812 1361.34179688 145.768554688 1313.77734375 c 0,32,33
 149.759765625 1047.83105469 149.759765625 1047.83105469 150.561523438 998.6484375 c 128,-1,34
 151.362304688 949.46484375 151.362304688 949.46484375 151.362304688 857.080078125 c 128,-1,35
 151.362304688 764.696289062 151.362304688 764.696289062 147.73046875 708.841796875 c 0,36,37
 137.69921875 505.309570312 137.69921875 505.309570312 114.698242188 286.809570312 c 0,38,39
 92.16796875 72.7900390625 92.16796875 72.7900390625 91.203125 59.7685546875 c 128,-1,40
 90.23828125 46.7470703125 90.23828125 46.7470703125 90.23828125 41.5087890625 c 0,41,42
 90.23828125 9.2861328125 90.23828125 9.2861328125 107.7890625 -9.2578125 c 0,43,44
 128.366210938 -31 128.366210938 -31 160.762695312 -31 c 0,45,46
 292.331054688 -31 292.331054688 -31 554.212890625 -19.041015625 c 0,47,48
 815.413085938 -7.0810546875 815.413085938 -7.0810546875 953.958984375 19.6376953125 c 0,49,50
 998.497070312 27.8623046875 998.497070312 27.8623046875 1012.06054688 43.9921875 c 128,-1,51
 1025.625 60.1220703125 1025.625 60.1220703125 1025.76171875 89.3935546875 c 0,52,53
 1024.84179688 103.431640625 1024.84179688 103.431640625 1019.26757812 119.725585938 c 128,-1,0
 1013.69238281 136.020507812 1013.69238281 136.020507812 1004.734375 149.263671875 c 128,-1,1
EndSplineSet
Validated: 524293
EndChar

StartChar: M
Encoding: 77 77 45
Width: 1116
GlyphClass: 2
Flags: W
LayerCount: 2
Fore
SplineSet
161.42578125 10.80078125 m 128,-1,1
 185.357421875 41.6279296875 185.357421875 41.6279296875 185.357421875 93.23046875 c 1,2,3
 185.127929688 88.9501953125 185.127929688 88.9501953125 184.8984375 114.668945312 c 2,4,5
 184.8984375 139.196289062 184.8984375 139.196289062 188.635742188 182.795898438 c 2,6,7
 195.137695312 240.325195312 195.137695312 240.325195312 201.640625 327.854492188 c 2,8,9
 210.12109375 420.139648438 210.12109375 420.139648438 215.106445312 504.892578125 c 2,10,11
 221.110351562 579.703125 221.110351562 579.703125 227.114257812 684.513671875 c 1,12,13
 233.114257812 758.766601562 233.114257812 758.766601562 239.114257812 863.01953125 c 2,14,15
 246.565429688 974.791992188 246.565429688 974.791992188 263.14453125 1154.39355469 c 2,16,17
 268.966796875 1202.47753906 268.966796875 1202.47753906 274.790039062 1280.56152344 c 1,18,19
 283.857421875 1202.86230469 283.857421875 1202.86230469 292.760742188 1155.16210938 c 2,20,21
 337.254882812 830.28515625 337.254882812 830.28515625 390.682617188 478.302734375 c 128,-1,22
 444.111328125 126.319335938 444.111328125 126.319335938 466.717773438 27.7333984375 c 0,23,24
 471.819335938 7.982421875 471.819335938 7.982421875 491.608398438 -3.6259765625 c 128,-1,25
 511.3984375 -15.2353515625 511.3984375 -15.2353515625 539.862304688 -15.2353515625 c 0,26,27
 543.788085938 -15.2353515625 543.788085938 -15.2353515625 547.885742188 -15.0185546875 c 2,28,29
 548.065429688 -30.009765625 548.065429688 -30.009765625 548.244140625 -15 c 1,30,31
 626.459960938 -15 626.459960938 -15 643.556640625 26.029296875 c 0,32,33
 661.725585938 70.15625 661.725585938 70.15625 690.91015625 279.412109375 c 128,-1,34
 720.094726562 488.668945312 720.094726562 488.668945312 738.057617188 722.228515625 c 0,35,36
 755.161132812 966.044921875 755.161132812 966.044921875 811.205078125 1262.94335938 c 2,37,38
 823.336914062 1312.21289062 823.336914062 1312.21289062 835.990234375 1391.48242188 c 5,39,40
 838.03125 1310.97851562 838.03125 1310.97851562 840.072265625 1260.47460938 c 2,41,42
 873.008789062 203.537109375 873.008789062 203.537109375 915.39453125 68.4912109375 c 0,43,44
 933.56640625 10.341796875 933.56640625 10.341796875 965.623046875 -6.755859375 c 0,45,46
 983.165039062 -16.111328125 983.165039062 -16.111328125 998.907226562 -16.111328125 c 128,-1,47
 1014.65039062 -16.111328125 1014.65039062 -16.111328125 1029.11523438 -10.1064453125 c 0,48,49
 1071.91992188 10.4736328125 1071.91992188 10.4736328125 1071.91992188 71.5390625 c 0,50,51
 1071.91992188 71.7666015625 1071.91992188 71.7666015625 1071.91992188 71.9951171875 c 0,52,53
 1071.91992188 98.22265625 1071.91992188 98.22265625 1064.453125 131.712890625 c 0,54,55
 1048.20117188 205.348632812 1048.20117188 205.348632812 1008.71484375 754.51953125 c 128,-1,56
 969.2265625 1303.69042969 969.2265625 1303.69042969 961.233398438 1367.39941406 c 0,57,58
 957.702148438 1389.71191406 957.702148438 1389.71191406 948.37109375 1404.86816406 c 128,-1,59
 939.005859375 1420.08203125 939.005859375 1420.08203125 930.028320312 1426.45898438 c 128,-1,60
 920.861328125 1432.97070312 920.861328125 1432.97070312 903.920898438 1437.06738281 c 128,-1,61
 886.979492188 1441.08007812 886.979492188 1441.08007812 876.856445312 1441.54003906 c 128,-1,62
 866.733398438 1442 866.733398438 1442 850.080078125 1442 c 2,63,-1
 842.080078125 1442 l 1,64,-1
 841.49609375 1442 l 2,65,66
 833.49609375 1442.61523438 833.49609375 1442.61523438 821.436523438 1442.61523438 c 0,67,68
 809.766601562 1442.61523438 809.766601562 1442.61523438 792.877929688 1439.69726562 c 0,69,70
 770.002929688 1435.74511719 770.002929688 1435.74511719 748.391601562 1419.81347656 c 128,-1,71
 726.780273438 1403.88183594 726.780273438 1403.88183594 720.514648438 1378.24609375 c 0,72,73
 698.86328125 1286.79589844 698.86328125 1286.79589844 668.634765625 1116.22851562 c 128,-1,74
 638.434570312 945.817382812 638.434570312 945.817382812 621.447265625 775.4140625 c 0,75,76
 597.794921875 543.638671875 597.794921875 543.638671875 577.924804688 254.899414062 c 2,77,78
 573.068359375 199.3203125 573.068359375 199.3203125 568.211914062 113.7421875 c 1,79,80
 558.950195312 198.827148438 558.950195312 198.827148438 549.689453125 253.912109375 c 2,81,82
 538.301757812 340.083007812 538.301757812 340.083007812 508.943359375 607.083007812 c 128,-1,83
 479.5859375 874.083984375 479.5859375 874.083984375 452.193359375 1081.546875 c 128,-1,84
 424.80078125 1289.00976562 424.80078125 1289.00976562 402.293945312 1378.12988281 c 0,85,86
 393.32421875 1413.6484375 393.32421875 1413.6484375 367.047851562 1429.06347656 c 0,87,88
 344.995117188 1442 344.995117188 1442 309.954101562 1442 c 2,89,-1
 309.401367188 1442 l 2,90,91
 304.583984375 1442.39160156 304.583984375 1442.39160156 300.254882812 1442.39160156 c 0,92,93
 269.79296875 1442.39160156 269.79296875 1442.39160156 235.392578125 1426.05566406 c 0,94,95
 197.606445312 1408.11230469 197.606445312 1408.11230469 178.405273438 1369.6171875 c 0,96,97
 152.125 1317.87207031 152.125 1317.87207031 127.000976562 1068.27636719 c 0,98,99
 114.008789062 939.202148438 114.008789062 939.202148438 106.521484375 852.567382812 c 0,100,101
 100.741210938 785.681640625 100.741210938 785.681640625 81.0322265625 534.158203125 c 0,102,103
 75.0146484375 460.436523438 75.0146484375 460.436523438 65.0107421875 362.393554688 c 128,-1,104
 55.0078125 264.350585938 55.0078125 264.350585938 49.5439453125 204.00390625 c 128,-1,105
 44.080078125 143.65625 44.080078125 143.65625 44.080078125 118.848632812 c 0,106,107
 44.080078125 -17.408203125 44.080078125 -17.408203125 103.576171875 -20.0078125 c 0,108,109
 104.380859375 -20.025390625 104.380859375 -20.025390625 105.174804688 -20.025390625 c 0,110,0
 137.494140625 -20.025390625 137.494140625 -20.025390625 161.42578125 10.80078125 c 128,-1,1
EndSplineSet
Validated: 524297
EndChar

StartChar: N
Encoding: 78 78 46
Width: 1116
GlyphClass: 2
Flags: W
LayerCount: 2
Fore
SplineSet
939.142578125 1444 m 0,0,1
 908.05078125 1444 908.05078125 1444 888.565429688 1410.51660156 c 0,2,3
 872 1383.71191406 872 1383.71191406 872 1346.10449219 c 0,4,5
 872 1339.78222656 872 1339.78222656 872.993164062 1332.97363281 c 0,6,7
 888.12890625 1213.29394531 888.12890625 1213.29394531 892.141601562 843.221679688 c 0,8,9
 893.475585938 720.794921875 893.475585938 720.794921875 893.475585938 617.666992188 c 0,10,11
 893.475585938 410.735351562 893.475585938 410.735351562 888.125 281.331054688 c 2,12,13
 886.751953125 237.043945312 886.751953125 237.043945312 885.37890625 205.551757812 c 1,14,15
 868.200195312 223.571289062 868.200195312 223.571289062 851.020507812 262.306640625 c 2,16,17
 720.818359375 489.694335938 720.818359375 489.694335938 542.146484375 860.151367188 c 0,18,19
 361.690429688 1232.20507812 361.690429688 1232.20507812 322.017578125 1367.10253906 c 0,20,21
 311.59375 1409.13476562 311.59375 1409.13476562 285.483398438 1427.17285156 c 0,22,23
 263.489257812 1442 263.489257812 1442 229.142578125 1442 c 2,24,-1
 228.021484375 1442 l 1,25,26
 217.220703125 1443.20019531 217.220703125 1443.20019531 205.583007812 1443.20019531 c 0,27,28
 169.427734375 1443.20019531 169.427734375 1443.20019531 140.1875 1421.98730469 c 0,29,30
 122.973632812 1408.25390625 122.973632812 1408.25390625 113.767578125 1381.33886719 c 0,31,32
 104.561523438 1356.82910156 104.561523438 1356.82910156 104.561523438 1325.40234375 c 0,33,34
 104.561523438 1321.80273438 104.561523438 1321.80273438 105.1328125 1311.69140625 c 0,35,36
 111.146484375 1121.74414062 111.146484375 1121.74414062 108.642578125 913.911132812 c 0,37,38
 106.139648438 706.439453125 106.139648438 706.439453125 100.140625 428.76953125 c 0,39,40
 94.142578125 151.725585938 94.142578125 151.725585938 94.142578125 112 c 0,41,42
 94.142578125 44.791015625 94.142578125 44.791015625 108.296875 11.482421875 c 0,43,44
 114.31640625 -8.1142578125 114.31640625 -8.1142578125 124.461914062 -16.107421875 c 0,45,46
 134.606445312 -23.5322265625 134.606445312 -23.5322265625 148.626953125 -24 c 2,47,48
 148.747070312 -43.9970703125 148.747070312 -43.9970703125 148.8671875 -24.005859375 c 2,49,50
 151.171875 -24.12109375 151.171875 -24.12109375 153.185546875 -24.12109375 c 0,51,52
 183.227539062 -24.12109375 183.227539062 -24.12109375 204.326171875 4.7685546875 c 0,53,54
 225.423828125 31.681640625 225.423828125 31.681640625 225.423828125 89.111328125 c 0,55,56
 225.423828125 93.87109375 225.423828125 93.87109375 224.80859375 102.526367188 c 0,57,58
 224.192382812 112.530273438 224.192382812 112.530273438 224.192382812 127.81640625 c 0,59,60
 224.192382812 142.288085938 224.192382812 142.288085938 224.1953125 143.729492188 c 0,61,62
 224.1953125 207.126953125 224.1953125 207.126953125 229.671875 374.76171875 c 0,63,64
 235.147460938 543.229492188 235.147460938 543.229492188 236.9453125 659.124023438 c 0,65,66
 238.7421875 774.75390625 238.7421875 774.75390625 238.7421875 814.400390625 c 0,67,68
 238.7421875 973.4921875 238.7421875 973.4921875 229.171875 1151.984375 c 2,69,70
 225.469726562 1227.65820312 225.469726562 1227.65820312 221.766601562 1295.22949219 c 1,71,72
 244.87890625 1237.02929688 244.87890625 1237.02929688 267.990234375 1165.41113281 c 2,73,74
 314.587890625 1031.76660156 314.587890625 1031.76660156 401.549804688 842.10546875 c 0,75,76
 486.383789062 656.37890625 486.383789062 656.37890625 564.005859375 506.838867188 c 2,77,-1
 714.68359375 206.970703125 l 2,78,79
 794.521484375 58.060546875 794.521484375 58.060546875 808.720703125 25.4951171875 c 0,80,81
 816.203125 1.0498046875 816.203125 1.0498046875 835.44140625 -13.9384765625 c 0,82,83
 854.680664062 -28.228515625 854.680664062 -28.228515625 881.61328125 -28.228515625 c 2,84,85
 885.877929688 -48.1142578125 885.877929688 -48.1142578125 890.142578125 -28 c 1,86,87
 968.921875 -28 968.921875 -28 985.754882812 21.755859375 c 0,88,89
 993.884765625 42.650390625 993.884765625 42.650390625 1001.52734375 129.98828125 c 0,90,91
 1009.16894531 212.610351562 1009.16894531 212.610351562 1015.51367188 437 c 0,92,93
 1021.85742188 660.716796875 1021.85742188 660.716796875 1021.85644531 917.3671875 c 0,94,95
 1021.85644531 960.142578125 1021.85644531 960.142578125 1021.64257812 1002.49804688 c 0,96,97
 1020.15039062 1300.08984375 1020.15039062 1300.08984375 1015.80273438 1329.82421875 c 0,98,99
 1011.45410156 1360.30078125 1011.45410156 1360.30078125 1008.67675781 1373.22460938 c 0,100,101
 1005.8984375 1386.94726562 1005.8984375 1386.94726562 1001.15234375 1401.27441406 c 0,102,103
 996.405273438 1421.3359375 996.405273438 1421.3359375 990.700195312 1427.79785156 c 0,104,105
 984.994140625 1433.52441406 984.994140625 1433.52441406 972.03515625 1439.04003906 c 0,106,107
 959.077148438 1444 959.077148438 1444 939.142578125 1444 c 0,0,1
EndSplineSet
Validated: 524329
EndChar

StartChar: O
Encoding: 79 79 47
Width: 1116
GlyphClass: 2
Flags: W
LayerCount: 2
Fore
SplineSet
96.6728515625 534.377929688 m 2,0,1
 96.6728515625 511.172851562 96.6728515625 511.172851562 96.6728515625 498.432617188 c 1,2,3
 96.63671875 487.080078125 96.63671875 487.080078125 96.6015625 487.459960938 c 2,4,5
 96.6015625 343.98046875 96.6015625 343.98046875 147.779296875 221.338867188 c 128,-1,6
 198.956054688 98.697265625 198.956054688 98.697265625 294.184570312 25.345703125 c 0,7,8
 385.419921875 -48.005859375 385.419921875 -48.005859375 494.70703125 -50 c 0,9,10
 570.140625 -49.9912109375 570.140625 -49.9912109375 627.80859375 -40.7802734375 c 0,11,12
 685.4765625 -31.3203125 685.4765625 -31.3203125 740.092773438 -5.8173828125 c 0,13,14
 796.6640625 19.6865234375 796.6640625 19.6865234375 841.201171875 62.5146484375 c 128,-1,15
 885.73828125 105.341796875 885.73828125 105.341796875 923.365234375 174.21875 c 128,-1,16
 960.9921875 243.095703125 960.9921875 243.095703125 986.341796875 339.205078125 c 0,17,18
 1003.859375 408.243164062 1003.859375 408.243164062 1011.62890625 520.916992188 c 128,-1,19
 1019.39941406 633.590820312 1019.39941406 633.590820312 1019.39746094 735.75390625 c 0,20,21
 1019.39746094 869.251953125 1019.39746094 869.251953125 1009.7421875 995.768554688 c 0,22,23
 1000.01367188 1109.54394531 1000.01367188 1109.54394531 961.916015625 1200.68945312 c 128,-1,24
 923.819335938 1291.83496094 923.819335938 1291.83496094 866.592773438 1350.12695312 c 128,-1,25
 809.36328125 1408.42382812 809.36328125 1408.42382812 740.971679688 1439.23730469 c 0,26,27
 675.717773438 1470 675.717773438 1470 604.372070312 1470 c 0,28,29
 460.693359375 1470 460.693359375 1470 347.40234375 1386.22265625 c 0,30,31
 224.0703125 1302.4453125 224.0703125 1302.4453125 174.372070312 1171.02539062 c 0,32,33
 118.624023438 1017.60449219 118.624023438 1017.60449219 106.123046875 835.885742188 c 0,34,35
 99.6533203125 741.848632812 99.6533203125 741.848632812 98.1650390625 685.30078125 c 128,-1,36
 96.6728515625 628.58203125 96.6728515625 628.58203125 96.6728515625 534.377929688 c 2,0,1
771.78125 245.41796875 m 0,37,38
 735.935546875 193.014648438 735.935546875 193.014648438 690.451171875 162.017578125 c 0,39,40
 603.852539062 103 603.852539062 103 495.48046875 103 c 0,41,42
 443.676757812 103 443.676757812 103 403.53125 129.655273438 c 128,-1,43
 363.384765625 156.310546875 363.384765625 156.310546875 338.362304688 198.38671875 c 0,44,45
 311.389648438 240.462890625 311.389648438 240.462890625 293.234375 298.041992188 c 128,-1,46
 275.079101562 355.62109375 275.079101562 355.62109375 267.407226562 412.904296875 c 0,47,48
 254.552734375 508.8828125 254.552734375 508.8828125 254.549804688 636.985351562 c 0,49,50
 254.549804688 842.79296875 254.549804688 842.79296875 292.200195312 1001.57714844 c 0,51,52
 327.384765625 1151.62792969 327.384765625 1151.62792969 399.59765625 1236.48242188 c 0,53,54
 472.766601562 1324 472.766601562 1324 581.743164062 1324 c 128,-1,55
 690.720703125 1324 690.720703125 1324 764.393554688 1227.49902344 c 0,56,57
 844.041992188 1130.99902344 844.041992188 1130.99902344 856.600585938 989.705078125 c 0,58,59
 864.479492188 896.598632812 864.479492188 896.598632812 864.479492188 801.720703125 c 0,60,61
 864.479492188 762.912109375 864.479492188 762.912109375 863.161132812 723.815429688 c 0,62,63
 858.641601562 589.716796875 858.641601562 589.716796875 849.517578125 491.896484375 c 128,-1,64
 840.39453125 394.076171875 840.39453125 394.076171875 831.791992188 366.118164062 c 0,65,66
 810.77734375 297.8203125 810.77734375 297.8203125 771.78125 245.41796875 c 0,37,38
EndSplineSet
Validated: 524329
EndChar

